<svg version="1.0" xmlns="http://www.w3.org/2000/svg" width="640" height="1025.333" viewBox="0 0 480 769"><path d="M94.5 1c.3.5.8 1 1.1 1 .2 0 .4-.5.4-1 0-.6-.5-1-1.1-1-.5 0-.7.4-.4 1zM129.6 1.6c-.3.9-.6 5.7-.5 10.7 0 5.1-.2 10.3-.5 11.7-1 4.1-1.4 21-.5 21 .4 0 .7.9.6 2-.1 1.1-.5 2-1 2s-.7 1.5-.4 3.4c.4 2.5.1 3.6-.9 4-1.1.4-1.3 1.5-.8 4.3.8 4.2 2.3 6.2 4.2 5.5.7-.2 2.2.6 3.2 1.9l2 2.2.1-2.4.1-2.4.8 2.5c.5 1.7.8 1.9.9.7.2-2.7 1.8-2 2.4 1 .3 1.6.9 4.1 1.3 5.7.5 2.2.4 2.8-.7 2.4-.8-.3-1.3-1.3-1.1-2.2.2-1.2-.2-1.7-1.5-1.4-1.2.2-1.9 1.4-2.1 3.3-.2 2.3 0 2.7.7 1.5.7-.9 1.1-1 1.1-.3 0 .6 1.2 1.3 2.8 1.6 2.3.3 2.1.5-1.7 1.2l-4.4.8 2.7 1.4c1.4.7 2.6 2 2.6 2.8 0 .9 1 1.5 2.5 1.5 2.3 0 2.4.3 2.1 5.4-.2 4.4 0 5.3 1.3 5.2.8-.2 1.7-.8 1.9-1.4.2-.7.8-1.2 1.3-1.2 1.2 0 1.2 4.7-.1 7-.6 1.1-.6 2.1-.1 2.4 1 .7 4.1-2 4.1-3.5 0-.5.7-.9 1.5-.9 2.2 0 1.8 1.7-.8 4.4-1.5 1.5-2.4 3.5-2.4 5.6 0 2-.6 3.6-1.7 4.2-.9.5-1.4 1.4-1 1.9.3.5 0 1.6-.6 2.4-1 1.2-1 1.5 0 1.5 1.6 0 .8 19.6-.9 21.3-.6.6-1.1 2.1-1.1 3.4 0 1.4-2 4.4-4.9 7.5-2.8 2.9-5.6 6-6.4 6.9-.8.9-1.4 3.4-1.3 5.5.1 2.2-.4 5.3-1.1 7.1-1.1 2.6-1 3.2.3 3.7.8.3 1.2 1.1.9 1.7-.4.6.2 1.7 1.4 2.5 2.3 1.7 4.7 8.4 3.8 10.8-1 2.5-4.1 1.8-6.6-1.4-1.2-1.7-2.6-2.8-3.1-2.5-.5.3-1.3-.3-1.9-1.2-.6-1-1.1-1.4-1.1-.9 0 .6-1.1-.5-2.4-2.2l-2.3-3.2-.7 4.6c-.8 6.3-.8 11.4.2 11.3 2-.3 2.1.3.2 2.3-1.1 1.2-2 3-2 4.1 0 1.9 3.6 5.6 5.6 5.7.7 0 1.4.7 1.8 1.5.7 2 2.6 1.9 2.6-.1 0-1.1.5-1.4 1.6-1 .9.3 1.9.6 2.2.6.4 0 0 .5-.8 1-1.1.7-.5 1 2.4 1 2.2 0 3.7.3 3.3.6-.9.9-16.9 2.6-28.7 2.9-11.3.3-22.5 1.7-23.7 2.8-.4.4-.1 1.3.5 1.9.9.9 2.1.8 5.2-.1 8.6-2.6 30-.5 30 2.9 0 .4.7 1.1 1.6 1.4 1 .4 1.3.2.8-.6s-.2-.9 1-.5c2.1.8 4.5-1.2 3.8-3.2-.4-1.1.4-1.2 3.4-.7 7.7 1.4 7.3.9 7.7 10.3l.2 4.8-6 .2c-8.5.3-14.8 1.6-15.3 3.2-.3 1 .2 1.2 1.9.8 1.3-.3 6.5-.7 11.4-.8 7.1-.2 9.5.1 11.6 1.4 1.4 1 3.4 1.5 4.3 1.1 1.1-.4 1.6-.1 1.6 1 0 .9.6 1.6 1.4 1.6.8 0 1.8.5 2.2 1.2.5.8.2.9-.9.5-2.6-1-2 .1 2.9 5.3 4.8 5.1 7.6 9.5 6.6 10.4-.3.3.2.6 1.1.6.9 0 1.7.4 1.7 1 0 .5.4 1 1 1 1.5 0 6 4.2 6 5.7 0 .7-.6 1.3-1.2 1.3-.7.1-.3.6.9 1.3 1.2.7 3.1 2.4 4.3 3.9 1.2 1.6 3.1 2.7 4.3 2.7 1.2 0 4.5.2 7.3.6 5 .7 5.2.9 6.5 4.9.7 2.2 2.3 5.9 3.6 8.2 1.3 2.2 2.3 5.5 2.3 7.3 0 4.4 2.2 9.1 6 12.5 2.7 2.5 4.1 2.9 10.3 3.3 8.6.6 10 1.7 8.5 7.1-.6 2-1.4 4.2-1.9 4.8-1.2 1.5-6.9 18.5-6.9 20.7 0 3.2 3.1 6.7 6.9 7.6 6.2 1.6 14.6 1.7 13.6.1-.3-.5-.8-5.8-1.1-11.7-.2-6-.9-13.2-1.6-16.2-1-4.7-1-5.5.5-6.6.9-.6 1.3-1.6.8-2.1s0-1.8 1.2-2.9c1.5-1.5 1.9-1.6 1.4-.4-.3.9.4 2.4 1.6 3.5 1.8 1.5 3.7 1.9 10.2 1.9 11.3-.1 14.3-.7 14.9-2.8.3-1.3 1-1.6 2.9-1.2 2 .5 2.7.2 3.2-1.4.3-1.2 1-2.1 1.5-2.1.4 0 1-.9 1.3-2 .3-1.1 1.7-2.4 3.1-3 1.4-.5 2.6-1.5 2.6-2.1 0-.8.4-.8 1.5.1 1.2 1 1.5.9 1.5-.4 0-2.4 6.7-5.1 8.5-3.6.8.7 1.9.9 2.5.5 1-.6 1.1.1 1.6 8 .1 2.2.5 6.9.9 10.5 1 9.3.9 11.2-.7 12.1-1 .7-.9.9.5.9 2.6 0 11.2-4.6 13.9-7.4 1.3-1.3 4.3-3.5 6.8-4.8 3.9-2.1 5.6-2.4 13-2.1 10.9.4 25-.6 25-1.8 0-.5-1.2-.7-2.7-.4-2.8.5-2.8.5-.5-.7 1.8-.9 2.8-.9 4.3 0 1 .7 2.1 1.2 2.4 1.2 1 0 3.1-5.6 3.1-8-.1-2.2-.6-2.6-4.6-3-6.8-.8-6.2-3.4 1.7-7.4 3.5-1.7 6.3-3.7 6.3-4.4 0-.6.4-1.2.8-1.2.5 0 1.4-2.4 2.1-5.3.7-2.8 2.2-8 3.3-11.5 1.1-3.4 1.7-6.9 1.4-7.7-.6-1.6 1.7-7.9 2.6-7 .2.3 1.7-2.6 3.3-6.5 1.5-3.8 3.6-7.7 4.7-8.6 2-1.9 2.5-8.8.8-9.9-.6-.4-.8-1.6-.4-2.7.4-1.3.2-1.8-.4-1.4-1.1.7-2.5-2.1-1.6-3.5.3-.5 1.6-.7 2.9-.5 2.8.5 3.6-1 2.8-5.8-.4-2.6-1.1-3.6-2.4-3.6-1 0-2.3-.9-2.9-1.9-.8-1.6-.4-2.4 2-4.5 1.7-1.3 3-3.1 3-3.8 0-1 .2-1 .8 0 1.4 2.1 3.3-2.9 3.5-9.1.1-3.5.6-5.7 1.3-5.7 2.4 0 3.1-6.1 1.9-16.5-.4-3.5-.3-4.6.5-3.5.9 1.3 1 1.3 1.1 0 .1-.8.1-2.3 0-3.3-.1-.9.4-1.7 1.3-1.7 1 0 1.3.6.9 1.7-.5 1.3-.3 1.5 1.3.9 1-.4 2.4-.9 3.1-1 .7-.1 1.6-.5 1.9-.9.4-.4 1.8-.7 3.1-.7 1.4 0 2.3-.6 2.3-1.5 0-1.1 1.1-1.5 4-1.5 2.5 0 4-.5 4-1.3s.3-.8.9.2c.7 1.1 1 1 1.4-.5.4-1.6.5-1.7.6-.2 0 1 .6 1.8 1.2 1.8.7 0 .9-1 .5-2.5-.5-2-.3-2.5 1.3-2.5 1.1 0 2.3.4 2.6 1 1 1.6 3.8 1.2 3.1-.5-.4-1.1.2-1.5 2.2-1.6 5.3-.2 9.2-.7 10.7-1.3 1.1-.4 1.5.2 1.5 2.4 0 2 .5 3 1.5 3 .8 0 1.5.4 1.5 1 0 2.2 2.9-.4 3.5-3.2.7-3 5.4-6.8 8.5-6.8.9 0 2.2-.6 2.8-1.2 1.5-1.5 11.2-3.6 17-3.7l4.2-.1V0H224v6.6c0 3.7.4 6.3.9 6 .5-.4 1.7-.3 2.6 0 2.5 1 2 19.8-.7 23.6-1.1 1.6-1.6 3.2-1.3 3.8.3.5.2 1-.4 1-.5 0-1.5 2.4-2.2 5.4-1 4.4-1.5 5.3-3 4.9-1-.3-1.7-1-1.6-1.7.1-.6-.2-1-.8-.9-1.5.2-1.8-6.6-1.1-28.2.2-7.2.2-14.7-.1-16.8l-.6-3.7H173c-38.3 0-42.9.2-43.4 1.6zM153 60.9c0 .5-.7 1.2-1.6 1.5-1.4.5-1.5.4-.4-.9 1.4-1.7 2-1.9 2-.6zm-9 9.7c0 .8-.4 1.2-1 .9-.5-.3-1-1-1-1.6 0-.5.5-.9 1-.9.6 0 1 .7 1 1.6zm10.4 10.9c.3.9 0 1.5-.9 1.5-.8 0-1.5-.7-1.5-1.5s.4-1.5.9-1.5 1.1.7 1.5 1.5zm-.9 8.6c-.3.9-.1 2 .5 2.4.7.5.5 1.2-.7 2.1-1 .7-2.1 1.4-2.4 1.4-.7 0-.9-8.1-.2-9.3.9-1.5 3.4 1.6 2.8 3.4zM146 92c0 .5-.4 1-1 1-.5 0-1-.5-1-1 0-.6.5-1 1-1 .6 0 1 .4 1 1zm111.1 15.6c-.2 3.4-.6 4.3-1.3 3.3-.7-1.1-1.1-1.1-1.5-.2-.4 1.3-3.3 1.9-3.3.8 0-.3 1.1-1.8 2.5-3.3 1.4-1.5 2.5-3.2 2.5-3.9 0-.7.3-1.3.8-1.3.4 0 .5 2.1.3 4.6zm-7.9 3.2c-.7.2-1 .8-.6 1.3.3.5 0 .8-.7.7-.6-.2-1.4.3-1.6.9-.3.7.2 1.3 1.1 1.3 2 0 2 1.4.1 3.4-1.8 1.8-2.5 10.7-.8 11.3.6.2 1.3-.6 1.6-1.9.2-1.3.4-.6.4 1.4 0 3.1-.4 3.8-2 3.8-1.3 0-1.7.5-1.3 1.5.4 1.1-.1 1.5-1.7 1.5-1.2 0-3.2.3-4.4.6-1.5.4-2.3.2-2.3-.6 0-.7.7-1 1.5-.6.9.3 1.5 0 1.5-1 0-.8-.4-1.3-.9-.9-.5.3-1.2.1-1.6-.5-.4-.6-1.1-.8-1.6-.5-.5.4-.9-.1-.9-.9s.4-1.7.9-2c.4-.3.6-1.6.4-3-.8-4 1.3-6.6 5.4-6.6 3.6 0 3.6 0 1.8-2-1.1-1.3-2.5-1.8-3.7-1.4-1.2.3-1.8 0-1.8-.9 0-1 .7-1.4 2.3-1.1 1.2.2 1.6.2 1-.2-.7-.3-1.3-1.2-1.3-2s.6-1.4 1.3-1.3c.6.1 1.9 0 2.7-.4 3.2-1.2 4.5-1.4 5.5-.9.5.3.4.7-.3 1zm5.4 13.8c-.3.9-.6 2-.6 2.5s-.4.9-1 .9c-.5 0-1-1.1-1-2.5 0-1.6.6-2.5 1.6-2.5 1.1 0 1.4.5 1 1.6zm2.1 6.6c-.3.7-.5.2-.5-1.2s.2-1.9.5-1.3c.2.7.2 1.9 0 2.5zm3.3-2.2c0 .5-.2 1-.4 1-.3 0-.8-.5-1.1-1-.3-.6-.1-1 .4-1 .6 0 1.1.4 1.1 1zm-5 1.5c0 .8-.2 1.5-.4 1.5s-.6-.7-1-1.5c-.3-.8-.1-1.5.4-1.5.6 0 1 .7 1 1.5zm.3 4.2c-.7.2-2.1.2-3 0-1-.3-.4-.5 1.2-.5 1.7 0 2.4.2 1.8.5zm145 34c-.7.2-1.9.2-2.5 0-.7-.3-.2-.5 1.2-.5s1.9.2 1.3.5zM185 268.5c.7.8 1.6 1.2 2.1.9 1.4-.8 1 .6-.5 2.2-.8.8-2.1 1.4-2.9 1.4-.9 0-1.7.4-1.9.8-.1.5-1.6 1.2-3.1 1.6-1.8.4-2.6.3-2.3-.3.3-.5 0-1.2-.6-1.4-.8-.4-.5-.8.9-1.2 1.3-.4 2-1.2 1.6-2.1-.3-.8.4-1.8 1.8-2.3 3.3-1.3 3.5-1.3 4.9.4zm13 11.7c0 1.8-.2 2-.9.8-.6-.8-.7-1.8-.5-2.2.9-1.4 1.4-.9 1.4 1.4zm8.5 24.7c0 3.2-2.3 3.9-3.4.9-1.1-2.8-.5-4 1.7-3.6 1 .2 1.7 1.3 1.7 2.7zm22.2 48.7c-.3.3-1.2.4-1.9.1-.8-.3-.5-.6.6-.6 1.1-.1 1.7.2 1.3.5z"/><path d="M239.1 124.6c0 1.1.3 1.4.6.6.3-.7.2-1.6-.1-1.9-.3-.4-.6.2-.5 1.3zM91.2 4.2c.6 1.8 2.8 2.1 2.8.4 0-.9-.7-1.6-1.6-1.6-.9 0-1.4.5-1.2 1.2zM87.5 7c-.3.5.2 1 1.2 1 1.4 0 1.8.9 2 4.3.1 2.3 0 4.9-.4 5.7-.3.8-.5 3-.3 4.9.1 2.7-.1 3.3-1.4 2.8-2.1-.8-2.2 3.5-.2 5.3 1.8 1.4 1 4-1.3 4-1.5.1-1.5.1 0 1 .9.5 2 2.6 2.3 4.5.5 2.5 1.2 3.5 2.6 3.5 2.2 0 3.5-1.6 2-2.5-.5-.3-1-2.7-1-5.2 0-3.9.2-4.4 1.5-3.3 1.3 1.1 1.4.8.9-2.1-.4-1.9-1.3-3.9-2.1-4.6-1.2-.9-1.2-1.3-.1-2 .7-.4 1.9-1.6 2.7-2.6 1.1-1.4 1.1-2 0-3.3-.7-.9-1.2-3-1-4.6.2-2-.1-2.8-.8-2.3-.7.4-1.6-.6-2.2-2.4C90.8 6 88.7 5 87.5 7zM94.7 7.5c-.4.8-.2 1.7.3 2 .6.4 1-.3 1-1.4 0-2.5-.6-2.7-1.3-.6z"/><path d="M86.7 11.1c.4 1.5.8 1.7 1.4.8.8-1.4.3-2.9-1.1-2.9-.4 0-.6.9-.3 2.1zM224.3 20.5c0 2.2.2 3 .4 1.7.2-1.2.2-3 0-4-.3-.9-.5.1-.4 2.3zM224.3 29.5c0 2.7.2 3.8.4 2.2.2-1.5.2-3.7 0-5-.2-1.2-.4 0-.4 2.8zM87.1 43.6c0 1.1.3 1.4.6.6.3-.7.2-1.6-.1-1.9-.3-.4-.6.2-.5 1.3zM90 48c0 1.9.1 1.9 2 .3 1.1-1 2-1.9 2-2 0-.2-.9-.3-2-.3-1.3 0-2 .7-2 2zM93.2 54.5c0 1.6.2 2.2.5 1.2.2-.9.2-2.3 0-3-.3-.6-.5.1-.5 1.8zM54 57.5c0 .8.5 1.5 1 1.5.6 0 1-.7 1-1.5s-.4-1.5-1-1.5c-.5 0-1 .7-1 1.5zM89.2 59.4c.7.8 1.6 1.2 2.1.9 1.1-.7-.2-2.3-1.9-2.3-1.2 0-1.2.2-.2 1.4zM53.2 63.9c-1 .6-.9 1 .7 1.4 1.4.3 2.1 0 2.1-.9 0-1.6-.9-1.8-2.8-.5zM47 65c0 .5.6 1 1.4 1 .8 0 1.8-.5 2.1-1 .3-.6-.3-1-1.4-1-1.2 0-2.1.4-2.1 1zM3.1 68.2c-.5 1.3-.6 3.8-.4 5.5.4 2.6.2 3.3-1.1 3.3S0 78.3 0 85.4c0 4.9.5 8.8 1 9.1.8.5.7 1.1 0 2.1-.9 1-.6 1.9 1.7 3.9 1.5 1.4 3.6 2.3 4.6 2.1 1-.3 1.7.2 1.7 1.1 0 .8-.4 1.1-1 .8-.6-.4-.9 1.4-.9 4.7.1 2.9.4 4.2.6 2.9.4-1.9.7-2.1 1.5-1 .7 1.1 1.1 1.1 1.5.1.8-1.9 2.3-1.4 2.3.8 0 1.1.9 2.5 2 3.2 1.1.7 2 1.9 2 2.6 0 .7.8 1.2 1.7 1 1-.2 1.8.1 1.8.7 0 .5 1.9 2.9 4.3 5.2 2.3 2.4 4.2 5.2 4.2 6.4 0 1.5.5 1.9 1.5 1.5 1.6-.6 5.5 2.6 5.5 4.4 0 .5.9 1 2 1s2 .7 2 1.5 1.4 2.8 3 4.5c1.7 1.7 3 3.5 3 3.9 0 .5 1 1.1 2.3 1.4 1.2.4 6 4.2 10.7 8.6 11.7 11 12.1 11.4 12.8 10.6.4-.3.2-.9-.4-1.3-.5-.4-1-4.5-1.1-9.2-.1-7.8-1.6-23.1-2.8-29-.3-1.4-.8-4.2-1.1-6.2-.4-2.1-1-3.5-1.5-3.2-.5.3-.9-.4-.9-1.4 0-1.1-.7-2.2-1.5-2.6-.8-.3-2.2-2-3.1-3.8-.8-1.9-2.9-4.1-4.5-5.1-1.7-.9-2.8-2.1-2.5-2.6.3-.5-.3-1.1-1.3-1.4-1.4-.3-1.8-1.1-1.4-2.6.3-1.2.1-2.1-.6-2.1-2.2 0-2.6-.2-4.4-1.7-.9-.9-1.7-2.2-1.7-2.9 0-2-2.1-2.8-3.1-1.3-.6 1-.9.7-.9-1.2 0-1.4-.3-2.9-.7-3.3-.4-.4-.8-1.3-.9-1.9 0-.7-.2-1.9-.2-2.8-.2-1.2-.9-1.5-2.8-1.1-1.9.3-2.5.1-2-.7.4-.6 1.4-1.1 2.2-1.1.8 0 1.4-.4 1.4-1 0-.5-.6-.7-1.3-.4-.7.2-2.9-.2-5-1.1-3-1.2-3.6-1.9-3.4-4.2.2-2.2-.2-2.8-1.8-2.8-1.1.1-2.4-.6-2.9-1.4-.7-1.1-1.1-.9-2.2 1-1.3 2.4-1.3 2.4-1.4-1 0-3.3-.1-3.3-1.9-1.7-1.2 1.1-2.1 1.4-2.6.7-1.3-2.2-2.7-1-2.3 1.8.3 2.1.1 2.8-.9 2.4-.9-.4-1.3.6-1.3 3.6 0 3.3-.3 3.9-1.6 3.4-1.4-.5-1.5-1.6-1-7C7 67 6.8 66 5.5 66c-.9 0-1.9 1-2.4 2.2zm12.6 4.3c-.8.9-1.4 1-1.9.2-.9-1.6 0-2.7 1.7-2.1 1.1.5 1.2.9.2 1.9zm1 9.7c-.3.8-.6.5-.6-.6-.1-1.1.2-1.7.5-1.3.3.3.4 1.2.1 1.9zm-8.1 2.4c-.3.9-1.2 1.4-1.9 1.1-.6-.2-1.8.3-2.4 1.2-1.1 1.4-1.4 1.4-2.3.1-1.4-2.2-.8-3.1 3-4.4 3.6-1.2 4.6-.6 3.6 2zm8.9 1.3c.3.5.1 1.2-.5 1.6-.5.3-1-.1-1-.9 0-1.8.6-2.1 1.5-.7zM134 91c0 .5.5 1 1 1 .6 0 1-.5 1-1 0-.6-.4-1-1-1-.5 0-1 .4-1 1zM140.1 99.6c0 1.1.3 1.4.6.6.3-.7.2-1.6-.1-1.9-.3-.4-.6.2-.5 1.3zM3.1 113.4c-.7.8-.8 1.7-.3 2 .6.3 1.5-.1 2.1-.8.7-.8.8-1.7.3-2-.6-.3-1.5.1-2.1.8zM4.7 134.8c-.3.4.3 1.3 1.4 2 1 .7 1.9.8 1.9.3 0-1.3-2.8-3.3-3.3-2.3zM22.6 135.8c-.7 1.2 2.2 3.8 3.1 2.8.4-.3 0-1.4-.9-2.2-.9-1-1.8-1.2-2.2-.6zM15.2 137.2c.6 1.8 2.8 2.1 2.8.4 0-.9-.7-1.6-1.6-1.6-.9 0-1.4.5-1.2 1.2zM.3 139.6c-.8 2.1 1.3 4.2 2.8 2.7 1.3-1.3.5-4.3-1.1-4.3-.6 0-1.3.7-1.7 1.6zM13.1 140.6c0 1.1.3 1.4.6.6.3-.7.2-1.6-.1-1.9-.3-.4-.6.2-.5 1.3zM20.1 142.6c0 1.1.3 1.4.6.6.3-.7.2-1.6-.1-1.9-.3-.4-.6.2-.5 1.3zM30 144.4c0 2.4 1.7 2.8 2.3.6.3-1.3 0-2-.9-2-.8 0-1.4.6-1.4 1.4zM0 145c0 .5.5 1 1 1 1.3 0 1.3 3.3-.1 6.4-.9 2-.9 2.9.1 4.1.9 1.1.9 1.9.2 2.8-.7.9-1.1 21.1-1.2 63.2 0 57.1.1 62.3 1.7 65.2 1.3 2.4 2.2 3.1 3.5 2.7 1.3-.4 2.1.2 2.7 1.8.8 2.1 1 2.1 1.6.5.6-1.4 1.4-1.7 3.2-1.2 1.4.3 3.1.1 3.8-.5 1-.8 1.2 1 1.2 8.8 0 10.9 1.2 14.5 4.6 14 1.2-.1 2.7 0 3.2.4.6.3 2.3.4 3.8.1 2.6-.5 2.7-.8 2.5-6.1-.2-3.7.2-5.7 1-6 .7-.2 1.2-1.2 1.2-2.2 0-.9.7-2.3 1.5-3 .8-.7 1.5-2.5 1.5-3.9 0-2.4 2.9-7.9 3-5.7 0 .5.7.3 1.5-.4 1.2-1 1.5-.6 2.1 2.9.4 2.2 1 3.8 1.4 3.6 1.1-.7 4 .5 4 1.6 0 .6.9 2.2 1.9 3.7 1 1.5 2.2 4.9 2.5 7.6.3 2.7 1.3 5.7 2.1 6.6.8.9 1.5 2.6 1.5 3.9 0 1.2.7 3.8 1.5 5.8.8 1.9 1.5 4.4 1.5 5.4 0 1.1.7 1.9 1.6 1.9 1.1 0 1.4-.6 1-1.8-.4-1 .2-.7 1.4.8 1.1 1.4 2 2 2 1.3 0-.6-.5-1.5-1-1.8-.6-.3-.8-1.6-.5-2.8.3-1.2.6-6.7.8-12.1.3-8.9.1-9.9-1.5-10.4-2.5-.6-2.4-4.2.1-4.2 1.8 0 1.9-.5 1.4-5.5-.6-5.7 0-6.7 2.3-3.8 1.2 1.6 1.5 1.6 2.4.3.8-1.3 1.1-1.3 1.9-.1.7 1.1 1.1.8 1.7-1 .4-1.3.7-2.7.6-3.2-.1-.4.5-.7 1.4-.7.8 0 1.2-.4.9-1-.3-.6.1-.7 1-.4.8.4 2.3 0 3.1-.7 1.4-1.2 1.6-2.9 1-12.4-.6-9.3-1-11.2-2.6-12.4-1.5-1-2-2.5-2-5.7 0-2.3.4-4.6 1-4.9.5-.3 1-3.1 1-6.2 0-5-.2-5.5-2-5-1.3.3-2 0-2-.9 0-.8.8-1.4 1.8-1.4 1.4 0 1.5-.2.2-1-.8-.5-1-1-.5-1 1 0 1.3-12.7.4-14.6-.3-.5-.6-3.6-.8-6.9-.3-6.8-1.3-8.5-4.1-7.8-2.2.6-2.8-1.2-.7-2 .6-.3 0-.6-1.5-.6-1.6-.1-2.8-.6-2.8-1.1 0-.6-.7-1-1.5-1s-1.5.4-1.5 1c0 2.1-2 .9-3.5-2.1-1.3-2.4-1.9-2.8-3-1.9-1 .9-1.5.6-2-.9-.3-1.2-1.1-2.1-1.6-2.1s-.9-1-.9-2.3c0-1.2-.4-2.8-.9-3.6-.8-1.2-1.2-1.2-2.5-.2-1.3 1.1-1.6 1.1-1.6-.2 0-1.8 2.1-2.7 4.9-2 1.2.3 2.1.1 2.1-.6 0-1.1-1.2-1.5-4.2-1.2-.9.1-2.5-.5-3.5-1.3-1-.9-2.7-2.2-3.8-3-1.8-1.4-1.8-1.5-.2-1.6.9 0 1.7-.7 1.7-1.5 0-.9-.8-1.4-2.2-1.2-1.7.1-2.4-.4-2.6-2.1-.3-1.9-1.6-2.6-4.2-2.4-.3 0-.7-1.3-.8-3-.2-2 .1-2.8 1-2.5.7.2 1.2 1.4 1.1 2.6-.2 1.3.3 2.1 1.2 2.1 2 0 2-4.2 0-8-1.1-2.1-2.1-2.8-4-2.6-2.7.4-3.1-.4-1.3-2.2 1.3-1.3 1.1-1.4-4.7-1.6-3.7-.1-4-.3-4.3-3.3-.2-2.3-.7-3-1.8-2.6-.8.3-1.4 1.4-1.4 2.4 0 2.4-1.6 2.5-2.4.2-.6-1.5-.8-1.5-1.7-.3-.7 1.1-.8.4-.3-2.3.5-2.8.3-3.7-.8-3.7-1.2 0-1.4 1.5-1.1 7.2.2 4 .5 7.9.8 8.5.2.7-.1 1.2-.8 1-.6-.1-1.3.8-1.5 2-.4 2.9-1.8 3-2.5.2-.3-1.2-1-1.8-1.6-1.4-.6.3-1.1.1-1.1-.4 0-.6.9-1.1 2-1.1 1.2 0 2-.7 2-1.6 0-2.2-3.2-6.1-4.8-5.8-.7.1-.8 0-.2-.3.5-.2 1-1.6 1-3 0-2-.4-2.3-2.1-1.8-1.5.5-2.2.2-2.6-1.4-.5-2.1-3.3-3-3.3-1.1zm7.8 13.2c-.3.7-1.3 1.5-2.4 1.7-1.6.3-1.7.1-.5-1.3 1.6-1.9 3.4-2.1 2.9-.4zm26.2 2.7c0 .6-.4 1.3-1 1.6-.5.3-1-.1-1-.9 0-.9.5-1.6 1-1.6.6 0 1 .4 1 .9zM8.8 175c-.2.6-.8.6-1.8 0-1.3-.9-1.3-1.1 0-2 1.5-1 2.5 0 1.8 2zm29.2 4.5c0 .8-.4 1.5-1 1.5-.5 0-1-.7-1-1.5s.5-1.5 1-1.5c.6 0 1 .7 1 1.5zm3.5 3.5c.3.5.1 1-.4 1-.6 0-1.1-.5-1.1-1 0-.6.2-1 .4-1 .3 0 .8.4 1.1 1z"/><path d="M25.9 145.5c-.1.3-.2 1.8-.3 3.5-.1 2.2.4 3 1.5 3 2.2 0 3.5-5 1.7-6.1-1.5-1-2.7-1.1-2.9-.4zM42 164.4c0 .9.5 1.6 1 1.6.6 0 1-.4 1-.9 0-.6-.4-1.3-1-1.6-.5-.3-1 .1-1 .9zM443.3 181c0 3 .2 4.3.4 2.7.2-1.5.2-3.9 0-5.5-.2-1.5-.4-.2-.4 2.8zM446.3 181c0 2.5.2 3.5.4 2.2.2-1.2.2-3.2 0-4.5-.2-1.2-.4-.2-.4 2.3zM444.3 191.7c-.7.2-1.3 2-1.3 3.8 0 2.6.4 3.3 1.8 3.1 1.2-.2 1.7-1.3 1.8-3.9.1-3.7-.1-4-2.3-3zm1.2 2.2c.3.5.1 1.2-.5 1.6-.5.3-1-.1-1-.9 0-1.8.6-2.1 1.5-.7zM85 205.4c0 2.4 1.5 2.6 2.8.5 1.1-1.6.9-1.9-.8-1.9-1.1 0-2 .6-2 1.4zM442.2 219.2c-.5 2.4-1 20.8-1.1 41.1-.1 20.2-.4 37.4-.7 38.2-.4.8-.2 1.5.2 1.5 1.6 0 3.4-7.3 2.2-8.7-.7-.9-.7-1.7-.1-2.6.6-.6 1.5-7.3 2.2-14.7 2.6-30.1 3.1-55.1 1.2-57.4-2.1-2.5-2.9-1.9-3.9 2.6zM139.2 254l-2.3 5-2.7-2.5c-2.7-2.5-3.7-2.7-12.1-2.7-5.3-.1-6 1-6.1 8.2-.1 3-.3 8.1-.4 11.2-.3 5-.1 5.8 1.4 5.8 1 0 2.1.6 2.3 1.2.4 1 .6 1 .6 0 .1-1.5 10.8-1.7 13.1-.2 1.2.7 1.6 4.4 2 18.7.5 16.5.6 17.8 2.4 18.1 1 .2 2.3-.3 2.8-1.3.9-1.5 1.1-1.5 2.3.2 1.2 1.6 1.4 1.4 2-2 .4-2 .4-4.9 0-6.4-2-7.9-1.5-39.3.6-39.3.5 0 .9.6.9 1.3 0 1.4 3.4 1.6 4.6.4.4-.4 1.9-.7 3.3-.8 2.6 0 2.6 0 .4-.9-1.3-.5-2.3-1.4-2.3-2 0-.5-1.1-1-2.5-1-2.9 0-4.5-2.8-2.4-4.1 1.1-.7 1-.9-.4-.9-1 0-1.6-.4-1.3-.9.3-.5-.1-1.4-.9-2.1-.8-.7-1.5-2.2-1.5-3.4 0-4.6-1.6-4.5-3.8.4zm-1.2 33.5c0 1.6-.5 3.7-1 4.5-.7 1.1-1-.3-1-4.5s.3-5.6 1-4.5c.5.8 1 2.8 1 4.5zM67.6 302.1c.4 7.3.8 8.9 2.5 8.9.9 0 .3-13.6-.8-15.3-1.4-2.3-2.1.2-1.7 6.4zM440.5 303c.3.5.8 1 1.1 1 .2 0 .4-.5.4-1 0-.6-.5-1-1.1-1-.5 0-.7.4-.4 1zM.2 495.3l.3 177.1 4.7 2c4.6 1.9 4.8 1.9 6.7.2 2.4-2.2 3.2-1.9 29.6 8.1 20.7 7.9 41.6 14.8 49.6 16.4 3.3.6 6.2 1.6 6.5 2 .3.5 1.5.9 2.7.8 2-.1 2-.2-.3-.8-1.5-.5.5-.7 5-.6 10.5.4 10.3.3 9.6 2-.3.9 0 1.5.9 1.5.8 0 1.5-.7 1.5-1.5 0-1.6 5.7-1.5 30.5.5 6.6.5 16.5 1.2 22 1.5 5.5.3 12.3.8 15 1 2.8.3 12.4 1 21.4 1.5 9 .6 16.8 1.3 17.3 1.6.4.3.5 1 .2 1.6-.4.7-.2.8.4.4.7-.4 1.2-.4 1.2.1 0 .4 3 .8 6.6.9 7.3.1 8.5.9 8.3 5.9-.2 5.2.1 6.6 1.1 6 .6-.4 1-1.2.9-1.8-.1-.7-.1-3.1 0-5.5.1-6 2.1-5.3 2.1.8 0 4.3.3 5 2 5 1.1 0 2 .4 2 1 0 .5-.5 1-1.1 1-.7 0-.9 1-.5 2.5.7 2.9.8 2.9-3.7 1-3-1.2-3.7-1.2-4.7 0-.6.7-2 1.5-3.1 1.7-2.6.4-2.6 2.2.1 2.8 2.8.7 2.6 2.5-.3 2.5-1.5 0-2.2.6-2.2 2 0 1.6-.9 2.1-5 2.7-4.8.8-12.9-.7-12.1-2.1.2-.3-1.1-.7-2.8-.8-4.2-.3-10.3-2.9-10.9-4.5-.4-.9-.6-1-.6-.1-.1.9-1 .8-3.6-.3-1.9-.7-4.2-1.4-5.2-1.3-1.3 0-1.1.3.7 1.1 4.2 1.7 24.2 8.9 29.5 10.5 2.8.8 6.1 2 7.5 2.5 5.5 2.3 6.6 2.7 9 3.3 1.4.4 3.9 1.3 5.5 2 2.9 1.2 26.9 8.9 37 11.9 2.8.8 7.5 2 10.5 2.6 3 .7 6.9 2 8.5 2.9 2.7 1.4 11.7 1.6 91.3 1.9l88.2.3V751c0-17.6-.5-21-3.5-23.2-.6-.5-.5-.8.3-.8.7 0 1-.5.7-1-.3-.6.1-1.3.9-1.6 1.4-.6 1.6-12.5 1.6-118.1V488.8l-2.3.6c-2 .5-2.5 0-4-4.2-.9-2.6-1.7-5-1.7-5.5 0-.4 1.8-.7 4-.7h4v-32l-2.5 1c-1.3.5-5 2.2-8.2 3.8-3.2 1.6-8.8 4.2-12.5 5.8-3.8 1.6-8.9 4.6-11.5 6.8-2.7 2.1-8.4 5.6-12.8 7.8-10.5 5.1-17.8 11-26.1 21.1-7.8 9.3-33.4 34.7-35.1 34.7-.2 0-.3-1.3-.3-3 0-1.6-.4-3.9-.9-5.2-2.4-6.1-4.1-15.1-4.5-22.8-.3-7.5-.5-8.5-2.1-8.2-1.4.3-1.6 0-.9-1.5 1.3-2.9 1.8-16.6.5-15.9-.6.4-1.1 1.6-1.1 2.6 0 2.5-1.5 3.3-3.8 2.1-4.7-2.5-5.6 4.5-1.4 10.8 2.5 3.7 2.8 5 2.5 9.4-.3 3.7-.2 4.8.6 3.7.7-1.1 1-.4.9 2.6 0 4.9.9 8.3 3 10.6 1.8 2.1.5 2.3-2 .4-1-.7-1.4-1.7-1-2.1.4-.5.1-.5-.5-.1-1.8 1-1.6 1.7 1 4.7 4.2 4.8 5 7.2 4.9 14.2 0 3.8-.5 7.4-1 8-.6.7-.8 3.1-.6 5.4.4 3.8.2 4.3-1.7 4.3-1.7 0-2 .5-1.7 2.5.3 1.4.1 2.5-.5 2.5s-.1 1 1 2.2c1.2 1.4 1.9 3.5 1.8 5.3 0 1.6.3 3.5.8 4.2.5.7.2 2.1-.7 3.5-.9 1.3-1.5 4-1.4 6 .1 2.1-.4 4.4-1.1 5.2-.7.8-1 2-.6 2.6.3.5.1 1-.4 1-.6 0-1.1.6-1.1 1.4 0 .8-1.4 1.9-3.1 2.5-2.7.9-3.4.8-4.5-.7-.7-.9-1.4-2-1.4-2.4 0-1-3 .2-5.2 2.1-2.5 2.1-2.4 6.1.1 5.4 1.6-.4 1.8 0 1.3 2.2-.3 1.9 0 3 1.2 3.7 2.3 1.3 2.1 4.8-.4 4.8-2 0-2.8 2.4-1.2 3.4.9.5 4.6-3.2 4.8-4.9.1-.6.3-1.9.4-3 .1-1.1.4-1.5.7-.8.6 1.7 3.3 1.6 3.3-.1 0-1.2 5.9-9.4 6.1-8.5 0 .2.2 1.5.3 2.7.2 1.3.8 2.7 1.5 3.2 1 .5 1 1.3.2 2.7-.7 1.3-.7 3.2-.1 5.4 1.2 4.3.6 9.3-1.5 12.6-1 1.4-1.2 2.2-.6 1.9.6-.4 1.1-.3 1.1.3 0 .5-.5 1.3-1.1 1.6-.5.4-1.5 1.8-2 3.2-.5 1.4-1.2 2.3-1.6 2-.3-.4-1.7.5-3.1 2-1.3 1.5-3.7 2.8-5.3 3-3.2.3-7.9 3-7.9 4.4 0 .5-.6.9-1.3.9-.7 0-1.8.9-2.5 2s-2.3 2-3.6 2c-1.3 0-2.7.7-3 1.6-.3.9-1.2 1.4-2 1.1-.8-.3-2.2.2-3.2 1.2-1.1.9-2.7 2-3.7 2.4-1 .4-1.5 1.1-1.2 1.7.8 1.3-.8 1.3-2.2-.1-.8-.8-1.5-.5-2.5 1-1.8 2.6-10.7 5-11.8 3.1-.6-1-.8-1-1.2.1-.4 1.2-10.1 1.6-29.3 1.2-3.3-.1-8-.2-10.5-.2-7.5.1-7.7 0-6-1.2 1.1-.8.3-.9-3-.3-5.4.8-8.9.8-33.5-.6-10.4-.6-20.8-1.6-22.9-2.1-4.2-1.1-30-1.3-37.7-.2-2.4.3-5.3.6-6.4.7-1.1 0-2.3.5-2.6.9-2.6 3.5-12.9-12.4-12.9-20.1 0-1.3-1.2-6.3-2.7-11.1-3.3-10.9-3.4-18.8-.4-30.6 2.2-8.3 2.3-9.7 1.3-18-.6-5-1.5-12.2-1.9-16-.4-3.9-.9-6-1.1-4.7-.2 1.2-.8 2-1.3 1.7-1.6-1-3.1.5-1.9 2 .8.9.6 1.4-.5 1.9-.8.3-1.5 1.1-1.5 1.8s-1 1.9-2.1 2.7c-1.6.9-1.9 1.5-1 2.1.9.5.5.9-1.2 1.2-2.1.4-2.4.1-2.5-2.4 0-1.5.4-2.8.9-2.8s.9-.5.9-1c0-.6-.7-1-1.5-1-1.7 0-3-4.1-2.2-7 .3-1.1-.1-2.5-.9-3.1-.8-.7-1.2-1.9-.9-2.8.2-.9.7-4 1-6.9.3-3 .7-5.8 1.1-6.3.3-.5-.1-.9-.8-.9-1 0-1-.2.1-.9.8-.5 1.4-2.3 1.3-4 0-1.7.3-3.3.8-3.6.5-.3 1.2-3.4 1.5-7 .5-4.4 1.3-6.8 2.4-7.5 1-.6 1.1-1 .3-1-2.4 0-14.2-8.7-21.4-15.6-13-12.6-15.2-17.4-10.3-23.2 3.3-4 7.1-11.9 8-16.7.4-2.2 1.2-4.6 1.8-5.4.9-1.1.9-1.5 0-1.8-1-.4-.9-1 .2-2.6 2.1-3.1 1.9-5.4-.7-6.2-1.5-.4-1.8-.8-1-1.2 2.6-1-1.9-3-5.2-2.3-1.7.3-3.9.2-4.9-.4-1.3-.8-2-.7-2.7.4-.6 1-1 1.1-1 .2 0-.6-.8-1.2-1.7-1.2-1.7-.1-5.6-2.4-5.3-3.2.1-.1-.2-1.1-.6-2.1-.8-2.1-.3-2.8 2.4-3 1.1 0 1.8-.6 1.5-1.3-.2-.7.1-1.5.8-2 .8-.5 1-.3.4.6-.5.8-.3 1.1.6.8.8-.3 1.6-1.3 1.8-2.4.2-1 .8-2.2 1.5-2.7.8-.5.7-.9-.3-1.6-.7-.5-1.4-2.8-1.5-5.1-.1-2.9-.6-4.5-1.6-4.8-1.2-.4-1.3-.2-.3.9 1.4 1.8.6 5.9-1.1 5.9-.7 0-1.9-1.1-2.6-2.4-1.1-2.1-1.8-2.4-4.4-1.9-1.7.4-3.6 1.3-4.2 2.1-.6.8-1.6 1.2-2.2.8-1.4-.8-1.6-11.2-.4-12 .5-.3.7-1.9.4-3.5-.4-2.6 0-3.1 2.2-3.7 1.5-.3 3.9-.4 5.3-.1 2.6.5 2.6.4.8-.9-2.2-1.6-4.4-1.8-6.5-.4-3.7 2.3-5.4-4.1-2-8 1.1-1.3 2-2.9 2-3.7 0-.8.7-2.1 1.5-2.9 2-2 3.8-9.1 3.1-12-.9-3.4-6.5-9.4-8.7-9.4-1 0-1.9-.7-1.9-1.5s-.8-1.5-1.7-1.6c-1.1 0-1.3-.3-.5-.6 1.7-.7 1.5-2-.4-2.7-.8-.3-1.3-.2-1 .3.3.4-.3 1.6-1.4 2.6-1.1 1-2 2.3-2 3 0 .6-1 1.7-2.3 2.2-1.5.7-2.8 2.7-3.7 5.4-2.6 8.4-3.7 9.9-7.4 9.9-7.1 0-9.4-1-9.9-4.4-.2-1.7 0-3.6.5-4.3.5-.6.8-4.2.7-7.9-.2-4.5.2-6.9.9-7.2 1.7-.5 1.5-2.2-.3-2.2-1.9 0-1.9-1.4.1-3.4 1.4-1.5 1.4-1.6 0-1.6-.9 0-1.6-.4-1.6-.9 0-1.2-6.7-5.1-8.9-5.1-2.9 0-11.9-3-13.4-4.4-.7-.7-2.4-1.7-3.7-2.1-1.4-.4-3.4-1.3-4.5-1.9-1.1-.7-3-1.5-4.3-1.8l-2.2-.6.2 177.1zm23.1-160.8c3.9 1.6 4.7 3.6 4.8 12 .1 11.9.2 12.5 2.6 12.5 1.5 0 2.1.5 1.7 1.4-.3.8-1.2 1.2-1.9 1-1.7-.7-2.2 2.3-3 19.1-.4 7.1-1 14.8-1.4 17-.6 3.8-.8 4-4 3.7-3.3-.4-3.3-.3-2.9 3.2.3 2.9.1 3.6-1.3 3.6-.9 0-2-.7-2.3-1.6-1-2.6-.7-5.4.7-5.4.8 0 .9-.2.1-.8-1.8-1.1-2.8-25.2-1.5-36.3.6-5.2 1.3-12.7 1.6-16.8.6-9 1.5-14.1 2.5-14.1.4 0 2.3.7 4.3 1.5zm6.4 15.7c-.2 1.3-.4.5-.4-1.7-.1-2.2.1-3.2.4-2.3.2 1 .2 2.8 0 4zm30.5 32.5c2.1 1.9 2.4 4.9.6 5.6-1 .3-.8 1 .6 2.5 1.5 1.7 1.8 3.8 1.8 11.5 0 5.2-.5 10.4-1.1 11.6-1.6 2.9-4.7 2.7-5.5-.4-.4-1.4-2.2-3.9-4.1-5.6-3.8-3.5-3.9-6.1-.5-12.9 1-2 2.1-5.1 2.5-7 .8-3.9 2.2-7 3.2-7 .4 0 1.5.7 2.5 1.7zM81 404.4c0 .3-.4.8-1 1.1-.5.3-1 .1-1-.4 0-.6.5-1.1 1-1.1.6 0 1 .2 1 .4zM18.1 412c.4.3 1.4 2.5 2.2 4.8 1.2 3.6 1.3 4.4.2 4.8-2.7 1.1-5.5-1.5-5.5-4.9 0-4.3 1.2-8.6 1.8-6.7.3.8.8 1.7 1.3 2zm80.6 20.6c-.3.3-1.2.4-1.9.1-.8-.3-.5-.6.6-.6 1.1-.1 1.7.2 1.3.5zm4.4 3.7c-1.6 1.6-2.6 0-1-1.9.9-1.1 1.5-1.2 1.7-.4.2.6-.1 1.7-.7 2.3zm305.3 82c.6 3.1.4 3.8-1.1 4.4-1 .3-3.1 1.9-4.6 3.6-2.6 2.7-3 2.8-4.4 1.4-1.3-1.3-1.4-1.9-.4-3.1.8-.9 1.8-1.3 2.4-.9.5.3.7.1.4-.4-.4-.6-2.6-1.4-4.9-1.8-2.4-.4-3.5-1-2.5-1.2.9-.3 1.7-.9 1.7-1.4 0-.5.7-.9 1.5-.9.9 0 1.8-.7 2.2-1.6.3-.9.9-1.1 1.2-.6.3.5 1.6 1.2 2.8 1.6 1.6.5 2.5.2 3.3-1.4 1.4-2.6 1.6-2.5 2.4 2.3zM354 591.4c0 .3-.4.8-1 1.1-.5.3-1 .1-1-.4 0-.6.5-1.1 1-1.1.6 0 1 .2 1 .4zm10.7 10.8c-.3.8-.6.5-.6-.6-.1-1.1.2-1.7.5-1.3.3.3.4 1.2.1 1.9zm-128 107.2c1.1 1.1-9.1.6-10.7-.5-1.1-.7.1-.9 4.3-.6 3.2.3 6.1.8 6.4 1.1zm13.8.7c1.7.1 2.3.3 1.4.6-1.1.3-1.5 1.1-1.2 2.4.3 1 0 1.9-.6 1.9s-1.1-.6-1.1-1.4c0-1.3-2.8-2.8-7.5-4-1.1-.3-.2-.3 2-.1 2.2.3 5.4.5 7 .6zm15.4 1.5c.2.2-1.7.4-4.2.4-3.1 0-4.7.4-4.7 1.2 0 .9-.3.8-.9-.2-.6-.8-.8-1.7-.5-2.1.4-.6 9.5 0 10.3.7zm17.4 1.1c-.7.2-1.9.2-2.5 0-.7-.3-.2-.5 1.2-.5s1.9.2 1.3.5zm-26.3 6.6c0 1-.5 1.5-1.1 1.2-.6-.4-.8-1.3-.5-2.1.3-.7.1-1.6-.4-1.9-.6-.4-1-1.2-1-1.8.1-2 3 2.5 3 4.6zm-8.3.9c-.3.7-.5.2-.5-1.2s.2-1.9.5-1.3c.2.7.2 1.9 0 2.5zm1.8 6.8c1.8 1.9 1.7 2-.3 2-1.5 0-2.2-.6-2.2-2 0-1.1.2-2 .3-2 .2 0 1.2.9 2.2 2zm13.2.6c-.3.3-1.2.4-1.9.1-.8-.3-.5-.6.6-.6 1.1-.1 1.7.2 1.3.5zM239 744c0 .5-.5 1-1.1 1-.5 0-.7-.5-.4-1 .3-.6.8-1 1.1-1 .2 0 .4.4.4 1zm10 0c0 .5-.5 1-1.1 1-.5 0-.7-.5-.4-1 .3-.6.8-1 1.1-1 .2 0 .4.4.4 1zm-2.2 2.1c1.2.5 2.2 1.3 2.2 1.8 0 1.4-1.8 2.3-2.4 1.2-.4-.5 0-1.2.6-1.5.7-.3.1-.3-1.4 0-1.7.4-2.8.2-2.8-.5 0-.6-.7-1.1-1.5-1.1s-1.5-.5-1.5-1.1c0-1 1.6-.7 6.8 1.2zm7.5.6c-.7.2-1.9.2-2.5 0-.7-.3-.2-.5 1.2-.5s1.9.2 1.3.5zm7.4 5.9c-.3.3-1.2.4-1.9.1-.8-.3-.5-.6.6-.6 1.1-.1 1.7.2 1.3.5z"/><path d="M58.7 384.6c-.4.4-.7 1.4-.7 2.3 0 1.1.3 1.2 1.1.4.6-.6 1-1.6.7-2.3-.2-.6-.7-.8-1.1-.4zM24.8 322.7c.7.3 1.6.2 1.9-.1.4-.3-.2-.6-1.3-.5-1.1 0-1.4.3-.6.6zM285.6 327.7c-1.1 1.1-.6 2.3.9 2.3.8 0 1.5-.4 1.5-.9 0-1.3-1.6-2.2-2.4-1.4zM61.5 333c.3.5 1.1 1 1.6 1 .6 0 .7-.5.4-1-.3-.6-1.1-1-1.6-1-.6 0-.7.4-.4 1zM65.2 334c0 1.4.2 1.9.5 1.2.2-.6.2-1.8 0-2.5-.3-.6-.5-.1-.5 1.3zM442 340.6c0 2.7-.3 7.3-.6 10.1-.4 3.1-.3 5.3.2 5.3 1.1 0 1.2-.5 1.4-11.3.1-4.4-.1-8.1-.4-8.5-.3-.3-.6 1.7-.6 4.4zM60.8 339.7c.7.3 1.6.2 1.9-.1.4-.3-.2-.6-1.3-.5-1.1 0-1.4.3-.6.6zM82.3 397c0 3 .2 4.3.4 2.7.2-1.5.2-3.9 0-5.5-.2-1.5-.4-.2-.4 2.8zM98 406c0 .5.7 1 1.6 1 .8 0 1.2-.5.9-1-.3-.6-1-1-1.6-1-.5 0-.9.4-.9 1zM371 418.7c-.3 2.9-.1 4.8.3 4.4.5-.5.7-2.8.5-5.2l-.3-4.4-.5 5.2zM268.4 420.9c.4.5.1 1.1-.5 1.3-.9.3-.9 1 0 2.7.7 1.2 1.8 2 2.4 1.8 1.7-.5 2.1-3.5.7-5.2-1.3-1.6-3.5-2.1-2.6-.6zM301.3 423.6c-3 3.4-2.9 5 .1 2.7 1.3-1 2.2-2 2-2.2-.2-.2.1-1 .7-1.8 2.1-2.5-.6-1.3-2.8 1.3zM277.3 424c-1.3.5-2.3 1.6-2.3 2.5 0 1.6 2 1.8 6 .5l2.5-.8-2.5-.9c-2.1-.7-1.7-.9 3-1.4l5.5-.6-5-.1c-2.7 0-6 .3-7.2.8zM291.2 427.7c-.6.2-1 .9-.6 1.4.8 1.4 2.1 1.1 2.8-.6.6-1.5.1-1.7-2.2-.8zM263.5 431.5c-1.9 2-3.5 4.5-3.5 5.7 0 1.7.2 1.8 1.5.8.8-.7 1.5-1.9 1.5-2.7 0-.8.5-1.1 1.1-.7.7.4 1 .1.7-.6-.4-1.4 2-4.4 4.3-5.3 1-.4.9-.6-.3-.6-1-.1-3.3 1.5-5.3 3.4zM299.6 434.2c-.3 1.3-.6 3.3-.6 4.6 0 3.6 2.4 2.1 2.8-1.8.4-4-1.3-6.2-2.2-2.8zM276 436.2c0 1.9.2 2 1 .8 1.3-1.9 1.3-3 0-3-.5 0-1 1-1 2.2zM271 437c-.8.5-1.1 1.2-.7 1.6.4.4 1.3.2 1.9-.4 1.5-1.5.7-2.4-1.2-1.2zM286.7 448c.3 1.1.7 2 .9 2 .2 0 .4-.9.4-2s-.4-2-.9-2-.7.9-.4 2zM291 447.4c0 .7.7 1.9 1.5 2.6 1.2 1 1.5.9 1.5-.8 0-1.1-.7-2.2-1.5-2.6-.9-.3-1.5 0-1.5.8zM297 450c0 .5.5 1 1.1 1 .5 0 .7-.5.4-1-.3-.6-.8-1-1.1-1-.2 0-.4.4-.4 1zM264.2 453.2c-1.9 1.9-1.5 2.7 2.1 4.1 4.4 1.9 9.9 2.9 9.2 1.7-.3-.5-2.1-1.2-4-1.6-4.4-.8-5.5-2.4-1.8-2.5 2.3-.2 2.4-.2.6-.6-1.3-.2-2.3-.9-2.3-1.4 0-1.3-2.4-1.1-3.8.3zM251 466.5c0 .9.5 1.5 1.1 1.3.6-.2 1.1-.8 1.1-1.3s-.5-1.1-1.1-1.3c-.6-.2-1.1.4-1.1 1.3zM278.8 473.7c.7.3 1.6.2 1.9-.1.4-.3-.2-.6-1.3-.5-1.1 0-1.4.3-.6.6zM282 475c0 1.3.7 2 2 2s2-.7 2-2-.7-2-2-2-2 .7-2 2zM275 474.9c0 .5-1.2 1.2-2.7 1.4-2.3.3-2.1.4 1 .6 2.7.1 3.7-.3 3.7-1.4 0-.8-.4-1.5-1-1.5-.5 0-1 .4-1 .9zM333 602.5c0 .8.7 1.5 1.6 1.5 1.4 0 1.4-.3.4-1.5-.7-.8-1.4-1.5-1.6-1.5-.2 0-.4.7-.4 1.5zM348.5 608c-.8 1.3.5 1.3 2.5 0 1.3-.8 1.3-1-.2-1-.9 0-2 .4-2.3 1zM335 610.8c0 1.3.4 2 1 1.7.6-.3 1 .1 1 .9 0 .9.5 1.6 1.1 1.6.5 0 .9-.8.8-1.8-.3-3 .1-4.3 1-3.7.5.3 1.2.1 1.5-.4.3-.5-1-.9-2.9-.8-3 .1-3.5.4-3.5 2.5zM341 612c0 .5.4 1 .9 1 .6 0 1.3-.5 1.6-1 .3-.6-.1-1-.9-1-.9 0-1.6.4-1.6 1zM326 614c-1.3.8-1.2 1 .3 1 .9 0 1.7-.5 1.7-1 0-1.2-.1-1.2-2 0zM325.8 616.7c.7.3 1.6.2 1.9-.1.4-.3-.2-.6-1.3-.5-1.1 0-1.4.3-.6.6zM104 703.1c-1.3.9-1.2 1 .2.5 1-.3 2-.1 2.3.4.4.6 1.2 1 1.8.9.9 0 .8-.2-.1-.6-.6-.2-1-.9-.6-1.4.7-1.2-1.8-1.1-3.6.2zM128.1 703.4c1.2 1 5.9 1.5 5.9.6 0-.5-1.4-1-3.2-1-1.7 0-2.9.2-2.7.4zM144.8 704.7c.7.3 1.6.2 1.9-.1.4-.3-.2-.6-1.3-.5-1.1 0-1.4.3-.6.6zM111.3 706.2c1.7 1.1 6.7 1 6.7-.1 0-.5-1.8-.8-3.9-.7-2.2 0-3.4.4-2.8.8zM149.8 705.7c.7.3 1.6.2 1.9-.1.4-.3-.2-.6-1.3-.5-1.1 0-1.4.3-.6.6zM154 706c0 .5.7 1 1.6 1 .8 0 1.2-.5.9-1-.3-.6-1-1-1.6-1-.5 0-.9.4-.9 1zM141 707c0 .5.5 1 1 1 .6 0 1-.5 1-1 0-.6-.4-1-1-1-.5 0-1 .4-1 1zM145 707c0 .5.5 1 1 1 .6 0 1-.5 1-1 0-.6-.4-1-1-1-.5 0-1 .4-1 1zM161.6 707.1c.3.5 1.4.9 2.5.9 1 0 1.9-.4 1.9-.9s-1.1-.9-2.5-.9c-1.3 0-2.2.4-1.9.9zM168.5 707c.3.5 1.4 1 2.3 1 1.5 0 1.5-.2.2-1-2-1.3-3.3-1.3-2.5 0zM175.5 707l-3 .8 2.7.1c3 .1 7.8 2 7.8 3.1 0 .4.6.7 1.3.8.6 0 2.1.2 3.2.5 1.1.2 1.4.2.8 0-2-.7-1.5-2.3.5-2.3 1 0 1.9-.7 1.9-1.5 0-1.1-1.2-1.5-4.8-1.5-2.6 0-5.3-.2-6.1-.4-.7-.2-2.6 0-4.3.4zM131.5 708c-.3.5-.1 1 .4 1 .6 0 1.1-.5 1.1-1 0-.6-.2-1-.4-1-.3 0-.8.4-1.1 1zM192 708c0 1.3 3 1.3 5 0 1.1-.7.7-1-1.7-1-1.8 0-3.3.4-3.3 1zM207 708.7c0 .5.5 1.5 1 2.3.8 1.3 1 1.3 1-.2 0-.9 1-1.9 2.3-2.1 1.6-.3 1.3-.5-1-.6-1.8 0-3.3.2-3.3.6zM170.8 709.7c.7.3 1.6.2 1.9-.1.4-.3-.2-.6-1.3-.5-1.1 0-1.4.3-.6.6zM214.5 710c-.4.6 1.1 1 3.7.9 3.3 0 3.8-.2 2.3-.9-2.8-1.2-5.3-1.2-6 0zM127 711c.8.5 2.6 1 3.9 1 3.2 0 2.4-.6-1.9-1.4-2.5-.4-3.1-.3-2 .4zM192 713.5c0 .8.4 1.5.9 1.5s1.1-.7 1.5-1.5c.3-.9 0-1.5-.9-1.5-.8 0-1.5.7-1.5 1.5zM168 713.8c0 .4.9 1.3 2 2s2 .9 2 .4c0-.4-.9-1.3-2-2s-2-.9-2-.4zM161.2 716.5c0 1.6.2 2.2.5 1.2.2-.9.2-2.3 0-3-.3-.6-.5.1-.5 1.8zM199.5 715.3c-1.7 1.3-1.3 4.3.5 3.2.5-.3 1.1-.1 1.5.5.9 1.5 6.1 1.2 7.5-.5 1.1-1.3.8-1.4-2-1.1-2.5.3-3.4-.1-3.7-1.5-.6-2.3-1.3-2.4-3.8-.6zM146.2 717c.9.6 3.8 1.2 6.5 1.5 5.5.6 2.6-.7-4.2-1.9-2.9-.5-3.6-.4-2.3.4zM166.5 723c-.3.5-.1 1 .4 1 .6 0 1.1-.5 1.1-1 0-.6-.2-1-.4-1-.3 0-.8.4-1.1 1zM200 724.1c0 .5.5.7 1 .4.6-.3 1-.8 1-1.1 0-.2-.4-.4-1-.4-.5 0-1 .5-1 1.1zM208.8 723.7c.7.3 1.6.2 1.9-.1.4-.3-.2-.6-1.3-.5-1.1 0-1.4.3-.6.6zM173.5 725.4c2.2.7 5.6 1.7 7.5 2.1 3.2.6 3.4.6 1.5-.8-1.1-.8-4.5-1.7-7.5-2l-5.5-.6 4 1.3zM196 726.5c0 1.4.5 2.5 1 2.5.6 0 1-1.1 1-2.5s-.4-2.5-1-2.5c-.5 0-1 1.1-1 2.5zM207.5 727c-.3.5.3 1 1.4 1 1.2 0 2.1-.5 2.1-1 0-.6-.6-1-1.4-1-.8 0-1.8.4-2.1 1zM225.8 732.9l-.3 4.9h3.2c1.8 0 3-.4 2.7-.9-.3-.5-1.2-.9-2-.9-1 0-1.4-1.2-1.4-4 0-5.7-1.7-5-2.2.9zM207.4 731c0 1.1.6 2 1.3 2 1.1 0 1.1-.5.3-2-.6-1.1-1.2-2-1.3-2-.2 0-.3.9-.3 2zM218 734.4c0 2.4.2 2.6 2.1 1.6 1.1-.7 1.9-1.3 1.7-1.4-.1-.1-1.1-.8-2-1.5-1.6-1.2-1.8-1.1-1.8 1.3zM154.3 742.7c.9.2 2.5.2 3.5 0 .9-.3.1-.5-1.8-.5-1.9 0-2.7.2-1.7.5zM186.8 749.7c.7.3 1.6.2 1.9-.1.4-.3-.2-.6-1.3-.5-1.1 0-1.4.3-.6.6zM177.5 751c-.7 1.2.2 1.2 3 0 1.9-.8 1.9-.9-.2-.9-1.2-.1-2.5.3-2.8.9zM168 753l-2.5.8 2.5.1c1.4 0 3.2-.4 4-.9 1.3-.9 1.3-1 0-.9-.8.1-2.6.5-4 .9zM22.8 756.7c.7.3 1.6.2 1.9-.1.4-.3-.2-.6-1.3-.5-1.1 0-1.4.3-.6.6zM90 759c-.8.5-1 1-.5 1 .6 0 1.7-.5 2.5-1s1.1-1 .5-1c-.5 0-1.7.5-2.5 1zM192.8 758.7c.7.3 1.6.2 1.9-.1.4-.3-.2-.6-1.3-.5-1.1 0-1.4.3-.6.6zM4.5 760c-1.3.5-1.4.9-.5.9.8 0 2.4-.4 3.5-.9 1.3-.5 1.4-.9.5-.9-.8 0-2.4.4-3.5.9zM53 760c0 .5.7.7 1.5.4.8-.4 1.5-.8 1.5-1 0-.2-.7-.4-1.5-.4s-1.5.4-1.5 1zM225.4 761.9c.5.8 5.6.3 5.6-.5 0-.2-1.4-.4-3.1-.4-1.6 0-2.8.4-2.5.9zM161.8 763.2c.9.9 1.5.9 2.4 0 .9-.9.7-1.2-1.2-1.2s-2.1.3-1.2 1.2zM172 764c0 1.3 1.1 1.3 3 0 1.2-.8 1.1-1-.7-1-1.3 0-2.3.4-2.3 1zM215 764.5c-3 .9-3.7 1.3-2 1.3 1.4 0 4.1-.6 6-1.3 4.4-1.7 1.9-1.7-4 0zM157.8 764.7c.7.3 1.6.2 1.9-.1.4-.3-.2-.6-1.3-.5-1.1 0-1.4.3-.6.6zM158 767.5c-4.2 1.2-4.3 1.3-1.4 1.4 1.8.1 4.7-.6 6.5-1.4 4.3-1.8 1.2-1.8-5.1 0zM4.3 767.7c.9.2 2.3.2 3 0 .6-.3-.1-.5-1.8-.5-1.6 0-2.2.2-1.2.5zM20.5 768c-1.3.6-1.5.9-.5.9.8 0 2.2-.4 3-.9 1.8-1.2.2-1.2-2.5 0zM145.8 768.7c.7.3 1.6.2 1.9-.1.4-.3-.2-.6-1.3-.5-1.1 0-1.4.3-.6.6z"/></svg>