<svg version="1.0" xmlns="http://www.w3.org/2000/svg" width="1502.667" height="1957.333" viewBox="0 0 1127 1468"><path d="M0 233v233h2.8c1.6 0 3.4-.8 4.2-2 .8-1.1 2.6-2 4.1-2 1.5 0 3-.6 3.2-1.3.4-.8.8-.8 1.4-.2.4.5 2.4 1.1 4.3 1.2 1.9.2 3.6.7 3.8 1.3.5 1.5 7.1 1.2 8.8-.4.8-.8 1.4-3.1 1.4-5 0-2.4.5-3.6 1.4-3.6 1.6 0 2.6 2.1 2.6 5.6 0 2.2.4 2.4 4.6 2.4 4 0 5-.5 8.4-4 4-4.2 7.4-5.1 8.4-2.4.8 2.2 2.6.7 2.6-2.2 0-2.3-.2-2.4-4-1.8-3.6.6-4 .5-4-1.5 0-1.1.5-2.1 1-2.1.6 0 1 .4 1 1 0 .5.9 1 2 1s2-.5 2-1c0-.6.9-1 2-1 1.3 0 2-.7 2-2s.7-2 1.9-2c1.1 0 2.1-.5 2.3-1.2.3-.7 2.5-1.2 5.8-1.2s5.5.5 5.8 1.2c.2.7 1.9 1.2 3.7 1.2 3.1 0 3.4.3 4 4 .4 2.2 1.1 4 1.6 4s.9-.5.9-1c0-.6.9-1 1.9-1 1.1 0 2.2-.6 2.5-1.3.5-1 .7-1 1.2 0 .3.7 1.4 1.3 2.5 1.3 1 0 1.9.4 1.9 1 0 .5.9 1 1.9 1 1.6 0 2 .8 2.3 4.2.3 4.9 2.4 6 5.3 3.1 1.3-1.3 2-1.4 2.3-.5.4 1.4 4.2 1.6 4.2.2 0-.6 1.3-1 2.9-1 2.1 0 3.2.6 3.6 2 .4 1.3 1.5 2 3.1 2 1.3 0 2.4.4 2.4 1 0 .5.9 1 2 1s2-.5 2-1c0-.6.9-1 2-1s2 .4 2 1c0 1.8 3.5 1.1 5-1 .8-1.1 2.2-2 3.2-2 1.4 0 1.8-.8 1.8-4v-4h7c4 0 7 .4 7 1 0 .5.9 1 2 1s2-.5 2-1c0-1.6 4-1.1 4.7.6.9 2.5-1.4 4.1-3.7 2.6-2.9-1.8-3.8 1-1.7 5.1 1.4 2.9 1.6 3 1.6.8.1-1.8.5-2.2 1.9-1.6.9.4 6.3 1 11.9 1.3 8.4.4 10.5.2 11.7-1.1 2.1-2 2-3-.3-4.6-1.7-1.3-1.8-1.6-.4-2.9 1.2-1.2 1.6-1.3 2.3-.2.4.7 1.5 1 2.4.7 1-.4 2 .1 2.7 1.4 2 3.8 2.2 1 .3-3.8-1.2-3.1-1.8-7-1.7-11.1.2-6.1.1-6.2-2.5-6.2-3.2 0-6.4-1.9-4.5-2.6 2.9-1.2 9.3-6.5 9.3-7.8 0-.8 1.5-1.7 3.5-2 2.4-.5 5-2.3 8.5-6 2.8-3 6.5-6 8.1-6.7 2.5-1 3-1.7 2.6-3.7-.4-2.3-.3-2.4 3.4-1.9 2.9.4 4.2 0 5.5-1.4.9-1 2.3-1.9 2.9-1.9.7 0 1.8-.6 2.4-1.4.9-1.1.8-1.5-.6-2-1-.4-1.9-.2-2.1.3-.2.6-1.5 1.1-2.8 1.1-1.3 0-2.9.9-3.6 2-1.4 2.2-4.8 2.6-6.6.8-1.9-1.9-1.4-5.9.9-7.9l2.1-1.8-2.6-.6c-8.9-1.8-8.5-1.5-4.1-3.1 6.7-2.3 12.5-1.3 12.5 2.3 0 1.2.6 1.4 3.2.8 1.8-.4 4.9-1 6.8-1.4 2.9-.5 3.6-1.1 3.8-3.4.2-1.7-.2-2.9-1.2-3.3-1.1-.4-1.3-1.4-.9-3.5s0-3.6-1.2-4.9c-1.3-1.4-1.4-2-.5-2 .7 0 1-.3.6-.8-.4-.4-2.4-.7-4.4-.7-3.1 0-3.7-.3-3.5-2 .5-3.8-.8-8.5-2.2-8.5-.8 0-1.5.4-1.5 1 0 .5-.7 1-1.5 1s-2.1 1.3-3 3c-1.9 3.6-2.2 3.6-5.8.5-2.7-2.4-2.8-2.8-2.2-9.2.3-3.7.8-7.7 1.1-9 .5-1.9.2-2.3-1.5-2.3-1.2 0-2.1-.6-2.1-1.5 0-1.7 6.5-8.2 10.2-10.1 1.4-.7 3.7-2.8 5-4.6 1.2-1.8 3.6-4.4 5.2-5.8 5-4.2 7.6-7.4 7.6-9.2 0-1.1.8-1.8 2-1.8 1.5 0 2.2-1.1 3.1-4.5 1-4 1.4-4.5 4-4.5 3.1 0 4.1-2 1.2-2.1-1.5 0-1.5-.2.2-.9 1.1-.5 1.4-.9.8-.9-.7-.1-1.3-.8-1.3-1.6 0-1.2 1.7-1.5 9-1.5 7.7 0 9-.2 9-1.6 0-.9-.7-2.2-1.6-2.9-2.1-1.5-3.5-10-2-11.9.6-.7 3.2-2.8 5.9-4.5 2.6-1.8 4.7-3.6 4.7-4.1 0-.6 1-2 2.1-3.1 1.7-1.7 1.9-2.3.8-3.1-.8-.5-2.9-.7-4.6-.4-5.2.8-4-3.8 1.3-5.3 1.7-.4 3.5-1.9 4.4-3.7.8-1.6 1.9-3.2 2.3-3.5.5-.3 0-1.4-.9-2.4-1.8-1.7-1.6-1.8 5.4-1.3 6.9.5 7.2.4 7.2-1.6 0-1.2.5-2.7 1.2-3.4 1.7-1.7-1.9-2.8-4.3-1.4-1 .7-3.3 1.2-5.1 1.2-5.2 0-7.8 1.1-7.8 3.1 0 1.4-.7 1.9-2.8 1.9-1.5 0-3.7.6-4.8 1.4-2.1 1.5-5 2-9.2 1.8-4.3-.3-1.7-2.6 4.9-4.1 7.6-1.9 9.4-2.9 10.1-5.7.5-2 .2-2.1-9.2-1.9-9.3.2-9.7.2-11.1-2.3-.8-1.3-3-3-4.9-3.6-2-.6-4-2.2-4.7-3.6-1.2-2.4-1-2.6 2.5-4.3 2-.9 5.1-2.6 6.7-3.6 1.7-1.1 3.8-2 4.9-2 1-.1 3.6-1.1 5.8-2.3 3.2-1.8 3.8-2.6 3.3-4.5-.8-3.4 2.5-9 5.7-9.5 2.3-.4 2.9 0 3.8 2.6.6 1.7 2.4 3.9 4.1 4.9 2.8 1.5 3.4 1.6 6.2.3 1.8-.8 4.3-1.6 5.6-1.8 2.1-.3 2.4-.9 2.7-5.3.3-2.8 1-6.3 1.6-7.9 1-2.4.9-3.1-.5-4.1-1.5-1.1-1.5-1.3.1-2.8 1.5-1.6 1.4-1.7-1.9-1.7-1.9 0-3.9.4-4.5.8-.5.5-2.5 1.5-4.4 2.2-3.5 1.4-8.6 4.8-12.5 8.3-1.1 1-3.2 2.6-4.7 3.5-1.5.8-2.9 2.4-3.2 3.5-.2 1-.9 1.6-1.4 1.3-.6-.3-1.3 0-1.6.6-.6 1.2-.2-2.7.6-6.3.2-.8 2.6-3.7 5.3-6.4 3.8-3.8 6.6-5.5 11.7-7.3 3.7-1.2 8-2.2 9.6-2.2 1.6 0 3.5-.6 4.1-1.4.7-.8 2.4-1.5 3.9-1.4 4.2 0 20.3-5.7 22.8-8.1 1.2-1.1 3.2-2.1 4.5-2.2l2.4-.1-2.5-.7c-2-.6-2.5-1.3-2.3-3.7.2-3.1 5.4-8.4 8.3-8.4.9 0 2-.4 2.5-.9.6-.5 2.1-1.1 3.4-1.3 3.1-.4 5-3.3 3.4-4.9-1-1-1.8-1-3.8-.1-3.5 1.6-4.9.6-2.5-1.8 1.2-1.2 3.7-2.1 7-2.3 2.8-.2 5.8-1.2 6.8-2.1 1-.9 2.5-1.6 3.3-1.6.8-.1 3.1-2.3 5.2-5 3.5-4.6 3.6-5 1.9-5.9-1.1-.6-2.2-.7-2.6-.4-.3.3-.6 0-.6-.8s3.2-4.4 7-7.9c3.9-3.6 9.2-8.5 11.8-11 5.1-4.9 11.2-10 11.8-10 .2 0 1.4-1.1 2.8-2.5s3.3-2.5 4.2-2.5c1 0 4.7-1.6 8.3-3.6 3.6-2 8-3.8 9.6-4 1.7-.2 6.3-1.1 10.4-2 7.6-1.7 11.1-1.8 26.9-1.1 7.8.4 9.6.8 11.6 2.6 1.2 1.1 2.9 2.1 3.7 2.1.8 0 2.4.6 3.5 1.4 1.1.8 3.1 1.6 4.4 1.8 1.3.1 3 1.3 3.6 2.6.6 1.3 2.1 3 3.2 3.8 1.7 1.2 2.1 1.2 3.2-.1.6-.7 1.8-1.1 2.5-.9.8.3 1.9.2 2.6-.2.7-.4 2.5-.8 4-.9 2.5-.2 2.6-.1 1.6 1.7-1.5 2.3.3 3.8 4.6 3.8 2.1 0 3.2-.8 4.5-3 1.4-2.5 2.3-3 5.7-3l4 .1-2.4 1.9c-1.3 1.1-2.9 2-3.7 2-.8 0-1.4.9-1.4 1.9 0 1-.8 2.2-1.7 2.5-1.2.5-1.3 1-.5 1.8s1.6.8 2.8-.3c1.5-1.2 1.9-1.1 3.2.9 1 1.6 2.4 2.2 4.9 2.2 2 0 3.2-.4 2.8-1-.9-1.5 1.9-2.2 5.4-1.3 2.9.8 3 .9 1.8 3.3-.7 1.4-1.1 3.3-.9 4.2.4 1.9 4.4 3.4 6.2 2.3.6-.4 1.7-.2 2.4.4 1.4 1.2 4.6.5 4.6-.9 0-.4.9-1 2-1.3 2-.5 3.4-3 4.4-8 .7-3.1 2.1-3.4 4.8-1 1.8 1.6 2 1.6 4-.4l2.1-2.1 5.5 2.4c3 1.3 6.4 2.4 7.6 2.4 1.1 0 3.2.9 4.6 2 3.5 2.7 4 2.5 3.3-1.5-.3-2.1-.1-4.1.7-5 1.1-1.4 1.7-1 4.1 2.7 1.6 2.4 2.9 4.8 2.9 5.3 0 .6 1.4 2.8 3.1 4.8 3 3.7 3.4 3.8 7.8 3.2 3.3-.4 5.2-.2 6.6.9 2 1.4 2 1.5-.3 4.5-2.8 3.8-2.8 4.9 0 5.3 1.3.2 2.9 1.5 3.6 3.1.7 1.5 3.1 3.6 5.3 4.7 2.7 1.5 3.9 2.7 3.9 4.2v2.2l1.6-2.2c1.5-2.2 4.4-2.9 5.8-1.5.4.4 4 .6 8.1.4 5.7-.2 8.4.2 11.9 1.8 2.5 1.1 4.6 2.6 4.6 3.5 0 .8 1.5 2.6 3.3 4.1 1.7 1.4 4.3 3.7 5.7 5 1.4 1.3 4 2.5 6 2.7 2.7.2 3.4.7 3.2 2-.4 2.6 3.8 2.4 4.5-.2.3-1.1.9-2 1.4-2 .5 0 .9-.7.9-1.5 0-.9.7-3.2 1.6-5.3 1.4-3.3 1.7-3.5 2.4-1.7.4 1.1.6 2.3.3 2.7-.2.5.6.8 1.8.8 1.8 0 1.9.3.9 1.5-2.6 3.2 3.3 5 6.4 1.9.9-.8 2.1-1.2 2.8-.8.7.4 2.5.7 4.1.6 3.9-.3 3.1 2-1.1 3-4.6 1.2-4.4 4.4.3 5.7 3 .8 4.2.6 7.6-1.4 3.7-2.1 3.9-2.4 2.3-3.4-1.8-1-1.8-1.1.3-1.7 1.3-.3 2.3-1 2.3-1.5 0-1.2 6.7-1.2 7.5 0 .9 1.5 7.9 0 9.3-2.1.7-1 1.8-1.5 2.4-1.2.5.4 2 .1 3.3-.6 1.3-.7 3.1-1 4.1-.6 1.6.6 1.6.8-.1 2.6-1 1.1-2.1 1.7-2.6 1.5-1-.7-2.2 3.2-1.4 4.5.3.5 1.8 1 3.1 1 4.1 0 8 4.7 8.8 10.8.4 3.3 1.4 5.9 2.7 7.1 2.7 2.5 3.7 9.2 1.6 11.2-1.3 1.3-1 1.8 2.5 3.8l4 2.3-2 2.1c-2 1.9-2.2 1.9-4.6.4-2.2-1.5-2.6-1.5-4-.1-2.6 2.6-1.8 4.3 3.2 6.8 2.8 1.4 3.9 1.5 7 .5 2-.6 4.4-1.7 5.2-2.4 1.6-1.3 8-.9 8 .6 0 1.4-2 2.1-6.5 2.3-5 .2-5.8.7-4.9 3 .4 1 1.8 1.6 3.9 1.6 1.9 0 3.7.4 4 1 1 1.6 2.5 1.2 2.5-.6 0-1.1.5-1.4 1.6-1 .9.3 2 .6 2.5.6 1.2 0 1.2 4.7-.1 5.5-1.5 1-1.2 3.6.8 5.8 1.2 1.3 1.7 3.6 1.7 7.3 0 3 .3 5.4.8 5.4h1.7c.6 0 1-1 1-2.3 0-2 .1-1.9 1.5.7 1 1.8 1.3 4.1.9 6.1-.4 2.4-.2 3.4 1 3.8 1.1.4 1.6 1.9 1.6 4.5 0 2.5.7 4.5 1.8 5.5 2.4 2.2 8.6 4.7 11.5 4.7 1.3 0 3.2.8 4.3 1.8 2.2 2 6.4 3.8 11.4 4.8 5.3 1 9.1 3.5 8.8 5.9-.2 1.4-.9 1.9-2.3 1.6-1.1-.2-3.7-.4-5.8-.5-2.4-.1-4.4-.8-5.2-1.9-1.6-2.3-2.6-2.1-5.4.8-2.9 3.1-2.3 4.9 2.6 7.4 3.7 1.9 14.3 12.2 14.3 13.9 0 .5 1.7 3.5 3.8 6.8 2.1 3.2 5.6 9.6 7.7 14.2 2.9 6.2 5.2 9.6 9.2 13.2 3.5 3.2 5.3 5.6 5.3 7.2 0 1.5 1.9 4.3 5.1 7.6 5 5 5.1 5.2 2.5 5.2-1.9 0-2.9-.7-3.6-2.6-.6-1.4-1.5-2.4-2.2-2.2-2.2.8-1.8 2.3 1.5 5.8 3.6 4 6.2 12.2 5.2 16.3-.4 1.4-.1 3.5.5 4.7 1.1 2.1 1.2 2.1 3.1.4 1.7-1.6 2.2-1.6 2.9-.4.6 1 .4 1.7-.6 2.3-2.4 1.4.3 6.9 3.6 7.2 2.3.2 7.9 8.9 6.6 10.2-.2.2-1.8-.3-3.4-1.1-3-1.6-3.1-1.6-3.7 1.4-.5 2.2 0 4 2.2 7.5 7.4 12.1 9.1 15.5 8.1 16.1-.5.4-3-1.4-5.5-4-2.6-2.5-5-4.6-5.4-4.6-.5 0-1.3.9-1.9 2.1-.9 1.6-.8 2.4.4 3.8 1 1.1 1.3 2.6.9 4.1-.6 2.2-.4 2.3.9 1.2 1.3-1 1.8-.8 3.1 1.2 1.3 1.9 2.8 2.5 8.1 3.1 6.9.7 8.5 1.7 6.6 3.9-.7.9-2.4 1.2-4.8.9-3-.4-3.9-.1-5 1.6-1 1.8-.9 2.4.5 3.9 1 1 3.2 3.5 5 5.5 2.2 2.6 4 3.7 6 3.7 1.5 0 3.4.4 4.2.9 2.3 1.5 5 .1 5.3-2.7.2-1.7 1-2.8 2.2-3 1.1-.2 1.6 0 1.2.6-.3.6-.1 1.4.5 1.8.8.5 1 0 .6-1.8-.8-2.9-.1-3.9 1.9-3.1 2.3.9 1.6 2.8-2.5 7.3-3.4 3.8-3.8 4.6-3 7.3 1.1 3.9 3.6 7.7 5.2 7.7.6 0 2.4 1.5 3.9 3.4 1.7 2.1 3.9 3.6 6.1 4 3.2.6 7.7 4.5 7.7 6.6 0 .5 1.3 2.4 3 4.3 1.6 1.8 4.6 6.9 6.6 11.3 2 4.3 4.9 9.8 6.5 12.2 2 2.9 2.9 5.6 2.9 8.3 0 8.7-4.1 3-8.5-11.9-2.5-8.5-12.2-19.2-21-23.3-3.3-1.6-9-4.6-12.7-6.8-3.6-2.1-7.7-4.2-9-4.6-1.3-.4-4.3-1.8-6.8-3.1l-4.5-2.4-.3 3.2c-.2 2.1.2 3.6 1.3 4.4 1.1.8 1.5 2 1.1 3.2-.4 1.1 0 2.4.9 3.2 4.1 3.4.1 11.7-5 10.4-2.7-.7-3-.3-1.6 2.4 2 3.6 2.5 5.9 2.7 11.7.1 3.3.7 8.9 1.3 12.5.6 3.6 1.1 10.1 1.1 14.5s.3 10.1.8 12.7c.9 4.6.9 4.6-1.3 3.6-1.3-.6-3.1-2.7-4-4.8-1.8-4.1-6.1-6.6-5-2.9.9 2.9-1 2.3-4-1.2-2.9-3.5-4.4-3.2-2.7.6.7 1.5.9 4.9.5 8.8-.3 4-.1 7.1.6 8.5.9 1.8.9 2.1-.3 1.6-1.1-.4-1.3 0-.9 1.5.4 1.7 1.1 2 3.2 1.5 2-.5 2.3-.4 1.5.5-.8.9-.6 2.6.6 6.4 2.7 8.3 3.1 11.4 1.6 12.6-1.4 1.2-3-.3-7.9-7.3-2-2.8-4.7-3.5-4.7-1.1 0 1.4 6.6 15.8 8.3 18 .4.5 1.8 2.3 3.1 3.8 2.1 2.6 2.2 3.1 1 7.5-1.3 5.3 0 9 3 8.4 1.2-.2 1.6.4 1.6 2.5-.1 4.7 2.3 20.3 3.3 22.1.5.6.4 1.2-.1 1.2-1.4 0-6.2-5.1-5.7-6 .2-.4-1.2-1.6-3.3-2.6-2-1-3.9-2.2-4-2.7-.7-1.5-2.2.5-2.2 2.9 0 1.5-.6 2.4-1.5 2.4-.8 0-1.5-.9-1.5-2 0-2.1-3.5-4.1-5.7-3.3-.7.3-1.3 0-1.3-.7 0-.6.5-.8 1.1-.4.8.4.9-.9.5-4.7-.8-7.8-.7-7.7-3.2-10l-2.3-2.2-.5 2.4c-1.4 6.7-1.4 13.8-.1 14.9.9.7 1.5 3.6 1.7 7.3.3 5.5.6 6.2 2.4 6.5 2.7.4 3.1 2.1 2.5 10.2l-.6 6.5h-5.2c-6.1-.1-6.5.7-3.4 7.1 1.1 2.1 1.7 4.3 1.3 4.8-.8 1.4-4.2-3.3-4.2-5.9 0-1.2-.7-2.8-1.5-3.5-.8-.7-1.5-1.8-1.5-2.5 0-2.3-2.4-2.2-3.7.1-.9 1.9-.8 3.1.9 6.6 1.1 2.4 2.6 5 3.3 5.8.8.8 2 3.5 2.8 5.9 1.9 5.3.7 9.1-3 9.1-2.7 0-3 2-.7 5.5 1.2 1.9 1.3 2.8.4 4.6-.9 1.7-1.4 1.9-2 .8-.5-.7-.6-1.7-.4-2.1.3-.4-.2-.8-1-.8-.9 0-1.6-.5-1.6-1.1 0-.6-2.3-3.2-5-5.9-2.8-2.7-5-5.3-5-5.9 0-1.4 2.3-1.4 3.7 0 1.1 1.1 1.6 0 3.6-9 .3-1.2.1-3.3-.5-4.6-.7-1.6-.7-2.9 0-4.1.9-1.6.4-2.2-2.6-3.9-2-1.1-3.8-2.9-4-4-.2-1.1-.9-2.7-1.6-3.5-.7-.8-1.3-4.3-1.5-7.8l-.3-6.3 2.9.3c2.3.3 2.9-.1 3.1-2.2.2-1.4 1-2.9 1.8-3.3.8-.4 1.4-1.6 1.4-2.5 0-1.9 1.8-4.2 3.2-4.2.4 0 .8.6.8 1.4 0 2.1 2.1 3.1 3.1 1.5 1.3-2.1 1.1-6.3-.7-10.4-1.2-3-1.3-4.7-.4-8.7.8-3.9.7-5.4-.2-6.6-.7-.8-1.4-3.6-1.5-6.3-.2-5.4-1.7-8.9-3.8-8.9-1.9 0-4.5 6.2-4.5 10.7 0 2-.4 3.2-1 2.8-1.4-.9-1.3-8.2.2-10.8 1.7-3.1 1.9-14.3.3-17.3-.8-1.6-1.5-2.1-2-1.4-.4.7-1.8.9-3.5.5-2.4-.5-2.9-.3-3.2 1.7-.2 1.8-.9 2.3-3 2.1-2.6-.2-2.6-.1-1.3 3.1 1.9 4.4-.2 12.3-3.1 11.8-1.1-.2-3.1-.4-4.5-.3-2.2 0-2.8-.6-3.3-3.1-.3-1.7-.6-4.5-.6-6.2-.1-2.2-.3-2.7-.9-1.6-.5.8-.6 4.6-.2 8.5.6 5.1.4 7.3-.5 8.2-.7.7-1.5 1.3-1.7 1.3-.8 0-2.5-5.5-4.7-15.2-1.9-8.8-2.3-9.7-3.9-8.8-1 .5-2.1.6-2.5.3-.3-.3-.6.3-.6 1.4 0 1.2-.8 2.3-1.9 2.6-2.2.5-5.2 5.7-5.6 9.6-.2 1.4-.8 5.9-1.5 9.9-.6 4-1 8.7-.8 10.5l.3 3.2h5.9c5.9 0 8.7 1.7 4.6 2.8-1.6.4-2 1.3-2 4.4 0 3.2.5 4.1 3 5.5 4.6 2.6 3.9 6.9-1.4 8.2-2.2.5-2.6 1-1.7 1.9.6.6 1.1 2 1.1 3 0 1.8-.5 1.9-6.4 1.2-4.6-.4-6.6-.3-7.2.6-.4.7-1.1 5.7-1.6 11.3-.4 5.6-1.3 13.5-1.8 17.6-.6 4.1-1.3 10.3-1.6 13.7l-.6 6.1 3.8 1.1c2.2.6 5.6 1.1 7.7 1.1 3.8 0 4.3.5 2.8 2.8-.6 1-2.8 1.3-7.7 1.1-6.6-.2-6.9-.1-7.2 2.1-.2 1.3-1.2 3-2.2 3.9-1.6 1.4-2.8 6.1-5.6 21.6-.4 2.2-.8 4.4-1 5-.2.5-.8 3.8-1.4 7.2-.7 3.5-1.6 6.3-2.1 6.3s-.9 1.3-.9 2.9c0 1.7-.4 3.2-.9 3.5-.5.4-1.3 2.5-1.7 4.9-.4 2.3-.9 3.4-1.2 2.4-.2-.9-.8-1.7-1.3-1.7s-.9-.7-.9-1.5-.6-2.5-1.3-3.8c-.6-1.2-1.3-2.3-1.4-2.5-.4-.9-5.3 3.2-5.3 4.4 0 .8-.6 1.4-1.4 1.4-.9 0-1.6-1.7-2-4.8-1.4-9.9-1.4-9.9-4.6-9.4-2.5.4-3 .1-3-1.6 0-1.2-.4-2.3-.8-2.6-1.4-.8-.1-7 1.7-8.3 1.4-1.1 1.4-1.2-.1-1.3-1 0-1.8.4-1.8 1 0 .5-.4 1-1 1-.5 0-1-.6-1-1.4 0-.8-.9-2.1-2-2.9-1.1-.8-1.7-1.8-1.2-2.3.4-.5-.2-.1-1.4.9-1.1.9-2.6 1.7-3.4 1.7-.7 0-1.8.7-2.5 1.7-.8 1-1.9 1.4-3 1-1.4-.6-1.6-1.7-1.4-6 .1-2.8.1-6.3 0-7.7-.2-3.1-3.1-7.1-3.8-5.3-.9 2.5-2.2 1.2-3.7-4-2-6.7-8.8-14.2-12-13.2-1.2.4-3 .8-4.2.9-3.2.4-4.4 1.5-4.4 4.2 0 3.4-1.6 3-2.4-.7-1.1-5.5-.8-6.8 1.4-6.2 1.1.3 2 .1 2-.4 0-1.5-2.3-3.3-4.2-3.3-1.4 0-1.8-.8-1.8-3.5 0-2.8.4-3.5 1.9-3.5 1.1 0 2.2.6 2.4 1.2.2.7.3.1.1-1.5-.3-2.1.1-2.7 1.5-2.7 1.2 0 2.1-1 2.5-2.6.4-1.4 4-5.7 8.1-9.7 4.1-3.9 7.5-7.9 7.5-8.8 0-2.5-3.9-3.8-11.5-3.7-6.9.1-7.2 0-13.5-4.7-8.2-6-13-11.1-15.2-15.8-1-2-2.2-3.7-2.7-3.7-1.6 0-3.3-5.9-2.6-9.2 1.1-5.7.5-23.1-1-24.8-1-1.1-1.3-5.1-1.3-15.1l.1-13.5-4.2-8.5c-2.4-4.6-5-11.1-5.8-14.4-1.3-5-1.9-18.4-1.4-30 .2-6.3-.8-14.6-1.9-16-.7-.9-1.3-3-1.2-4.8 0-1.9-.7-3.9-1.9-5-1-1-1.9-2.2-1.9-2.6 0-1.2-9.5-6.1-11.8-6.1-1 0-3.1-1.4-4.7-3-1.6-1.7-3.5-3-4.2-3-.7 0-1.3-.6-1.3-1.4 0-.9-1.2-1.6-2.7-1.8-2.2-.2-3.4-1.4-5.6-5.6-1.7-3.1-3.9-5.7-5.3-6.2-1.3-.5-2.4-1.4-2.4-1.9s-1.7-2-3.7-3.2c-2.1-1.3-4.4-2.9-5.2-3.7-.9-.8-2.5-1.2-4.2-.8-1.8.3-3.2 0-4-1-2.1-2.5-5-3.7-10.3-4-21.3-1.3-22.4-1.5-25.4-4.2-1.6-1.5-3.2-3.7-3.6-4.9-.5-1.5-1.2-2-2.4-1.6-1.3.5-1.1 0 .6-1.9 2.2-2.4 6.1-3.5 19.2-5.5 1.9-.3 4.6-1.4 5.9-2.4 2.3-1.8 2.3-1.9.3-1.9-1.1 0-2.4-.5-2.7-1-.3-.6-1.9-1-3.5-1s-3.2-.5-3.5-1c-.3-.6-2.2-1-4.1-1-1.9 0-3.4-.5-3.4-1 0-2-3.9-.9-5.7 1.6-1.8 2.4-2.4 2.6-6.1 1.9-4.6-.7-4.7-1.3-1.9-7.9.9-2.1 1.7-4.9 1.7-6.3 0-2.2-.1-2.3-1.6-.9-2.2 2.2-4.1 2-4.8-.7-.7-2.6 1.9-5 4.5-4.2.9.3 2.2-.1 2.9-1 .7-.8 1.9-1.5 2.7-1.5 2.7 0 14.7-6.2 13.4-6.9-.7-.5-4.5-.6-8.5-.3-8.1.5-11.9-.7-10.9-3.6.3-.9.3-1.4-.2-1-1.2 1.1-3.5-1.1-3.5-3.3 0-1.4-.7-1.9-3-1.9-1.9 0-3.4-.7-4.2-2-.7-1.1-2.3-2-3.5-2-2.1 0-2.3-.5-2.3-5.5 0-3.2-.4-5.5-1.1-5.5-1.7 0-5.3 2.2-6.7 4.2-2.1 3-3.9 2.1-4.8-2.5-.9-4-1.1-4.2-4.5-4.3-4.9-.1-5.7-.8-7-6-.7-2.8-2.1-5.1-3.5-6.1-1.3-.8-2.4-2.2-2.4-2.9 0-.9-1.1-1.4-2.9-1.4-1.6 0-3.4-.6-4-1.4-.7-.8-2.7-1.8-4.4-2.2-1.8-.3-3.8-1.1-4.4-1.6-.9-.7-2.3-.6-4.3.2-2.2.9-3.8 1-5.7.2-1.6-.6-4.3-1.3-6-1.6-2.7-.4-3.3-.2-3.3 1.2-.1 3.5-3.4 7.9-5.7 7.7-1.6-.1-2.3.4-2.3 1.6 0 1-.4 2.1-1 2.4-1.9 1.2-1 2.5 3.6 5.8 2.6 1.8 4 3.3 3.2 3.6-2.1.6-5.8 4.3-5.8 5.8 0 .7-1.3 1.6-3 1.9-3.3.7-5.7 2.9-4.1 3.8.5.3 1.9.2 3.1-.2 1.2-.5 3.5-.6 5-.4 2.6.4 2.7.6 1.7 2.3-.6 1-1.7 1.9-2.4 1.9s-1.3.4-1.3 1c0 .5-1.2 1.6-2.7 2.5-2.8 1.5-2.7 1.5 2 .9 4.3-.6 4.7-.5 4.7 1.5 0 1.1-.4 2.1-.9 2.1-.6 0-2.1 1.1-3.5 2.4-4.3 3.9-2.8 11.8 1.8 10 2.4-.9 2.1 3.3-.4 4.6-2.6 1.4-2.6 3 0 3.7 2.3.6 2.7 2.3.5 2.3-2.1 0-5.5 4-5.5 6.6 0 1.2-.7 2.7-1.5 3.4-.8.7-1.5 2.5-1.5 4.1 0 2.3.5 2.8 2.6 3.1 4.9.6 5.1 3 1 9.2-2 3.1-4.2 5.6-4.7 5.6-.6 0-.8.4-.5.9.3.5-.1 1.4-.9 2.1-.8.7-1.5 2-1.5 2.9.1 1.4.2 1.4 1.4-.2.7-.9 1.7-1.7 2.1-1.7.5 0 1.9-1 3.2-2.2 2.8-2.6 4.3-1.6 1.8 1.2-1 1.1-1.3 2-.7 2 1.7 0 1.5 3-.3 5-.8.8-2.1 3.3-3 5.3-1.5 3.6-1.5 3.8.2 3.5 1.2-.2 1.7.2 1.5 1.2-.2.8 0 1.2.4.7.4-.4 1.5 0 2.5.9 1.7 1.5 1.9 1.5 3.4 0 2-2 2.5-2 2.5-.1 0 .8-.7 1.5-1.5 1.5-1 0-1.5 1-1.5 3 0 3.1-3.6 11-5.1 11-.4 0-1.6 1.2-2.4 2.7-1.7 2.9-1.4 1.7 1.3-5.4 1.9-5 1-6.5-2.1-3.5-1.8 1.9-2.2 3.4-2.2 9 0 3.7.6 8.1 1.4 9.9 1.1 2.8 1.5 3 2.7 1.8.8-.7 1.4-1.8 1.4-2.4 0-.6.3-1.1.8-1.1.4 0 1.5-1.4 2.4-3 .9-1.7 1.3-3 .8-3-.6 0-1-.5-1-1.1 0-.6.6-.9 1.3-.6.6.2 2 0 3-.5 1.1-.5 1.7-.5 1.7.2 0 .5-.4 1-1 1-.5 0-1 .6-1 1.3 0 .8-1.1 2.4-2.5 3.7-1.7 1.6-2.5 3.4-2.5 5.8 0 1.9-.5 5.1-1.1 7.2-.8 2.6-.8 5.1-.1 8.3.9 4.4.8 4.6-1 3.6-1.1-.6-1.6-1.5-1.1-2.2.4-.7 0-.7-1 .2-1.3 1-1.7 3-1.7 8.6 0 6.4-.3 7.7-2.5 10.3-1.4 1.7-2.5 3.7-2.5 4.5 0 .9-.5 1.9-1 2.2-.6.4-1 1.4-.9 2.3.4 4.8-2.4 5.2-3.6.4-.3-1.4-1.4-3.7-2.4-5.1-1-1.4-2.3-5.3-3-8.6-.7-3.3-2.1-7.7-3.2-9.7-1.2-2.3-1.7-4.7-1.3-6.2.3-1.3.1-2.7-.5-3-.6-.4-1.1-1.7-1.1-2.8 0-2.9-2.2-8.8-3.2-8.8-.5 0-.8-5.7-.7-12.6.1-7.7-.2-12.9-.9-13.6-.6-.6-.8-2.6-.5-4.6.5-2.6.2-3.8-1-4.7-1.5-1.1-1.4-1.5.8-4.5 3.1-4.2 3.4-10 .6-10-1 0-2.6 1.1-3.5 2.5-2.2 3.3-5.6 3.4-5.6.1 0-1.4.4-2.7.9-3 1.6-1 2.3-5.9.9-6.7-1.8-1.2-3-1.1-2.3.1.4.6-1.8 1-5.9 1-3.7 0-6.6-.4-6.6-1s.9-1 1.9-1c2.3 0 3.6-1.6 2.1-2.5-1.7-1-4.5.3-5.5 2.7-.6 1.4-1.7 2.2-2.8 2-2.2-.4-2.4 4-.2 5.8.8.7 1.5 2.1 1.5 3.2 0 2.5 2.9 6.8 4.6 6.8 1.7 0 1.8 1.6.3 2.6-.8.5-.8.9.1 1.4.9.6.7 1.1-.9 1.9-2.8 1.5-2.7 2.7.4 3.5 1.4.4 2.5 1.3 2.5 2 0 .8.6 1.6 1.3 1.9.6.2.9.7.6 1.1-.3.3-2.1-.1-3.9-1-2.4-1.3-4.7-1.5-9.3-1-7 .7-9.4 2.1-5.3 3.2 1.5.3 2.6 1.3 2.6 2.3 0 1.4-1 1.7-5.1 1.8-3.8.1-5.6.6-7.5 2.4-2.2 2.1-2.3 2.4-.8 4 1.7 1.9 1.3 2.2-5.6 3.4-3 .5-3.9.2-6.4-2.4-1.7-1.7-3.5-3.1-4.3-3.1-1.4 0-3.5 3.5-3.7 6.1-.1 1-1.1 2.9-2.4 4.4-2.1 2.4-2.2 3-1.1 5.6.7 1.8.9 4.8.6 7.4-.9 6.5.4 9.1 5 9.9 7.7 1.4 9 2.7 6 5.8-2.1 2.1-3.3 4.7-6.6 14.3-1.7 4.9-3.7 9.8-4.5 10.9-1.4 2.2-1.6 3.1-4 16.1-1.9 10.4-1.9 10.5.3 10.5 1.7 0 1.8.3.5 5.7-1.3 6.1-2.4 13.7-2.9 21.3-.4 6.2-3.2 17.7-5.5 22.5-1 2.2-2.1 6.5-2.4 9.5-.2 3-.9 5.6-1.5 5.8-.6.2-1.1.8-1.1 1.4 0 .6-.8 1.6-1.7 2.3-1.4 1-1.5 1.6-.5 2.7.6.8.9 1.7.6 2-.3.4.1 1.9.9 3.5.9 1.7 1.5 6 1.6 11.5.1 7.4-.1 8.7-1.6 9.2-1 .3-.6.4 1 .2 2.2-.3 2.7.1 2.7 1.8 0 1.4 2 4 5.1 6.9 5.8 5.3 6 7.7.7 7.7-4.1 0-5.1.7-6.9 4.7-.8 1.8-1.7 3.3-2.1 3.3-1.4 0-.8 3.7.7 5 .8.7 1.5 1.8 1.5 2.6 0 .7 1 1.4 2.3 1.6 1.6.2 2.4 1.3 3.1 4 .5 2.1 1.3 3.8 1.8 3.8.4 0 .8.6.8 1.4 0 2 2.3 2.6 9.5 2.6 3.5 0 6.6.4 7 .9.3.6 2.6 1.3 5.1 1.7 2.5.3 5.3 1.4 6.2 2.3.9.9 3.5 2.5 5.8 3.5l4.1 1.7-.5 5.7c-.3 3.5-1.2 6.3-2.3 7.5-1 1.1-1.6 2.4-1.4 2.8.8 1.1-3.5 5.5-7.5 7.7-3 1.6-3.5 2.4-3.5 5.5 0 2.1-.3 3.7-.7 3.7-.5 0-.8.6-.8 1.4 0 .8-1.2 2.5-2.8 3.8-1.5 1.3-2.6 3.1-2.4 4.1.2 1-1.1 3-3.2 4.9-2 1.7-3.6 4-3.6 5 0 2.5-4.4 6.8-7 6.8-1.7 0-2 .4-1.5 1.9.3 1.1 0 2.3-.7 2.8-1.9 1.2-5.7 9.3-5.9 12.8-.1 1.6.2 3.9.6 4.9.6 1.4.2 2.4-1.8 3.8-2 1.5-2.7 2.8-2.7 5.3 0 2.9-.7 3.9-4.5 6.5-4.9 3.4-5.7 5-2.4 5 2.8 0 2 2-1.5 4-3.2 1.7-3.5 3.5-.7 3.5 1.1 0 2.2.3 2.6.7 1.2 1.1-3.8 2.7-6.8 2.1-2.3-.5-2.5-.9-2-3.4.4-2.1.2-2.9-.9-2.9s-1.2 1.4-.8 7.3c.4 4 .9 7.8 1.3 8.4 1.2 1.8-1.9 3.4-7.9 4-5.3.6-9.4 2.6-9.4 4.6 0 .5.7 1.6 1.6 2.5 1.5 1.4 1.5 1.7 0 2.7-.9.7-1.6 1.6-1.6 2 0 .4.7.2 1.5-.5.9-.7 2.6-.9 4.6-.5 2.2.5 2.9.4 2.5-.4-1.4-2.2 4.4-1.6 6.1.6 1.4 1.9 4.3 1 4.3-1.3 0-.9-.9-1.8-2-2.1-2.4-.6-2.6-2.8-.4-3.7 2.2-.8 2.4-.8 2.4.6 0 .6.7 1.9 1.6 2.9 1.4 1.5 1.2 2.1-1.5 6.5-1.7 2.6-3.1 5.4-3.1 6.2 0 .8-.9 1.3-2.2 1.2-4.4-.4-5.5 0-3.5 1.1 2.3 1.3 2.2 4-.3 7.2-2.4 3-2.6 4.7-.5 4.7 1.9 0 2 4.2.3 7.1-1 1.7-1 2.3 0 2.6.7.3 1.2 2.3 1.2 5 0 3.6-.3 4.4-1.7 4.1-2-.4-5.1-5.5-5.2-8.6-.1-2.7-2-2.8-4.9-.2-3.2 3-2.9 5.8.6 6.2 2.7.3 2.8.5 2 3.5-.9 3.4-3.2 4.4-4.1 1.9-.3-.9-1.5-1.2-3.1-.9-1.5.3-2.6.1-2.6-.6 0-.6-.9-1.1-2-1.1s-2 .7-2 1.5.8 1.5 1.8 1.5 3.2 1.2 5 2.7l3.3 2.8-2.1 3.7c-1.1 2.1-2 4.9-2 6.3 0 1.4-.4 2.5-1 2.5-.5 0-1-1.1-1-2.5 0-4.5-2.7-2.7-4.5 3-.9 3-2.1 5.8-2.7 6.1-.5.3-.7 1.2-.4 2 .3.8.2 2.2-.3 3.2-1.7 3.4-3.4 8.8-4.4 14.2-.6 3-1.6 6-2.2 6.7-.5.7-1.6 1.9-2.3 2.8-1.5 1.8-4.6 2-5.9.2-.6-.6-1.3-3-1.6-5.2-.5-3.4-.2-4.5 2.4-7.5l2.9-3.4.1 3.9c.2 4.9.2 4.6-.6 6.6-.4 1.1 0 1.8 1.5 2.2 1.7.4 2.1.1 1.9-1.6-.1-1.2.7-4.2 1.9-6.6 2.2-4.9 1.6-8.1-1.6-8.1-.9 0-2.3-.9-2.9-1.9-1.1-1.7-.9-2.1.8-2.6 1.6-.5 2-1.3 1.6-3.3-.6-3.3.1-5.2 2-5.2 1.1 0 1.4.7 1.1 2.5-.7 3.4.3 3.1 2.9-1 2.5-4 3.9-9.5 2.4-9.5-.6 0-1.1.3-1.1.7 0 .5-.8 1.8-1.8 3.1-1.8 2.3-1.8 2.3-1.4-4 .4-6 1.4-8.8 3.3-8.8.5 0 .9 1.6.9 3.5 0 3.8 1.3 4.5 2.9 1.7 1-1.6 1.2-1.6 2.5.1.8 1 2 1.5 3 1.1 2.1-.8 2-2.3-.1-3.1-1-.4-2.8-1.7-4.1-3-1.3-1.3-2.7-2.3-3.2-2.3-.6 0-1-1.1-1-2.5 0-1.8-.5-2.5-1.9-2.5-1 0-2.2-.8-2.6-1.8-.6-1.5-.8-1.5-2.6.7-1.5 1.8-2.3 2.1-3.1 1.3-2.8-2.8-8.7.6-8.8 5 0 1-.4 1.8-1 1.8-.5 0-1 1.6-1 3.5 0 3.9 1.4 4.6 3 1.4 1.3-2.4 3.5-2 3.6.7.2 3.7.4 4.4 1.4 4.4 1.7 0 4-5.7 4-10 0-3.3.3-4 2-4 2.8 0 2.6 3.6-.6 10-1.4 2.9-2.9 7-3.2 9.2-.4 3.5-4 8.8-5.9 8.8-1 0 .8-5.5 2.2-6.6.8-.6 1.2-1.9.8-3.2-.6-2.6-.9-2.6-4.6-.8-2.6 1.4-2.7 1.4-2.7-.9 0-1.3-.6-3-1.3-3.7-2.4-2.3-2.6-5.6-.6-7.4 2.4-2.2 2.5-4.7.2-4.2-1.1.2-2 1.5-2.3 3.2-.3 1.6-1.5 3.5-2.8 4.4-2.2 1.4-2.2 1.4-1.3-1.2 1.1-2.8.5-5.6-1.1-5.6-1 0-.7-3.3.7-7.7.5-1.6.1-2.4-1.5-3.3-1.9-1-2.7-.9-4.9.7-1.4 1.1-3.1 2.8-3.6 3.9-.6 1-1.9 3.2-2.9 4.7-2.2 3.3-1.6 4.3 1.5 2.7 2.1-1.2 2.1-1.1 1.5 1.6-.4 1.6-.9 4.5-1.1 6.4-.4 2.9-.3 3.1.5 1.2 1.5-3.6 4-2.8 3.8 1.2-.1 1.9.6 4.6 1.5 5.9 1.9 3 1.1 10.7-1.2 11.5-1.1.4-1.3-.5-.8-4.3.6-4 .5-4.6-.7-3.6-1 .9-2 .9-3.3.3-2.7-1.5-8.3 3.7-8.3 7.7 0 1.6-.6 3.1-1.5 3.5-1.6.6-2.2-1.9-.6-2.8.4-.3 1.1-2.2 1.4-4.3.3-2.1.8-4.6 1.2-5.6.6-1.3.2-1.7-1.8-1.7-1.4 0-2.8-.4-3.2-.9-.3-.6-2-.1-3.9 1-3.3 1.9-3.5 1.9-4.5.2-1.1-2-.9-2.1-2.6 3.2-.6 2.2-2.3 1.8-3-.6-.5-1.4-1.2-1.8-2.3-1.4-1 .4-2.6 1-3.7 1.3-2 .5-4.4 3-4.5 4.4 0 .5.9.8 2 .8 1.7 0 2 .7 2 4 0 4.4.6 4.9 2.6 2.2 1.2-1.5 1.3-1 1.4 3.8 0 3 .5 6.2 1 7 .8 1.2 1 1.2 1 .1 0-3.5 1.3.4 1.7 5.1.4 5.6-1.3 5.9-1.9.4-.4-3.5-2.7-4.7-3.5-1.7-.9 3.5-2.3 1.3-2.1-3.4.1-2.4-.1-4.7-.5-5.1-1.1-1.1-3.7 1.6-3.6 4 0 1.1-.3 5-.7 8.5-.6 5.6-.5 6.4.9 5.8 2.5-1 3.6 1.5 3.2 7.3-.2 3-.4 6.1-.5 6.7 0 1.5-3.6 1.7-4.5.3-1.3-2.1-2.6.4-2.4 4.4.3 4.9-.8 7.6-2.2 5.5-.5-.8-.6-2.6-.3-4.2.4-2 .1-2.9-1.2-3.4-1.1-.4-2-.1-2.2.7-.3.9-1 .6-2.3-1.1l-1.8-2.4-3.2 3c-1.7 1.7-3.8 4.4-4.5 6.2-1.5 3.5-3 4.8-3.8 3.4-.9-1.4.4-4.1 2-4.1.8 0 1.4-.5 1.4-1 0-.6-.5-1-1-1-.6 0-.4-1.3.5-3 1.6-3.1 2-8 .7-8-1.2 0-3.2 4.7-3.2 7.5 0 2.5-2.3 3.5-3.5 1.5-1.3-2.1-2.6-.8-2.3 2.5.1 1.9-.3 4-.9 4.6-1.5 1.5-2.3-.1-2.5-5-.1-4.6-.1-4.6-2.8-2.9-1.5 1-2.2 1-3.2 0-.9-.9-.8-2.3.4-6.2.9-2.8 1.2-5.2.7-5.6-1.4-.8-2.9.5-2.2 2.1.3 1-.1 1.5-1.2 1.5-1.1 0-1.5-.5-1.2-1.4.3-.8-.1-2-1-2.7-1.2-1.1-1.8-.9-3.2 1-1.2 1.5-2.5 2.2-4.2 1.9-1.9-.2-2.5.2-2.7 2-.3 2 0 2.3 1.7 1.7 1.7-.5 2.1-.2 2.1 1.7 0 1.3.7 3.1 1.4 4.1 1.4 1.7 2.7 2.3 2.5.9-.3-1.8.2-3.2 1.2-3.2.5 0 .9.8.8 1.7-.2 1 0 3.1.4 4.7.7 2.7.9 2.7 2.6 1.2 1.5-1.4 2-1.4 3-.2 1.9 2.3-.3 6.6-3.4 6.6-2.7 0-3.5 2.3-1.2 3.7.7.4 1.8 2.1 2.5 3.6.9 2.1 1.8 2.7 3.5 2.5 1.7-.2 2.3.3 2.5 2.1.5 3-1.4 5-2.2 2.4-.8-2.4-5.7-5.3-8.9-5.3-3.5 0-5.4-2.6-3.9-5.1 1.4-2.3 1.6-5.9.2-5.9-.5 0-1.2 1.7-1.6 3.7-.4 2.1-1 4.2-1.4 4.8-.5.5-1.1 2.7-1.5 4.8-.8 4.1.8 7.2 3.3 6.2 1.2-.4 1.2-.3.3.9-.8 1-.9 1.6-.1 2.1 1.5.9 1.2 4.1-.6 5.6-1.4 1.1-1.8 1.1-2.9-.4-1.4-2-3.5-2.2-3.6-.5-.2 2.3.3 7.3.8 8.1.2.4 1.6-.2 3-1.3s3.6-2 4.9-2c1.4 0 3.2-.5 4.2-1.1 1.5-.9 2.4-.8 4.5.6 1.5.9 2.7 2.4 2.7 3.1 0 .8.9 1.4 2 1.4 1.6 0 2 .7 2 3 0 2.7.3 3 3 3 4 0 5.3 2.8 5.6 11.7.1 5.4-.2 7.3-1.1 7.3-.8 0-1.1-.8-.8-1.9.3-1.1-.3-3.1-1.4-4.5-1.8-2.5-4.3-3.5-4.3-1.6 0 2.4-3.1.7-3.6-2-.4-1.7-1-3-1.4-3-.5 0-.6.8-.3 1.8.5 2-2 4.7-3.5 3.8-.5-.3-.9-3.5-1-7.3-.1-3.7-.7-7.2-1.2-7.7-1.6-1.6-3.2.8-3.8 5.9-.4 4.2-.7 4.6-2.6 4.1-1.2-.3-2.7-.6-3.3-.6-.7 0-1.3-1.2-1.3-2.6 0-2.1-.8-2.9-4.1-4.2-3.4-1.3-4-1.9-3.6-3.9.5-2.7-.9-3-3.5-.6-1.4 1.3-2.1 1.4-3 .5-1.6-1.6-2.8-1.5-2.8.2 0 2.5-2.4 3.4-4.2 1.5-1-1.1-1.3-1.9-.6-2.1.6-.2.9-1 .6-1.8-.2-.8-1.1.1-2 2.1-1.7 3.5-2 3.3-3.2-2.3-.4-1.6-.2-2.8.3-2.8 1.4 0 2.2-4.4.9-5.5-.7-.7-1.2-.6-1.5.2-.8 2.3-2.3 1.3-2.3-1.5 0-4-.9-4.4-4-2.2-1.6 1.1-3.7 2-4.8 2-1.1 0-2.5.7-3.3 1.6-1.2 1.4-1.4 1.4-2.6-.2-1.2-1.6-1.5-1.5-4 1.5-7.2 8.3-8.4 9.4-9.4 8.4-.7-.7-.4-2.3 1-4.9 1.2-2.1 2.1-5.1 2.1-6.6 0-1.4 1.1-4 2.5-5.6 1.4-1.7 2.5-3.9 2.5-4.9 0-1.1.9-2.8 2-3.8s2-2.5 2-3.4c0-1.9 3.9-9.9 6-12.5 4.3-5.2 8.9-9.6 10.2-9.6 2 0 1.6 3.5-.6 5.9-1.7 1.9-1.7 2.1-.2 2.7.9.3 2.3.4 3.1 0 .8-.3 1.5-.1 1.5.5s.4.7 1 .4c.5-.3 1.9-.1 3 .5 1.4.8 2 .8 2 0 0-2.1-2.1-5-3.6-5-1.4 0-4.4-5.5-4.4-8 0-1.9 15.2-17 17.1-17 3.2 0 4.9-1.2 4.9-3.5 0-2.4 7-8.5 9.7-8.5.8 0 3-.7 5-1.5 2.9-1.2 3.3-1.8 2.4-2.9-1.7-2 .3-5.6 2.9-5.6 1.1 0 2-.7 2-1.5s.5-1.5 1-1.5c.6 0 1-.7 1-1.5s1-1.7 2.3-2c1.2-.3 4.7-3.5 7.7-7 3-3.6 6-6.5 6.7-6.5.7 0 1.3-.4 1.3-.9 0-.4 1.8-2 4-3.5 4-2.6 4-2.6 6-.6 2.3 2.3 3.4 1.1 1.9-2.3-.9-2-.8-3 .6-5.1 1-1.4 2.4-2.6 3.1-2.6.8 0 1.4-.9 1.4-2 0-2.3 4.5-3.9 6.3-2.1 2 2 4.6 1.2 5.3-1.7 1-4.7 1.3-5.2 3.2-5.2 1 0 3.1-1.4 4.7-3 4.2-4.4 10.6-7.7 16.4-8.5 5.3-.7 6.3-1.7 3.4-3.5-1.7-.9-1.6-1.1.6-3 1.2-1.1 2.7-1.7 3.2-1.5.4.3 2.8-1.5 5.3-4s4.9-4.5 5.4-4.5 1.7-.9 2.7-2c1-1.1 2.8-2 3.9-2 1.4 0 3-1.4 4.7-4.3 2-3.3 3.6-4.6 6.7-5.5 2.5-.8 3.9-1.7 3.7-2.5-.3-.7 1.4-2 3.8-3.1 2.3-1 6-2.7 8.3-3.7 2.2-1.1 4.9-1.9 6-1.9 1 0 2.5-.9 3.1-1.9.7-1.1 2.2-2.1 3.5-2.3 1.2-.2 2.5-1.2 2.8-2.3.3-1.1 1-2.9 1.7-4 1.1-2 1.2-2 3.6.3 1.5 1.4 3 2 4 1.6 2.3-.8 2.1-2.4-.2-2.4-2.9 0-5.4-4.6-4.6-8.4.3-1.7.7-4.7.9-6.7.1-1.9.6-4 .9-4.6 1.1-1.7-.3-4.3-2.3-4.3-1 0-2.2-.9-2.5-2-.6-1.8-1.5-2-9-2-4.6 0-8.6.4-8.9.9-.4.5-3.1 1.7-6 2.6-3 1-5.7 2.3-6 3.1-.3.7-2 1.6-3.9 1.9-2.3.5-3.8 1.5-4.6 3.1-.7 1.5-2.2 2.7-4.2 3.1-2.6.5-3 .9-2.5 2.9.7 2.6 0 2.9-9.2 3.9-5.3.6-6.2 1-5.7 2.4.4 1.5-.3 1.7-5.6 1.6-3.3 0-6.3.3-6.5.6-.2.4-2 1-4 1.4-2 .3-4.3 1.3-5.1 2.1-.9.9-3.5 1.4-7.1 1.4-5 0-5.9.3-6.7 2.2-.6 1.3-2 2.7-3.1 3.3-3.3 1.7-5.4 3.6-5.4 5.1 0 .8-1.8 3.1-3.9 5.2-3.5 3.2-4 4.4-4.3 8.7-.3 4.5-.5 5-2.9 5.3-2.6.3-4.9 4.4-4.9 9 0 1.5-.9 2.6-2.5 3.2-1.5.6-2.5 1.7-2.5 2.9 0 3.2-8.9 11.1-12.4 11.1-.9 0-1.8 1.1-2.2 2.5-.4 1.5-1.3 2.5-2.4 2.5-1.2 0-2 1-2.4 3.2-.4 2.5-1.8 4.1-5.4 6.5-2.6 1.8-5.2 3.3-5.8 3.3-.6 0-1.9.9-3 2.1-3.6 4-7.1 5-18.6 5.4-6.1.1-11.3.7-11.7 1.2-1.1 1.8-4.5 3-10.1 3.7-3 .4-6.3 1.4-7.2 2.3-1.6 1.4-2.2 1.4-6.7-.1-2.7-.9-6.2-1.6-7.6-1.6-3.3 0-6.8-1.8-6-3.1.4-.5-.7-1.2-2.4-1.5-1.7-.4-3.1-1.2-3.1-2 0-1.2-5.6-3.4-8.7-3.4-.7 0-1.3-.4-1.3-.9s-2.7-1.2-6-1.6c-3.8-.4-6-1.2-6-2 0-.7-1.3-1.8-3-2.5-1.6-.7-3-1.6-3-2.1s-.8-.9-1.9-.9c-1 0-2.1-.9-2.4-1.9-.3-1.1-1.7-2.2-3.7-2.6-1.9-.4-3.4-1.5-3.7-2.6-.3-1.1-1.6-1.9-3.7-2.1-1.7-.2-2.9-.7-2.8-1.2.4-.9-1.6-2.6-3-2.6-.5 0-.8 65.5-.8 145.6v145.6l3.5-.6c4.6-.9 5.2.6 3.8 10.2-1 6.6-1.5 7.8-4.2 9.9l-3.1 2.4V1468h1127V0H0v233zM478 81.8c0 1.4-2.3 3.2-4.2 3.2-1 0-1.8.7-1.8 1.6 0 .8-.4 1.2-1 .9-1.7-1.1-1.1-2.2 2.3-4.4s4.7-2.6 4.7-1.3zM420 85c0 1.1-.6 2-1.4 2-.7 0-2.8.3-4.5.6-3.8.8-4.4-1.7-.8-3.4 3.7-1.8 6.7-1.5 6.7.8zm-39 4c0 .5-.8 1-1.7 1-1.5 0-1.6-.2-.3-1 1.9-1.2 2-1.2 2 0zm144.9 3.9c2.1 1.3.4 3.1-3 3.1-3.2 0-3.8-1.4-1.1-2.9 2.1-1.3 2.4-1.3 4.1-.2zm-171.5 18c.8 1.2-2.1 3.4-3.4 2.6-.8-.5-.8-1.1.1-2.1 1.3-1.6 2.5-1.8 3.3-.5zm182.3 4.7c-.3.3-1.2.4-1.9.1-.8-.3-.5-.6.6-.6 1.1-.1 1.7.2 1.3.5zm-3.7.8c0 .3-.4.8-1 1.1-.5.3-1 .1-1-.4 0-.6.5-1.1 1-1.1.6 0 1 .2 1 .4zm-179 18.8c0 .7-1.1 2.6-2.4 4.1-2.4 2.7-2.4 2.8-3.1.7-.4-1.4-.1-2.8 1.1-4.1 1.9-2.2 4.4-2.5 4.4-.7zm314.1 8.9c-.6 1.6-1 1.8-1 .7-.1-2.2 1.2-5.5 1.6-4.2.2.6-.1 2.2-.6 3.5zm96.9 80.8c0 .6-.4 1.3-1 1.6-.5.3-1-.1-1-.9 0-.9.5-1.6 1-1.6.6 0 1 .4 1 .9zm-527.2 17.9c-2.3 4.2-3.8 5.4-3.8 2.9 0-1.3 5.1-7.9 5.7-7.3.2.1-.7 2.1-1.9 4.4zm4.2 11.1c0 1.1-.5 2.3-1.1 2.7-.6.3-1 3.4-.9 7.3.1 3.6.2 7.3.1 8.1-.3 2.7-2.8-3.3-3.4-8.3-.6-4-.4-4.9 1.3-5.9 1.1-.7 2-2.3 2-3.5 0-1.3.5-2.3 1-2.3.6 0 1 .9 1 1.9zm18 1.5c0 .3-.4.8-1 1.1-.5.3-1 .1-1-.4 0-.6.5-1.1 1-1.1.6 0 1 .2 1 .4zm-4.3 4.2c-.3.3-1.2.4-1.9.1-.8-.3-.5-.6.6-.6 1.1-.1 1.7.2 1.3.5zM269 266c0 .5-1.1 1-2.5 1s-2.5-.5-2.5-1c0-.6 1.1-1 2.5-1s2.5.4 2.5 1zm-7.5 15.3c2.1 1.6 1.3 3.7-1.5 3.7-2.3 0-3.2-1.3-2.4-3.4.7-2 1.5-2 3.9-.3zm223.3 70.5c.3.9-.3 1.3-1.9 1-1.2-.1-2.4-.9-2.7-1.6-.3-.9.3-1.3 1.9-1 1.2.1 2.4.9 2.7 1.6zm-4.8 2.7c0 .8-.9 1.9-2 2.5-1.5.8-2 .8-2-.3 0-1.4 1.9-3.7 3.2-3.7.4 0 .8.7.8 1.5zm25.4 17.1c.5 1.2.2 1.5-1 1-1.1-.4-2.2.1-3.1 1.4-1.5 2.1-3.3 1.9-3.3-.4 0-1.3 3.4-3.4 5.6-3.5.7-.1 1.5.6 1.8 1.5zm-78.9 1.4c-1 1.1-2.3 2-2.8 2-.6 0-.2-.9.8-2s2.3-2 2.8-2c.6 0 .2.9-.8 2zm-198.4 1.2c-.5 1.3-1.5 2.3-2.2 2.3-.8 0-1.5-1-1.7-2.3-.3-1.8.1-2.2 2.2-2.2 2.2 0 2.4.3 1.7 2.2zm7.2-1.5c-.7.2-1.9.2-2.5 0-.7-.3-.2-.5 1.2-.5s1.9.2 1.3.5zm-25.5 29.6c.7.8.7 1.9-.2 3.6l-1.3 2.4-1.6-2.4c-1.2-1.7-1.4-2.6-.5-3.6 1.3-1.6 2.3-1.6 3.6 0zm661.7 2.7c-.3.5-1.2 1-2 1s-1.7-.5-2-1c-.4-.6.5-1 2-1s2.4.4 2 1zM202 409c0 1.1-.4 2-1 2-.5 0-1-.9-1-2s.5-2 1-2c.6 0 1 .9 1 2zm126.5 51.3c-2 1.1-2.7.5-1.9-1.7.5-1.3.9-1.4 2.1-.5 1.2 1.1 1.2 1.4-.2 2.2zm8.5 3.7c0 .5-.5 1-1.1 1-.5 0-.7-.5-.4-1 .3-.6.8-1 1.1-1 .2 0 .4.4.4 1zm220.9 13.5c1.8.9 4 3.4 5.2 5.8 1.2 2.3 1.8 3.9 1.4 3.5-.5-.4-1.4-.3-2.1.3-.9.7-1.9.7-3.2 0-1.1-.6-4.6-1.4-7.8-1.7-6.2-.7-7.4-1.5-7.4-5.2 0-1.2-.8-2.6-1.7-2.9-1.5-.6-1.4-.8.7-1.5 3.6-1 11.4-.2 14.9 1.7zm314.5.1c.9 2.4.7 2.7-.9 1-1.7-1.7-1.9-2.6-.6-2.6.5 0 1.2.7 1.5 1.6zm-546.8 10.2c-.4.3-1.1.1-1.8-.6-.8-.8-.8-1.5.3-2.8 1.3-1.6 1.4-1.6 1.7.5.2 1.3.1 2.5-.2 2.9zm540.9-3.8c1.3 0 3 4.8 2.1 5.7-.9.9-5.7-.7-5.1-1.7.3-.5.1-1.9-.6-3.1-1-1.9-.9-2.1.6-1.6.9.4 2.3.7 3 .7zm6.2 8.2c-.3.7-.5.2-.5-1.2s.2-1.9.5-1.3c.2.7.2 1.9 0 2.5zm-323.1 1.9c1 1.7-1.3 3.6-2.7 2.2-1.2-1.2-.4-3.3 1.1-3.3.5 0 1.2.5 1.6 1.1zM396 502.5c0 2.5-.4 4.5-1 4.5-.5 0-1-2-1-4.5s.5-4.5 1-4.5c.6 0 1 2 1 4.5zm167.5-.4c2.4 2.2 4.7 5.3 5 6.9.6 2.9 5.6 8 7.7 8 .6 0 3-1 5.4-2.2 3.4-1.7 4.4-2.7 4.4-4.6 0-1.9.4-2.3 1.8-1.7.9.4 2.5 1 3.5 1.2 2.2.7 2.4 6.3.2 6.3-.8 0-2.2 1.1-3 2.4-1.3 2-1.4 2.9-.5 4.7.7 1.2.8 1.9.2 1.5-.5-.3-2.5 0-4.3.7-4.1 1.5-14.7 7.5-15.5 8.8-.3.5-1.6.9-3 .9s-2.7.6-3 1.4c-.4 1.1-1.7 1.3-5.5.9-4.1-.5-4.9-.3-4.9 1.1 0 .9-.4 1.6-1 1.6-.5 0-1-.4-1-.8 0-1.4 2.4-3.2 4.3-3.2 2.2 0 6.9-3.4 6-4.4-.3-.3-.2-.6.4-.6.6 0 2-1.6 3.2-3.5l2-3.5-3.2-.1c-6.3-.2-14.2-.9-15.7-1.5-1.3-.4-1.2-.7.3-1.5.9-.6 1.7-1.6 1.7-2.4 0-.8 1.1-3.5 2.5-6.1 1.4-2.6 2.5-5.2 2.5-5.8 0-3.2 2.3-8.6 3.6-8.6.8 0 3.4 1.8 5.9 4.1zm15.5 8.8c0 .6-.4 1.3-1 1.6-.5.3-1-.1-1-.9 0-.9.5-1.6 1-1.6.6 0 1 .4 1 .9zm-102.4 9.8c-.8.8-5.6-1.4-5.6-2.6 0-1.8 3.5-1.7 4.9.2.7 1 1 2.1.7 2.4zm13.8 5 2.3 1.7-2.5 1.3c-2.3 1.2-7.2 1.8-7.2.9 0-.3.4-1.6 1-3 1.1-3 3.2-3.3 6.4-.9zm-14.5 2.8c.8.4.9 1.1.3 1.7-1.1 1.1-6.2 0-6.2-1.4 0-.5-.8-.7-1.7-.4-1 .3-2.5.1-3.3-.4-1-.6.3-.8 4.1-.6 3.1.2 6.2.6 6.8 1.1zm108.1 4c0 3-2.4 4.2-5 2.5-1.1-.8-1.2-1.2-.3-1.8 1.3-.8 5.3-1.4 5.3-.7zm356.4 6.6c-3.8 4-4.1 3-.7-2.2 2.1-3.2 2.9-3.8 3.1-2.5.2 1-.9 3.1-2.4 4.7zm-423.1-2c1.1.7 2.6 1.6 3.1 2.1.6.5 2 1.5 3.1 2.3 3.4 2.3.9 2.7-3.6.6-2.3-1.2-5.1-2.1-6.1-2.1-1.8 0-2.5-2-1.1-3.3.9-1 2.1-.9 4.6.4zm56.2.8c.3.5.1 1.2-.5 1.6-.5.3-1-.1-1-.9 0-1.8.6-2.1 1.5-.7zm9.9 11.2c.1 3.1-.5 5.1-1.7 6.3-.9 1-1.7 3.2-1.7 5.2 0 1.9-.4 3.4-1 3.4-.5 0-1 1.2-1 2.7 0 5.7-2.9 21.8-4 22.1-.6.2-1.7 1.7-2.6 3.4-1.6 3-.9 5.1 1.7 5.4.5.1 1.3.2 1.8.3 3.1.4 1.4 8.1-2.8 12.2-3.8 3.7-7.1 8.2-7.1 9.6 0 .8-1.1 1.9-2.5 2.5-1.6.7-2.5 1.9-2.5 3.4 0 1.2-.4 2.4-.9 2.6-1.1.4-9.6 10.9-11.6 14.4-.9 1.6-2.7 4.4-4 6.3-1.4 1.9-2.5 4.2-2.5 5.2 0 1.1-.7 1.9-1.5 1.9-2.4 0-1.7 3.7 1 5.8 2.6 2.1 3.4 6.1 1.3 6.3-.7.1-2.5 0-4-.1-1.6-.1-2.8.2-2.8.7 0 .5-.7 1.8-1.6 2.9-1.5 1.8-1.5 1.8-.5-.3 1.8-3.7 1.3-5.3-1.9-6-2.9-.5-4.2-2.3-1.8-2.3.7 0-.7-1.9-3-4.3-4.8-4.8-5.3-6.7-1.8-6.7 1.8 0 2.5-.7 3-3 .6-3.3-1.3-12-2.6-12-.5 0-.1-1.1.8-2.5 1.3-2 1.4-3.3.6-7.2-.9-3.9-.8-5.3.6-7.8.9-1.6 2-3.3 2.5-3.6.4-.3-.1-1.3-1.2-2.3-1.6-1.5-2.3-1.6-4.2-.5-1.3.6-3.1 2.1-4.1 3.3l-1.8 2.1.1-2.5c.3-4.5-.1-6.6-.9-5.2-.7 1-1.5.8-3.6-.9l-2.8-2.2.3 2.4c.1 1.3-.1 3.5-.5 4.8-1.4 4.1-3 .6-2.8-6.3.2-4.9-.2-6.7-1.5-7.7-1.3-1.1-1.7-1.1-2-.2-.3.7-1.3 1.3-2.4 1.3-2.1 0-2.4-1.8-1-6.8.6-1.8.7-4 .4-4.8-.9-2.4-3-1.5-3.6 1.6-.8 3.7-2 3.8-3.6.4-1.6-3.5-.4-9.1 2-9.7 1.2-.3 1.9-1.4 1.9-3 0-1.4.3-3.4.6-4.4.5-1.5.2-1.4-1.4.4-1.1 1.3-2.9 2.3-4 2.3s-2.2.6-2.5 1.2c-.2.7-.8 1-1.2.6-1.1-1 .4-6 1.5-5.3.6.3 1-.1 1-1 0-1.1-.5-1.5-1.5-1.1-1 .3-1.5-.1-1.5-1.2 0-2.8 2.1-4.9 6.3-6.2 2.1-.7 4.1-1.8 4.4-2.6 1-2.6 3.3-1.4 5.4 2.8 1.2 2.4 2.5 4.5 2.9 4.8.4.3 1 2.2 1.4 4.2.8 4.4 2.2 4.9 3.6 1.2 1.4-3.5 1.2-4.7-.4-4.1-.9.4-1.7-.1-2-1.1-1.4-5-1.6-8.1-.7-8.7.6-.3 1.1-.2 1.1.2 0 .5 1.5.7 3.4.5 4.4-.5 5.2 1 2.5 4.7-1.2 1.6-1.8 3.4-1.5 4 1.1 1.7 4.1 1.3 6.1-.9 1-1.1 2.7-2 3.7-2 1.4 0 1.9-.6 1.6-2.3-.2-1.2-.9-2.1-1.6-1.9-.6.1-1.2-.5-1.2-1.3 0-2.2-3.8-3.7-8.6-3.3-3.9.3-4.4.1-4.4-1.8 0-3.5 4.3-4.6 20.3-5 9.9-.3 15.9-.9 18.3-1.9 3.4-1.4 3.5-1.4 7.3 2 4.5 4.1 8.9 5.1 5.3 1.2-2.3-2.4-3-5.7-1.2-5.7.6 0 1 .9 1 1.9 0 3.4 1.8 3.3 3.6-.1 2.8-5.6 6.4-8.8 10-8.8 1.7 0 3.8-.7 4.5-1.6 1.2-1.5 1.5-1.3 2.3 1.7.5 1.9.9 5.5 1 8zm-91-1.4c1.3 4.9 1.7 10.1.7 10.8-.6.3-.9 1.1-.6 1.6.4.5.2.9-.3.9s-1.4 1.1-2 2.5c-.7 1.4-2 2.5-3.1 2.5s-2.3.4-2.6 1c-1 1.7-2.5 1.1-2.5-1 0-1 .6-3.4 1.4-5.2.7-1.8 2.2-5.9 3.1-9.1 1.3-4.1 2.3-5.7 3.6-5.7 1 0 2 .8 2.3 1.7zm378.1.3c-1.4 1.6-2 1.7-2.7.8-1.3-2.2-.9-2.8 1.9-2.8 2.6 0 2.6 0 .8 2zm10.3 30.7 3.7 1.6-4.8.9c-5.3 1-8 0-9.8-3.4-1.1-2-1-2.1 3.1-1.4 2.3.4 5.8 1.4 7.8 2.3zM325 588c0 2.2-.2 4-.5 4-1.1 0-2.5-4.3-2-6 1.1-3.4 2.5-2.2 2.5 2zm158.7 3.2c-.3.8-.6.5-.6-.6-.1-1.1.2-1.7.5-1.3.3.3.4 1.2.1 1.9zm7.3 3.8c0 .5-.2 1-.4 1-.3 0-.8-.5-1.1-1-.3-.6-.1-1 .4-1 .6 0 1.1.4 1.1 1zm4 4.2c0 1.6-1.9 4.7-2.1 3.3 0-.6-.2-1.8-.4-2.8-.2-.9.3-1.7 1.1-1.7s1.4.6 1.4 1.2zm7.2 12.4c.2 1.9 0 3.7-.4 4-.4.3-.8-1.3-.8-3.5 0-5.1.6-5.3 1.2-.5zm266.3 27.3c.8 1.4-3.7 4.3-4.8 3.2-1.5-1.5 0-4.1 2.2-4.1 1.1 0 2.2.4 2.6.9zm26.6 21.5c.5-.3 1.2.3 1.5 1.3.3 1 1 2.6 1.5 3.5 1.3 2.5 1.1 4-.9 6.4-2.2 2.7-5.8 3.9-6.7 2.3-.4-.6-.2-2.9.5-5 1.1-3.4 1.1-4.5-.2-7.2-.8-1.8-1.6-6-1.7-9.4-.2-5.2 0-6.2 1.6-6.5 1.6-.3 1.9.7 2.6 7.4.5 4.3 1.3 7.5 1.8 7.2zm58.9-9.9 2.8-2.7.6 2.9c1.6 8.3 1.7 10.1.2 14.3-.9 2.5-1.6 5.5-1.6 6.7 0 2.7-1 2.8-4.9.9-4-2.1-5.1-3.9-5.6-8.8-.2-2.3-.7-5.7-1.1-7.5-.4-2.3-.1-3.9 1.2-5.7l1.9-2.5 1.9 2.5 1.9 2.5 2.7-2.6zM323.5 652c-2.8 1.2-3.7 1.2-3 0 .3-.6 1.6-1 2.8-.9 2.1 0 2.1.1.2.9zm229.5 6.7c0 1.4-1.1 4.1-2.5 5.9-1.4 1.8-2.5 4.2-2.5 5.3 0 1.5-.6 2.1-2.4 2.1-2.2 0-2.2-.2-1.2-3.5.6-1.9 1.4-3.5 1.8-3.5.5 0 .8-.6.8-1.3 0-1.8 3.8-7.7 5-7.7.5 0 1 1.2 1 2.7zm6.3 2c-.7.2-1.9.2-2.5 0-.7-.3-.2-.5 1.2-.5s1.9.2 1.3.5zm282.7.3c0 .5-.4 1-1 1-.5 0-1-.5-1-1 0-.6.5-1 1-1 .6 0 1 .4 1 1zm-507.2 6.1c3.4 1.7 6.2 3.5 6.2 4.1 0 1.3-4 7.8-4.8 7.8-1.1 0-4.2-3.3-4.2-4.6 0-.7-.9-1.6-2-1.9-1.6-.5-2-1.5-2-4.6 0-2.1.2-3.9.3-3.9.2 0 3.2 1.4 6.5 3.1zm323.4 5.5c-.4 3.3-.6 3.5-3.1 2.9-1.4-.4-2.8-.8-3-1-.9-.9 2.2-6.4 3.7-6.7 2.3-.5 2.9.6 2.4 4.8zm-337.9 2.8c1.4 1.1 1.6 2.1 1 4.5l-.8 3.1-3.2-2c-4.1-2.4-4.7-7-1-7 1.2 0 3 .7 4 1.4zm311.7 1.7c0 .5-.7.9-1.5.9-.9 0-1.2-.6-.9-1.5.6-1.5 2.4-1.1 2.4.6zm176-.5c0 .8-.5 1.2-1 .9-.6-.4-.8-1.1-.5-1.6.9-1.4 1.5-1.1 1.5.7zm-151.6 5.7c.3 1.2.4 2.3.2 2.5-.7.6-3.6-2.9-3.6-4.3 0-2.1 2.7-.7 3.4 1.8zm7.8 10.9c-.8.8-.9.4-.5-1.3.4-1.3.8-1.8 1.1-1 .2.7-.1 1.8-.6 2.3zM687 755c1.3 0 2.4.9 3 2.5 1.5 3.9 3.3 3.1 2.6-1-.8-4.1.6-4.7 2.2-1 .6 1.4 1.7 2.5 2.4 2.5s1.9.9 2.6 2c1.1 1.8.8 2.3-2.8 4.6-2.8 1.9-4 3.4-4 5 0 1.5.6 2.4 1.5 2.4 1.9 0 1.9 2.4 0 4-2 1.7-7.3 11.6-8.5 16l-.9 3.5-11.6.1c-6.3.1-11.5-.3-11.5-.7 0-.5-.9-.9-2-.9s-4-.5-6.5-1.2c-3.5-1-5-1-6.5 0-1.5.9-2.5.8-4.7-.3-1.8-1-5.8-1.5-11.4-1.5-7.2 0-9.1-.3-11.3-2.1-1.4-1.1-2.6-2.6-2.6-3.3 0-.7-.9-2.1-1.9-3-1.1-1-2.2-2.8-2.5-4.2-.4-1.3-1.2-2.4-1.9-2.4-.8 0-2.3-1.1-3.6-2.3-2.1-2.3-2.1-2.5-.4-4.6 1.6-1.9 2.9-2.2 13.9-2.5 6.6-.2 13-.9 14.2-1.5 1.1-.6 3.6-1.1 5.4-1.1 1.9 0 3.9-.5 4.5-1.1 1.6-1.6 15.8-1.5 17.8.1 1.3 1.1 2 1.1 4 0 1.4-.8 4-1.1 6.6-.7 5.5.7 6.9.1 6.9-3.3 0-4.6.9-6.1 3-5 1 .6 2.8 1 4 1zm35.4 14.7c.3.4 1.2.8 1.9.9 4.7 1 6.4 1.6 10 3.7 2.3 1.3 7.4 3.4 11.2 4.6 7.1 2.3 10.5 4.4 10.5 6.6 0 1.2 1.8 1.7 10.5 3 2.2.4 5.4 1.3 7 2 1.7.8 4.6 1.7 6.6 2 2.1.3 4.3 1.2 5 2.1.7.8 3.9 2.8 7.2 4.4 4.8 2.4 7.5 3.1 14.7 3.4 6.3.3 10 1.1 12.9 2.5 2.2 1.2 4.6 2.1 5.3 2.1 2.6 0 14.1 6.1 16 8.5 1.5 2 2.8 2.5 6.3 2.5 4.2 0 9.5 1.6 9.5 2.9 0 .3-.9 2.1-2 3.9-1.5 2.4-1.8 3.8-1.1 5 .6 1.1.6 2.4.1 3.2-.7 1.2-1.3 1.2-3.4.1-2.2-1.2-2.9-1.2-5 .3-3.2 2-6 2.1-7.6 0-.8-.9-2.5-1.4-4.2-1.2-4.7.5-8.8-7.3-5.3-10.2 3.7-3.1-.7-8.7-5.9-7.4-1.9.4-2.6 1.3-2.6 3 0 1.3-.5 2.4-1.2 2.4-.6 0-.8.3-.5.7 1.1 1-2.6 3.2-5.4 3.3-1.4 0-3.4.8-4.3 1.9-1 1.1-3.6 2.1-6.3 2.4-4.2.4-5 .2-7.6-2.4-1.6-1.6-3.8-2.8-5-2.8-1.6.1-1.8.3-.5.6 1.5.4 1.5.6-.2 2.3-1 1-2.9 2-4.1 2.2-3.6.5-3.6-2.9-.1-6.6 3.6-3.7 4.6-6.6 3.7-10.6-.5-2.1-1.3-3-2.6-3-1.4 0-1.9-.7-1.9-2.5s-.5-2.5-2-2.5c-2 0-2 .1-.5 3.1 1.7 3.1 1.3 8.1-.7 10.6-1.1 1.3-12.8 5.3-15.5 5.3-5.8-.1-6-6.1-.2-7 4.2-.6 4.4-2.8.4-5-2.9-1.6-4.8-6-2.6-6 3 0-.3-8.8-3.6-9.6-6.3-1.6-7.8 1.5-2.9 6.1 3.9 3.6 4.7 7.4 2.1 9.5-.8.7-1.5 2.2-1.5 3.3 0 1.1-.9 3-2 4.2-1.7 1.8-1.8 2.8-1.1 7.3.9 5.9 1.6 7 4.9 7.5 1.2.2 2.8 1.2 3.6 2.2 1.3 1.8 1.1 5.5-.4 5.5-.4 0-1.1 1.1-1.4 2.5-.7 2.8-2.6 2.5-2.6-.3 0-.9-2.3-3.7-5-6.1-3.3-2.8-5-5.1-5-6.6s-1.4-3.4-4-5.5c-2.2-1.7-4-3.8-4-4.5 0-.7-1.3-1.8-3-2.4-1.8-.6-3-1.7-3-2.8-.1-2.5-2.4-5.3-4.4-5.3-1.8 0-1.9.4-1 4.9.4 1.7 1 2.9 1.4 2.6.4-.3 1 .4 1.3 1.5.4 1.5 0 2-1.4 2-1.1 0-1.9-.7-1.9-1.8 0-1.6-5.6-6.2-7.6-6.2-2.6 0-5.3-4.5-5-8.3.2-2.5-.1-3.7-1-3.7-1.8 0-6.4-4.4-8.1-7.7-2-3.8-1.1-6 4.7-12.3 2.7-3 5-5.9 5-6.4 0-1 3.9-4.6 5-4.6.4 0 1 .3 1.4.7zm144 53.9c2.1.8 2.1 5.4 0 5.4-1.8 0-5.5-4.1-4.7-5.2.5-1 2.6-1 4.7-.2zm-125.5 4.6c0 2.4-.3 3.6-.6 2.8-.3-.8-1.2-2.7-2-4.3-1.3-2.5-1.2-2.7.7-2.7 1.7 0 2 .6 1.9 4.2zm-428.1 0c.4 1.9-2.7 3.3-4.1 1.9-.7-.7-.6-1.6.3-2.6 1.5-1.8 3.4-1.5 3.8.7zm457.3 1.8c3.4 1.9 6.6 9.9 3.4 8.6-.8-.3-1.5-.1-1.5.4 0 .6-1.8 1-4.1 1-2.4 0-3.8-.4-3.4-1 .3-.6 1.5-1 2.5-1 1.5 0 1.8-.6 1.4-3.6-.3-2-.7-4.1-1-4.5-.7-1.2.3-1.1 2.7.1zm126.4 6.1c5.1 2.7 9.5 5.6 9.8 6.3.3.7 2.6 1.8 5.1 2.5 2.5.6 5.1 1.8 5.8 2.7.7.8 1.8 2 2.4 2.7 1.4 1.5-.5 6.7-2.4 6.7-.7 0-3.3-1.9-5.6-4.3-3.8-3.7-4.7-4.2-7.1-3.5-2.2.6-3.7.1-7.1-2.3l-4.2-3.1-5.9 2.1c-3.3 1.2-6.2 2.1-6.6 2.1-1.4 0-4.6-7.9-5.3-13l-.7-5.3 6.2.7c4.7.5 8.6 1.9 15.6 5.7zm-67.7.1c-.7 1.9-4.5 2.1-5.1.4-.5-1.2.1-1.6 2.4-1.6 2 0 2.9.4 2.7 1.2zm35.2 1.9c0 1.1.9 2.8 2 3.9 2.2 2.2 3.1 6.1 1.5 6.5-.5.2-2.7-1.7-4.9-4.1-3-3.4-3.7-4.9-3.2-6.8.4-1.8 1.1-2.3 2.6-1.9 1.1.3 2 1.4 2 2.4zm-23.3 5.3c3.8 3.9 4.8 4.4 10.2 5 6.4.7 8 1.8 6.1 4.1-1.4 1.7-5 2-5 .5 0-.6-.9-1-2-1s-2-.4-2-.8c0-.8-3.3-2.4-10.7-5.2-1.8-.7-3.3-1.8-3.3-2.5 0-.8-.3-2-.6-2.9-1.2-3.2 3.1-1.5 7.3 2.8zM293 844.5c0 .8-.4 1.5-1 1.5-.5 0-1-.7-1-1.5s.5-1.5 1-1.5c.6 0 1 .7 1 1.5zm489 2.1c1.2 1.2.1 5.4-1.5 5.4-.6 0-2-.9-3-2-1.4-1.5-1.5-2.3-.6-3.4 1.3-1.5 3.6-1.5 5.1 0zm35.3 6.2c-.5 3-.1 3.7 4.1 7.4 5.8 5.1 6.1 7.1.9 6.3-2.1-.4-4.9-1.5-6.3-2.6-1.4-1.1-3.5-2.4-4.7-2.9-2.4-1-2.9-2.6-1.4-4.9.8-1.2 1.2-1.2 2.5-.2 2.4 2 3.7.4 3-3.5-.3-1.8-.3-4.2.1-5.1.7-1.7.8-1.6 1.5.2.5 1.1.6 3.5.3 5.3zm-11.5 3c.2.7-.3 1.2-1.2 1.2-.9 0-1.6-.7-1.6-1.6 0-1.7 2.2-1.4 2.8.4zm78.7 1.4c1.9 1.7 3.5 3.9 3.5 5 0 1.5.8 1.8 4.9 1.8 2.8 0 5.3.4 5.6 1 .3.5 1.9 1 3.4 1s3.1.3 3.4.7c1.2 1.1-1.4 3.3-3.9 3.3-3.2 0-3.8 1.5-1.8 4.5 1.7 2.6 4.3 3.2 6.1 1.4 3.1-3.1 8.7 6 9.5 15.8.6 6-.6 6.7-4.9 3.3-1.4-1.1-3.5-2-4.6-2-1.6 0-1.8.4-1.3 2.7 1.7 6.7 1.7 8.3.5 10-2.7 3.6-6.9 2-4.8-1.8.9-1.8.6-3.6-1.4-7.8-.9-1.9-.9-2.5.1-2.8 2-.7 1.4-2-1.7-3.3-3-1.2-4.6-3.5-3.5-5.1.9-1.5 3-1 4.9 1.1 2.3 2.6 2.9 2.5 4.3-.4.9-2 .7-2.7-.7-4-1-.9-2.4-1.6-3.2-1.6-.8 0-2.5-.7-3.7-1.6-1.3-.9-2.6-1.3-2.9-1-.4.3-.8 3.1-1.1 6.1-.5 6.5-2.2 7.4-2.2 1.2 0-3.7-.4-4.5-3-6-2.8-1.7-3-1.7-5 .3-1.1 1.1-2.4 2-3 2-1.4 0-1.2-3.8.3-4.3.9-.3.6-1.2-.9-3.3-4.1-5.7-7.6-12.8-6.5-13.2.6-.2 1.1-1.2 1.1-2.3 0-1.4.7-1.9 2.9-1.9 1.7 0 3.3-.5 3.6-1 1-1.6 2.4-1.2 6 2.2zm57.4 1.2c2.9 3.1 2.5 3.6-2.6 4.2-3.2.4-4.3 0-7.2-2.6-3.8-3.3-3.4-4.6 1.4-5.2 3.7-.5 5.3.2 8.4 3.6zm-31.9-2.7c-.1 1.1-2.6 4.3-3.4 4.3-.3 0-.6-1.1-.6-2.5 0-1.8.5-2.5 2-2.5 1.1 0 2 .3 2 .7zm-56.7 4.8c-.8 5 .2 7.8 3.7 9.8 3.5 2.1 3.9 3.7 1 3.7-1.3 0-2-.7-2-2 0-2.3-4.5-3.9-6.3-2.1-1.5 1.5-2.8 1.4-5.5-.7-2.1-1.6-2.2-2.1-1.1-4.5.7-1.5 1.9-2.7 2.8-2.7.9 0 2.7-1.4 4-3 2.8-3.7 4.2-3.1 3.4 1.5zm-84.3 2.7c0 .5-.9.4-2-.2-1.1-.6-2-2-2-3.2 0-2.1 0-2.1 2 .2 1.1 1.3 2 2.7 2 3.2zm15 2.8c0 1.1-.4 2-1 2-.5 0-1-.9-1-2s.5-2 1-2c.6 0 1 .9 1 2zm148.8 2.5c-.3 3.6-.6 4-2.7 3.7-5.8-.6-5.7-8.4.1-8 2.7.2 2.9.5 2.6 4.3zm31.2 5.7c0 2.6-3.5 4.1-6 2.6-2.4-1.5-2.6-4.5-.4-6.9 1.6-1.8 1.8-1.8 4 .4 1.3 1.2 2.4 3 2.4 3.9zM297 872c0 .5-.5 1-1.1 1-.5 0-.7-.5-.4-1 .3-.6.8-1 1.1-1 .2 0 .4.4.4 1zm-16.9 11.2c-.5 2.4-1.3 3.4-2.9 3.6-1.2.2-2.2.8-2.2 1.3s-.8.9-1.7.9c-1.5 0-1.5-.3.4-2.3 1.2-1.2 3.1-3.2 4.3-4.5 2.6-2.9 2.9-2.8 2.1 1zM301 881c.8.5 1.2 1.2.9 1.5-.8.8-3.9-.5-3.9-1.6s1.1-1.1 3 .1zm511 1c0 1.6-.7 2-3 2-2.8 0-3-.2-2-2 .6-1.1 2-2 3-2 1.3 0 2 .7 2 2zm-566.4.2c-.3.7-.9 2.1-1.2 3.1-.9 2.5-2.8 1.5-3.2-1.6-.3-2.3 0-2.7 2.3-2.7 1.8 0 2.5.4 2.1 1.2zm698.2 3.9c.3 2.9-2 5.4-4.3 4.5-1.8-.7-2-6.2-.2-6.9 2.4-1.1 4.2-.1 4.5 2.4zm-155.8.1c0 1.9-.2 2-1 .8-1.3-1.9-1.3-3 0-3 .6 0 1 1 1 2.2zm-565-.3c0 .5-.9 1.9-2 3.2-1.9 2.3-1.9 2.3-2 .3 0-2 1.7-4.4 3.2-4.4.4 0 .8.4.8.9zm75 2.3c0 .7-1.1 2.6-2.4 4.2l-2.3 3-1.2-2.2c-1-1.8-.9-2.2.3-2.2.9 0 2-.9 2.6-2 1.2-2.2 3-2.7 3-.8zm-195.3.4c-.3.3-1.2.4-1.9.1-.8-.3-.5-.6.6-.6 1.1-.1 1.7.2 1.3.5zm702.8 1.4c.3.5.1 1-.4 1-.6 0-1.1-.5-1.1-1 0-.6.2-1 .4-1 .3 0 .8.4 1.1 1zm10.4 2.9c-1.5.5-2.2-.6-1.4-1.9.6-.9 1-.9 1.6.1.5.8.4 1.5-.2 1.8zm-7.9.1c0 .5-.2 1-.4 1-.3 0-.8-.5-1.1-1-.3-.6-.1-1 .4-1 .6 0 1.1.4 1.1 1zm-535 7.5c0 1.3-.5 2.7-1.1 3.1-.6.3-2 2.5-3 4.8-1 2.2-1.9 3.3-1.9 2.3s.6-2.8 1.4-4c.8-1.2 1.7-3.9 2-6 .7-4 2.6-4.2 2.6-.2zm696-.5c0 .5-.5 1-1.1 1-.5 0-.7-.5-.4-1 .3-.6.8-1 1.1-1 .2 0 .4.4.4 1zm-737 2.5c0 .8.9 1.5 2 1.5 1.4 0 2 .7 2 2.4 0 1.9-.4 2.3-2 1.9-1.1-.3-2-1.4-2-2.4 0-1.1-.4-1.9-1-1.9-.5 0-1-.7-1-1.5s.5-1.5 1-1.5c.6 0 1 .7 1 1.5zm29.3 7.2c-.7 3.2-2 8-2.8 10.7-1.9 6.2-2 12.6-.2 12.6 1.5 0 3.7-4.1 3.7-7 0-3 1.7-3.2 3.8-.5 1.1 1.4 2.4 2.5 3 2.5.5 0 1.2.6 1.5 1.4.3.8 1.8 2 3.4 2.8 4.5 2.1 4.7 8.4.5 13.8-.2.3-1-.3-1.7-1.4-.9-1.1-2.2-1.7-3.4-1.3-1.3.3-2.1-.1-2.4-1.4-.3-1.1-.1-2.2.4-2.5 1.3-.8 1.1-4.8-.3-6.2-2.6-2.6-3.8-1.3-3.8 3.8 0 4.8-1.2 6.6-2.3 3.6-.4-1.1-1.6-1.3-4.1-.9-4 .6-4.3.1-2.1-4.9.8-1.9 1.7-7.7 2.1-12.9.4-6.4 1.1-10.2 2.3-11.9 1-1.4 2-3.3 2.4-4.3 1.3-3.6 1.3-1.5 0 4zm534-4c-.7.2-1.9.2-2.5 0-.7-.3-.2-.5 1.2-.5s1.9.2 1.3.5zM195 909.4c0 2.4.7 3.9 2.1 5 1.5 1 2 2.1 1.6 3.6-.9 3.3.1 4.8 2.9 4.2 1.6-.3 2.4 0 2.4.9s-1.1 1.4-3.2 1.3c-3.4-.1-5.4-3.1-4.3-6.5.8-2.5-.7-2.4-2.3.1-1.9 3.1-4.2 2.5-4.2-1.2 0-1.7-.7-3.9-1.6-4.9-1-1.1-1.2-1.9-.5-2.4.6-.3 1.1-.1 1.1.4 0 2.2 3 1 3.6-1.4.9-3.6 2.4-3.1 2.4.9zm736.1-1.1c-.1 1.2-1.5.9-1.9-.4-.3-.6.1-1 .8-.8.6.3 1.1.8 1.1 1.2zm-656.6 6.6c-.9 5.9-1.9 8-2.8 5.6-.4-.9-.2-2.5.4-3.6.6-1.1 1-3 .9-4.2-.3-3.3-.1-3.9 1.1-3.1.7.4.8 2.3.4 5.3zm-57.4-3.4c0 .6-1 1.2-2.3 1.3-1.9.4-2 .2-.9-1.2 1.5-1.7 3.3-1.8 3.2-.1zm66.5 4.3c2.2-.3 3.4 0 3.4.8 0 .7.7 2 1.7 2.9 1.4 1.4 1.4 1.8.2 2.6-.8.5-2.2.9-3.1.9-.9 0-2.2.8-2.8 1.7-1.1 1.7-1.1 1.7-.6 0 .3-1-.3-2.6-1.4-3.7-1.4-1.4-2-3.2-1.9-6.3.2-3.1.3-3.5.6-1.3.4 2.5.8 2.8 3.9 2.4zm673.4 2.8c0 3.8-1.3 3.5-3.2-.7-2.3-5.2-2.3-5.3.7-3.2 1.3 1 2.5 2.7 2.5 3.9zm-663.8-1.4c-.7.7-1.2.8-1.2.2 0-1.4 1.2-2.6 1.9-1.9.2.3-.1 1.1-.7 1.7zm-74.7 3.3c3.6.9 4.1 1.4 4.5 4.5.6 3.5 1 3.7 4.3 2.5 1.5-.6 1.7-.1 1.7 4.1v4.7l-2.2-2c-1.3-1.1-2.9-1.8-3.7-1.6-1.7.7-3.2-1.7-2.5-4 .6-1.8-1.1-2.4-2.1-.7-.3.5-1.3 1-2.2 1-1.2 0-1.4-.7-.9-3.5.5-2.3.3-3.5-.4-3.5-2 0-3.9 2.7-3.4 4.8.3 1.1-.2 3.5-1.2 5.3-1.9 3.7-2.1 4.8-2.7 16.2-.5 8.3.7 10.9 2.6 5.8 1.2-3.3 2.7-4.1 2.7-1.5 0 1.2.7 1.4 3 .9 2.6-.6 3-.4 3 1.5 0 1.2-.7 2.8-1.5 3.6-.8.9-1.5 2.7-1.5 4.1 0 2.1-.3 2.4-2.2 1.9-1.3-.3-3.2-.6-4.4-.6-1.6 0-2.2-.9-3-4.2-.8-4-1.2-4.3-4.7-4.9-3.1-.5-7.3-2.1-9.6-3.6-.2-.1.1-.9.8-1.7 1.3-1.6 1.5-5.5.6-10.6l-.7-3.5 1.8 2.5c1 1.3 1.8 3.2 1.9 4.2 0 2.4 2 2.2 2-.2.1-3.3 2.1-4.6 3.4-2.1 1 1.8 1.5 1.9 3.2 1 1.7-.9 2-1.8 1.6-4.7-.2-2.2.3-5.7 1.4-8.7 1.1-2.8 1.9-6 1.9-7.2 0-2.5 2-3.6 3.5-1.9.6.6 2.8 1.6 5 2.1zm11.8 3.6c-.3 1.2-.9 1.7-1.5 1.1-1-1 0-4.4 1.2-3.7.5.3.6 1.4.3 2.6zm393-1.3c2 .2 3.7.8 3.7 1.2 0 1-2.6 2-5.2 2-1.4 0-1.8.5-1.4 1.5.3.8.1 1.5-.4 1.5-.6 0-1-.7-1-1.5s-.6-1.5-1.4-1.5c-1.6 0-2.9-2.7-2-4.2.3-.5 1.3-.6 2.3-.2.9.4 3.3.9 5.4 1.2zm299.7 1.1c1.6 3 1.2 3.6-1 1.6-2.1-1.9-2.6-3.5-1-3.5.5 0 1.4.9 2 1.9zm-646.3 4.3c-.3.8-.6.5-.6-.6-.1-1.1.2-1.7.5-1.3.3.3.4 1.2.1 1.9zm635.8 3.8c.4.6-.6 1-2.2 1-2.2 0-2.5-.2-1.3-1 1.9-1.2 2.7-1.2 3.5 0zM301 933.6c0 .8-.5 1.2-1 .9-.6-.4-.8-1.1-.5-1.6.9-1.4 1.5-1.1 1.5.7zm-4.8 2.6c-.2 1.8-1.1 4.1-2 5.1-1.4 1.6-1.7 1.6-2.5.2-.5-1-1.6-1.4-2.8-1-1.5.5-1.9.1-1.9-1.8 0-3.2.9-3.9 2.8-2.1 1.3 1.4 1.8 1.3 4.1-1 1.4-1.4 2.6-2.6 2.7-2.6 0 0-.1 1.5-.4 3.2zM684 934c0 .5-.4 1-1 1-.5 0-1-.5-1-1 0-.6.5-1 1-1 .6 0 1 .4 1 1zm-502.3 2.2c-.3.8-.6.5-.6-.6-.1-1.1.2-1.7.5-1.3.3.3.4 1.2.1 1.9zm33.8.8c-.3.5-1 1-1.6 1-.5 0-.9-.5-.9-1 0-.6.7-1 1.6-1 .8 0 1.2.4.9 1zm467.5 1c0 1.1 0 2.3.1 2.7 0 .4-.4.9-.9 1.1-1.3.4-2.3-2.4-1.6-4.3.9-2.2 2.4-1.8 2.4.5zm249.8-.2c2.1 1.4.3 4.4-2.2 3.6-2.8-.9-2.9-1.1-2.3-2.9.7-1.6 2.5-1.9 4.5-.7zM222 940.4c0 .8-.4 1.8-1 2.1-.5.3-1 1.7-1 3s-.4 2.7-1 3c-1.3.8-1.3-5.1 0-7.6 1.2-2.2 3-2.5 3-.5zm59 2.2c0 1.4-.4 2.2-1 1.9-.5-.3-1-1.7-1-3.1 0-1.4.4-2.2 1-1.9.6.3 1 1.7 1 3.1zm-52 .9c0 .5-.5.3-1-.5s-1-2-1-2.5c0-.6.5-.3 1 .5s1 1.9 1 2.5zm460.5 1.3c-.3.3-1.1 0-1.8-.7-.9-1-.8-1.1.6-.5 1 .3 1.5.9 1.2 1.2zm131.5.2c0 .5-.2 1-.4 1-.3 0-.8-.5-1.1-1-.3-.6-.1-1 .4-1 .6 0 1.1.4 1.1 1zm-554 5.5c0 1.4-.4 2.5-1 2.5-.5 0-1-1.1-1-2.5s.5-2.5 1-2.5c.6 0 1 1.1 1 2.5zm570.7.7c-.3.7-.5.2-.5-1.2s.2-1.9.5-1.3c.2.7.2 1.9 0 2.5zm-598.3.4c.4.9.4 1.9.2 2.1-.8.8-2.6-.8-2.6-2.3 0-1.9 1.6-1.8 2.4.2zm71.2 3.8c-.8 3-1.5 4.3-1.9 3.3-.7-1.8.1-5.6 1.6-7.5 1.6-2 1.6-1.1.3 4.2zm518.6-1.9c.2 1.9.1 3.5-.2 3.5-1.2 0-2.9-4-2.4-5.5 1-2.6 2.2-1.7 2.6 2zm-536.5-.3c-.3.8-.6.5-.6-.6-.1-1.1.2-1.7.5-1.3.3.3.4 1.2.1 1.9zm-34.7 4.9c0 .5-.4.9-1 .9-.5 0-1-.7-1-1.6 0-.8.5-1.2 1-.9.6.3 1 1 1 1.6zm33.6.1c-.3 1.3-.8 4.4-1.1 7-.3 2.7-.9 4.8-1.3 4.8-1.4 0-.7-9.5.8-11.8.8-1.2 1.6-2.2 1.8-2.2.1 0 0 1-.2 2.2zm-27.6 3.9c0 1-.4 2-.9 2.3-1 .7-2.1-1.7-2.1-4.6 0-1.7.3-1.8 1.5-.8.8.7 1.5 2.1 1.5 3.1zm38.9 3.6c.1 1.3-.3 2.3-.9 2.3-.5 0-1-2.1-.9-4.8.1-3.8.2-4.2.9-2.2.4 1.4.8 3.5.9 4.7zm24.3-4.5c-.7.7-1.2.8-1.2.2 0-.6.3-1.4.7-1.7.3-.4.9-.5 1.2-.2.2.3-.1 1.1-.7 1.7zm-29.2-.7c0 .4-.7 2-1.6 3.7-.9 1.7-1.4 4.1-1.1 5.4.3 1.6 0 2.4-.9 2.4-2.3 0-2.1-6 .3-9.7 1.4-2.1 3.3-3.1 3.3-1.8zm400 .8c0 .8-.7 1.4-1.5 1.4s-1.5-.6-1.5-1.4c0-.7.7-1.3 1.5-1.3s1.5.6 1.5 1.3zm-546 .7c0 .5-.4 1-1 1-.5 0-1-.5-1-1 0-.6.5-1 1-1 .6 0 1 .4 1 1zm156.6 3.5c-.7 3.7-2.8 4.4-3.4 1.1-.4-1.7 2.7-6.1 3.6-5.2.2.3.1 2.1-.2 4.1zm-78.8.2c-.4 2.2-2.2 2-2.6-.1-.2-1 .3-1.6 1.3-1.6s1.5.7 1.3 1.7zm-22.4.8c.4 1-.1 1.5-1.4 1.5-1.3 0-1.8-.5-1.4-1.5.4-.8 1-1.5 1.4-1.5.4 0 1 .7 1.4 1.5zm632.3 4.7c-.3.7-.5.2-.5-1.2s.2-1.9.5-1.3c.2.7.2 1.9 0 2.5zm100.8-2.2c.3.6.3 2 0 3.1-.6 1.7-.9 1.9-1.6.8-1.2-1.9-1.1-4.9 0-4.9.6 0 1.3.5 1.6 1zM185 970.5c.9 1.1 2.2 1.4 4.2 1 2-.5 2.8-.3 2.8.8 0 .7 1.4 2.6 3.1 4.1 2.3 2.1 2.9 3.4 2.5 4.9-.3 1.2-.6 3.1-.6 4.2-.1 1.8-.2 1.7-1.5-.5-.8-1.4-1.4-3.5-1.5-4.8 0-1.6-.6-2.2-2.4-2.2-5.1 0-8.5-1.2-9.1-3.4-.4-1.1-.9-2.9-1.1-3.9-.7-2.2 1.9-2.3 3.6-.2zm27 .5c0 .5-.4 1-1 1-.5 0-1-.5-1-1 0-.6.5-1 1-1 .6 0 1 .4 1 1zm64.3 4c.4 1.5 0 2-1.4 2-2.2 0-3.4-2.2-2.5-4.6.8-2 3.1-.4 3.9 2.6zm11.7-3.1c0 .6-.4 1.3-1 1.6-.5.3-1-.1-1-.9 0-.9.5-1.6 1-1.6.6 0 1 .4 1 .9zm-61 3.8c0 3.4-.1 3.6-1.6 2.1-1.3-1.3-1.4-1.9-.2-3.7.7-1.1 1.4-2.1 1.5-2.1.2 0 .3 1.7.3 3.7zm-24 1.9c0 2.7-2.1 3.2-3.9 1-.9-1.1-.9-1.9.1-3.5 1.5-2.5 3.8-1 3.8 2.5zm-35.5.2c-.6 1.6-.7 1.6-1.7-.2-.8-1.4-.7-2.1.3-2.7 1.7-1 2.4.4 1.4 2.9zm82-1.7c.5.8-.9 6-2 7.7-.2.2-1.8-.5-3.8-1.4-3.2-1.5-3.4-1.9-2.5-4 .6-1.3 2.2-2.5 3.7-2.7 1.4-.2 2.9-.5 3.3-.6.4 0 1 .4 1.3 1zm17.5-.2c0 .6-.4 1.3-1 1.6-.5.3-1-.1-1-.9 0-.9.5-1.6 1-1.6.6 0 1 .4 1 .9zm85 3.2c0 4.5-1.5 4.5-2.2-.1-.4-2.5 0-3.3 2-3.9.1-.1.2 1.7.2 4zm4.8 1c-.8 4.6-.7 5.4 1.3 7.5 2.4 2.6 2 3-1.2 1.4-2.9-1.6-2.8-14 .1-14 .4 0 .3 2.3-.2 5.1zM177 977.7c0 1-.3 3.4-.6 5.4-.6 3.6-.7 3.6-4.1 2.9-1.9-.5-3.7-1.1-4-1.4-.8-.8 5.9-8.4 7.5-8.5.6-.1 1.2.7 1.2 1.6zm55.6 3c-1.1 1.1-1.9-.6-1.1-2.4.8-1.7.8-1.7 1.2 0 .3 1 .2 2.1-.1 2.4zm47 4.1c-1.1 1-1.4-.3-.7-3.8l.6-3.5.3 3.3c.2 1.9.1 3.6-.2 4zm-95-.3c-.3.8-1 1.5-1.6 1.5-1.4 0-1.2-3.7.3-4.3 1.5-.5 2.1.8 1.3 2.8zM287 982c0 .5-.4 1-1 1-.5 0-1-.5-1-1 0-.6.5-1 1-1 .6 0 1 .4 1 1zm33 0c0 .6 1.1 1.5 2.4 2 2.3.9 3.9 5 2.9 7.7-.9 2.3-2.2 1.4-2.9-2.2-.3-2-1.2-3.5-2-3.5s-1.4.4-1.4 1c0 .5-.7 1-1.5 1-1.2 0-1.4-.7-.9-2.8.4-1.5.9-3 1.1-3.5.6-1.1 2.3-.9 2.3.3zm-55.3 2.2c-.3.8-.6.5-.6-.6-.1-1.1.2-1.7.5-1.3.3.3.4 1.2.1 1.9zm47.7 0c.9 3.5.7 7.6-.4 8.3-.6.4-1-.7-1-2.7 0-1.8-.4-4-.9-4.8-.6-.8-.7-1.8-.5-2.2.9-1.5 2.2-.8 2.8 1.4zm-163.4-.8c0 .3-.4.8-1 1.1-.5.3-1 .1-1-.4 0-.6.5-1.1 1-1.1.6 0 1 .2 1 .4zm17.7 4.2c-.3.3-1.2.4-1.9.1-.8-.3-.5-.6.6-.6 1.1-.1 1.7.2 1.3.5zm-24.2 2.4c.4 1.1 1 1.8 1.5 1.5.5-.3 1.1-.1 1.5.5.9 1.4-4.3 3.6-5.6 2.3-1.1-1.1-.2-6.3 1.1-6.3.5 0 1.2.9 1.5 2zm64.1 1.7c-1 1-1.9-.5-1-1.8.6-1.1.8-1.1 1.2 0 .2.7.1 1.5-.2 1.8zm122.4-1.1c0 .8-.4 1.2-1 .9-.5-.3-1-1-1-1.6 0-.5.5-.9 1-.9.6 0 1 .7 1 1.6zm-65 .6c0 .7-.4 1.9-.9 2.7-1.1 1.7-2.3-.1-1.5-2.3.7-1.9 2.4-2.1 2.4-.4zm7.8.5c-.5 2.6-3.8 2.9-3.8.4 0-1.5.6-2.1 2.1-2.1 1.4 0 1.9.5 1.7 1.7zm70 3.2c-1.2.4-2.9-2-2.1-3.2.3-.4 1.1 0 1.8 1 .9 1.2 1 1.9.3 2.2zM624 992c0 .5-.2 1-.4 1-.3 0-.8-.5-1.1-1-.3-.6-.1-1 .4-1 .6 0 1.1.4 1.1 1zm-289.4 8.5c2-.2 4.5-1.2 5.6-2.1 1.6-1.6 2.1-1.6 2.8-.4 1.1 1.7.3 4.8-1.6 6.7-.7.7-1.5 2.6-1.9 4.3-.5 2.3-1.2 3-3.1 3-2.1 0-2.4.5-2.4 3.3 0 3.4-2.9 8.9-3 5.6 0-2.8-2.4-4.1-4.6-2.4-2.8 2.1-3.5 1.8-2.8-1.3 1-4.1 2.4-5.5 4.1-4 1.1.9 1.7.8 2.9-.4 1.4-1.4 1.3-1.7-.9-3.4-1.6-1.3-2.3-2.8-2.1-4.4.1-1.4.3-4.8.4-7.5l.2-5 1.4 4.1c1.4 4 1.7 4.2 5 3.9zm539.9-.5c.3.5.1 1-.4 1-.6 0-1.1-.5-1.1-1 0-.6.2-1 .4-1 .3 0 .8.4 1.1 1zm-656.5 2c0 1.1-.4 2-1 2-.5 0-1-.9-1-2s.5-2 1-2c.6 0 1 .9 1 2zm-66 2.2c0 1.8-.2 2-.9.8-.6-.8-.7-1.8-.5-2.2.9-1.4 1.4-.9 1.4 1.4zm199.7 2.5c-.3 1-.5.2-.5-1.7s.2-2.7.5-1.8c.2 1 .2 2.6 0 3.5zm-30.1 2.1c-1.8 1.6-1.9 1.6-1.2-.1.3-1 .6-2.4.6-3 0-.8.4-.7 1.2.1 1 .9.8 1.6-.6 3zm-209.2 1.4c1.4 6.7 1.2 9.2-.8 9.6-3 .6-3.6-1.1-2.2-6.5.8-2.9 1.1-5.4.8-5.7-.3-.3-.1-.6.5-.6s1.4 1.5 1.7 3.2zm196.6-.1c0 1-.4 1.9-.9 1.9-1.2 0-2.3-2.9-1.5-4.1.8-1.4 2.4 0 2.4 2.2zm-150.3 1.1c-.3.7-.5.2-.5-1.2s.2-1.9.5-1.3c.2.7.2 1.9 0 2.5zM107 1014c0 1.1-.4 2-1 2-.5 0-1-.9-1-2s.5-2 1-2c.6 0 1 .9 1 2zm244.9 8.6c-1.8 4.3-2.4.5-.7-4.4 1.2-3.4 1.3-3.5 1.6-1.1.2 1.4-.2 3.8-.9 5.5zm-230.3-4.9c.8 1.1 1.3 1.3 1.4.5 0-2.2 2.8-1.2 3.4 1.3.5 2.1 1 2.4 3.6 1.8 1.8-.3 3.6 0 4.5.7 1.4 1.2 1.4 1.5-.1 3.1-1.1 1.3-2.5 1.7-4 1.3-1.5-.4-2.4-.2-2.4.5 0 1.9 3.9 5.1 5.5 4.5 1.2-.5 1.5.3 1.5 4.4 0 2.8-.4 5.4-1 5.7-.6.4-1-.7-1-2.5 0-3.4-2.6-5-8.4-5-1.9 0-3.9-.7-4.6-1.5-.7-.8-1.7-1.2-2.3-.8-.6.4-.7-.4-.3-2.3.4-1.6 1-5.3 1.3-8.2.6-5.7.9-6.1 2.9-3.5zm216.7 10.5c-.9 2.7-2.1 4.8-2.5 4.8-1.1 0-1-8.8.1-9.5.5-.3 1.3-2 1.7-3.8l.7-3.2.8 3.5c.6 2.4.3 4.9-.8 8.2zm94-9.7c-.3.9-.8 1.4-1 1.1-.3-.3-.2-.9.2-1.5.9-1.6 1.5-1.3.8.4zm-111.7.6c.3.6.2 1.5-.4 2.1-.6.6-1.1.2-1.5-1.1-.5-2.2.7-2.9 1.9-1zm-217.6 2.5c0 .9-.5 1.4-1.2 1.2-1.8-.6-2.1-2.8-.4-2.8.9 0 1.6.7 1.6 1.6zm119 .7c0 1.3-.7 3.2-1.5 4.3-1.4 1.8-1.4 1.8-1.5-.8 0-3.2.9-5.8 2.1-5.8.5 0 .9 1 .9 2.3zm75 5.2c0 .8-.7 1.5-1.5 1.5-.9 0-1.2-.6-.9-1.5.4-.8 1-1.5 1.5-1.5s.9.7.9 1.5zm50.6 5.2c-1 1-1.9-.5-1-1.8.6-1.1.8-1.1 1.2 0 .2.7.1 1.5-.2 1.8zm-4.6 1.3c0 .5-.2 1-.4 1-.3 0-.8-.5-1.1-1-.3-.6-.1-1 .4-1 .6 0 1.1.4 1.1 1zm-10.5 11.8c-1.3 1.3-2.3-2.2-1.2-4 1.1-1.7 1.2-1.7 1.5.8.2 1.4.1 2.9-.3 3.2zm-291.8 1.4c-.3.7-.5.2-.5-1.2s.2-1.9.5-1.3c.2.7.2 1.9 0 2.5zm878.6.2c.6 1.5-1.9 3-3.4 2-.5-.3-.9-1.2-.9-2 0-1.8 3.6-1.8 4.3 0zm-75.1 5.8c-.9.9-1.5.9-2.4 0-.9-.9-.7-1.2 1.2-1.2s2.1.3 1.2 1.2zm41.4 2c.3.5.3 2.1-.1 3.5l-.6 2.5-2.4-2.8c-2.6-3-2.9-3.7-1.9-4.6.7-.8 4.3.2 5 1.4zm-731.2.3c.7 1.8-1.6 3-4.1 2.1-1.4-.6-1.4-.8.3-2.1 2.4-1.8 3.1-1.8 3.8 0zm18.4 11.8c1.7 1.4 1.6 7.7-.2 7.7-3 0-6.9-7.3-5-9.3.7-.6 3.3.1 5.2 1.6zm248.7 1.6c.3.5.1 1.2-.5 1.6-.5.3-1-.1-1-.9 0-1.8.6-2.1 1.5-.7zm-227.3 8.7c4.1 4.4 3.5 6.8-2 7.2-4.2.3-4.2.3-4.2-3.1 0-1.9-.7-4-1.5-4.7-1.4-1.2-1.4-1.5 0-3 .8-.9 1.5-2.3 1.5-3.1 0-.7.7-.2 1.7 1.1.9 1.4 2.9 3.9 4.5 5.6zm709.2-5.1c.3.8 1.6 1.5 2.9 1.5 1.7 0 3.2 1.3 5.6 5 2.8 4.3 3 5.2 2 7.2l-1.2 2.2-1.9-2.3c-1.1-1.5-1.6-3.1-1.2-4.4.6-1.8.3-1.9-2.9-1.3-3.1.6-3.8.3-5.2-1.7-1.7-2.7-1.7-7.7.1-7.7.7 0 1.4.7 1.8 1.5zm-720.8 1.4c-2.5 2.7-5.6 3.4-5.6 1.2 0-2.5.9-3.1 4.3-3.1 2.9 0 2.9.1 1.3 1.9zm693.1 4.7c.4 1 0 2-1 2.6-1 .5-1.7 1.5-1.7 2.2 0 .8-1 1.1-3 .8-5.8-.8-2.7-6.1 4.3-7.1.4 0 1 .6 1.4 1.5zm18.5.1c1 .9 1.8 2.3 1.8 3.1 0 1.2-.3 1.2-2.4-.1-1.5-1-2.7-1.2-3.3-.6-1.2 1.2-4.3.1-4.3-1.6 0-1.2 1.4-1.8 5.4-2.4.5 0 1.8.6 2.8 1.6zm24.6.5c-.4 2.7-2.8 3.6-2.8 1 0-2 .8-3.2 2.2-3.2.5 0 .8 1 .6 2.2zm-474.1 8c-.3.7-.5.2-.5-1.2s.2-1.9.5-1.3c.2.7.2 1.9 0 2.5zm-240.2-1.1c.8 1.3.6 1.5-2.2 2.3-1.9.6-2.3.3-2.3-1.3 0-2.3 3.3-3 4.5-1zm273.5 2.4c0 .8-.4 1.5-1 1.5-.5 0-1-.7-1-1.5s.5-1.5 1-1.5c.6 0 1 .7 1 1.5zm407.3 4.1c-.5 1.3-6.2 2.5-7.6 1.7-.4-.3-.3-1 .2-1.7 1.3-1.6 8-1.5 7.4 0zM871 1095c0 1.2-2.8 2.5-3.6 1.7-.9-.9.6-2.7 2.2-2.7.8 0 1.4.5 1.4 1zm-841.9 4.1 2.2 2.2-2.3 1.7c-1.6 1.2-2.1 2.3-1.6 3.5.4 1.1 0 2.5-1 3.6-1.4 1.5-1.5 2.4-.6 4.3.8 1.8.7 2.7-.6 4-1.1 1.1-1.5 3-1.3 6.3.1 2.7.5 5 .7 5.2 1 1 3.4-2.4 3.4-4.8 0-2.1.9-3.2 4-5 4.3-2.4 4.9-1.7 2.5 2.9-1.3 2.4-1.3 3.2-.1 5.5 1.3 2.6 1.5 2.6 2.5.8.5-1.1.8-2.8.5-3.9-.2-1 0-2.6.6-3.4.8-1.3 1.1-1.3 2.7.2 1.3 1.4 1.4 2 .5 3-1.7 1.7-1.5 3.8.3 3.8.9 0 2.7.7 4 1.6 2 1.3 2.3 1.9 1.4 3.6-.6 1.1-.9 2.8-.6 3.9.3 1-.1 2.3-.9 3-2.1 1.7-1.7 3.7.9 4.1 1.3.2 2.3 1.1 2.4 2.3.3 2.5-3.5 7.2-6.1 7.7-1.6.2-2-.3-2.2-3-.1-1.8-.5-3.6-.8-4-1-.9-2.6 1.9-2.6 4.4 0 1.2-.7 2.4-1.5 2.8-1.8.7-2-1.6-.4-4.6.9-1.7.7-2.4-.9-4.1-1.8-1.7-2.4-1.8-5.3-.8-1.7.6-3.6 1.1-4 1.1-1.7 0-.9-4 1.1-5.2 1.1-.7 2-2.1 2-3.2 0-1.8-.1-1.9-2-.1-1.1 1-2 2.4-2 3 0 .7-1.2 1.5-2.7 1.9-1.6.3-3.8.8-5 1.2-3.2.9-3.1-2.5.2-5.6 2.5-2.3 3.4-6 1.5-6-.5 0-2.6 1.7-4.6 3.7-2.2 2.3-3.2 2.9-2.5 1.6.6-1.2 1.1-3.2 1.1-4.6 0-2.4 2.5-4.3 6.5-4.9 2.8-.4 3.1-4.5.6-7.2-1.2-1.2-1.8-2.5-1.5-2.9.4-.4.2-1.3-.5-2-1.2-1.5-.5-4.7 1-4.7.4 0 1.3-1.9 1.9-4.3 1.4-5.7 4-10.7 5.7-10.7.7 0 2.3 1 3.4 2.1zm434.6 2.1c-.3.8-.6.5-.6-.6-.1-1.1.2-1.7.5-1.3.3.3.4 1.2.1 1.9zm-250.1 3c.9 1.8 2.7 4 4 5.1 1.3 1 3.3 3.6 4.6 5.8 1.7 3 2.7 3.9 4.2 3.5 2.4-.6 7.3 4.3 9.8 9.8 2 4.3 1.7 5.6-1.6 5.6-2.7 0-4.6-1.8-4.6-4.2 0-1-.4-1.8-1-1.8-.5 0-1.9-1.9-3.1-4.2-2.5-4.9-5.6-7.7-8.6-7.8-1.3 0-3.4-1.6-5.3-4-1.7-2.2-3.8-4-4.5-4-2.3 0-3-4.2-.9-5.7 2.9-2.1 5.2-1.5 7 1.9zm693.9 5.4c-1.4 1.5-1.8 1.5-2.6.3-.6-1-.2-1.6 1.4-2 3-.8 3.3-.3 1.2 1.7zm-9.1 5.9c.3.9 0 1.5-.9 1.5-.8 0-1.5-.7-1.5-1.5s.4-1.5.9-1.5 1.1.7 1.5 1.5zm-867.4-.1c0 .2-.7.7-1.6 1-.8.3-1.2.2-.9-.4.6-1 2.5-1.4 2.5-.6zm931.3 3.1c-.4 1.4-4.6 1.2-5-.2-.3-.8.6-1.1 2.4-1 1.5.1 2.7.7 2.6 1.2zm-85.9 2.7c.4 1.7.2 2.8-.4 2.8-.5 0-1-1.4-1-3.2 0-3.6.4-3.5 1.4.4zm4.3 11c-.3.8-.6.5-.6-.6-.1-1.1.2-1.7.5-1.3.3.3.4 1.2.1 1.9zM13 1143c0 .5-.4 1-1 1-.5 0-1-.5-1-1 0-.6.5-1 1-1 .6 0 1 .4 1 1zm-5.7 83c-.3 1.1-.9 2-1.3 2-.5 0-.6-.9-.3-2s.9-2 1.3-2c.5 0 .6.9.3 2zm17.7 13.4c0 .8-.4 1.7-.9 2.1-1.2.7-2.4-1.2-1.6-2.5.9-1.5 2.5-1.2 2.5.4zm952 9.1c-.7.9-1.5 1.3-1.9 1-.3-.3.1-1 .9-1.5 2.1-1.4 2.4-1.2 1 .5zm-952.6.4c1.5.6 1.9 1.9 2.1 6.9.2 5.3-.1 6.4-2.1 8.3-1.9 1.8-2.6 2-3.8 1-1-.9-2-1-3.3-.3-1.2.7-2.4.7-3.6 0-1.1-.5-2.8-.8-3.8-.5-2.3.6-2.1-1 .9-7.6 1.2-2.7 2.2-3.7 3.7-3.5 1.2.2 1.9 1 1.9 2.1-.1 1 .5 1.7 1.7 1.7 1.6 0 1.7-.4.9-2.6-.7-1.7-.7-3.2 0-4.5 1.1-2 2.3-2.2 5.4-1zm6 16.8c1.3 3.6 3.7 7.3 4.9 7.4.7.1 2.1.2 3.2.3 2.2.1 2.5 2.3 1.1 8.6-.5 2.2-.4 3 .2 2.2 1.4-2 4.7-1 5 1.5.2 1.2 1.3 2.4 2.5 2.7 2.9.8 5.9 6.9 5 10.4-.3 1.5-1.4 3.4-2.5 4.3-1 .9-1.8 2.8-1.8 4.3 0 3.1-1.4 3.4-3.3.6-1.4-2-1.4-5.5-.1-10 .7-2.4.7-2.4-1.1-.7-1.2 1.3-2.1 1.5-2.8.8-.6-.6-2.6-1.1-4.4-1.1-3 0-3.3.2-2.3 1.9.6 1.2 2.3 2.1 4.3 2.3 3.9.4 3.9 1.7-.2 3.4-2.8 1.2-3.1 1.1-5.7-2.3-1.5-1.9-2.3-3.8-1.8-4.2.5-.3 1-1.2 1.2-2 .3-1.3-.4-1.3-6.9.1-.9.2-1.5-.7-1.7-3-.2-1.9.1-3.2.8-3.2.6 0 1.6-1.3 2.1-2.9.8-2.3 1.5-2.8 3.2-2.3 2.1.5 2.1.4.5-1.5-1-1.1-1.8-2.4-1.8-3 0-.6-.7-1.6-1.5-2.3-2.1-1.7-1.9-3.7.5-5.7 2.2-1.9 2.6-3.9.9-4.5-1.1-.4-.2-3.8 1.1-3.8.4 0 1.1.8 1.4 1.7zm7.1 1.3c.3.5.1 1-.4 1-.6 0-1.1-.5-1.1-1 0-.6.2-1 .4-1 .3 0 .8.4 1.1 1zM22 1280.7c0 2.9-1.2 6.3-2.1 6.3-1.2 0-2.3-4.6-1.5-6.5.8-2.1 3.6-1.9 3.6.2zm31.2 29.8c-.2 1.4-.6 2.5-.8 2.5-.2 0-.4-1.1-.4-2.5s.4-2.5.9-2.5c.4 0 .6 1.1.3 2.5zm12 3.3c.5 1.9-2.3 6.2-4 6.2-.5 0-1.5-.7-2.2-1.5-1.1-1.3-.9-2 1-4 2.8-3 4.6-3.2 5.2-.7zm-8.9 4.6c2.4 1.8 1.4 6.8-1.1 5.9-2.2-.9-3.2-2.3-3.2-5.1 0-2.5 1.6-2.8 4.3-.8zm17.1 13.5c-.7.8-3.3-3.3-2.7-4.3.3-.5 1.2.2 1.9 1.5s1 2.6.8 2.8zm250.3 71.8c-.3 1-.5.4-.5-1.2 0-1.7.2-2.4.5-1.8.2.7.2 2.1 0 3zm39.3 24.8c0 1.4-.4 2.5-1 2.5-.5 0-1-1.1-1-2.5s.5-2.5 1-2.5c.6 0 1 1.1 1 2.5zm21.2 8.5c-.1 1.3-1.1 3.4-2.2 4.5-1.1 1.2-2 2.7-2 3.3 0 .7-.4 1.2-.9 1.2-1.7 0-2.2-1.8-1.2-4.2.5-1.3 1.2-3.6 1.6-5.1.4-2.2 1.1-2.8 2.8-2.5 1.7.2 2.1.9 1.9 2.8z"/><path d="M506.7 590.7c-1.1 1-.8 5.3.3 5.3.6 0 1-1.4 1-3 0-3.1-.2-3.5-1.3-2.3zM724.8 786c.5 3.6 3.2 4.1 3.2.6 0-1.9-1.6-3.6-3.4-3.6-.1 0-.1 1.3.2 3zM716 790c0 .5 1.1 1 2.5 1s2.5-.5 2.5-1c0-.6-1.1-1-2.5-1s-2.5.4-2.5 1zM712 794c1.3 2.4 3.5 2.6 4.4.4.3-.9.6-1.7.6-1.8 0-.1-1.4-.3-3-.4-2.8-.2-3-.1-2 1.8zM748.5 805c-.3.5-1.7 1-3 1-3.1 0-5.6 1-5 2 .3.5-.6 1.7-2 2.8-2 1.6-2.2 2.2-1.1 3.1 2.8 2.3 7.4 2.4 10.2.2 1.5-1.1 3.2-2.1 3.8-2.1.6 0 1.7-.9 2.4-2.1 1.1-1.8 1.1-2.4-.4-4-1.9-2.1-3.9-2.5-4.9-.9zM882 869.7c0 3.2 1.5 4.5 4.3 3.7 2.8-.6 3.1-1.2 2.1-3.8-.9-2.3-6.4-2.2-6.4.1zM201.6 944.5c.4.8 1.2 1.5 2 1.5s1.4-.7 1.4-1.5-.9-1.5-2-1.5c-1.3 0-1.8.5-1.4 1.5zM122 1024c0 .5.5 1 1 1 .6 0 1-.5 1-1 0-.6-.4-1-1-1-.5 0-1 .4-1 1zM30.3 1126.7c-1.5.5-1.8 3.3-.4 3.3.8 0 2.5-3 1.9-3.5-.2-.1-.9 0-1.5.2zM448.2 97.2c4.1 1.7 5 1.9 6.4.7 1.5-1.2 1.4-1.4-.7-2-1.3-.4-4.2-.7-6.4-.8h-4l4.7 2.1zM428.8 104.7c.6.2 1.8.2 2.5 0 .6-.3.1-.5-1.3-.5-1.4 0-1.9.2-1.2.5zM398.4 110.1c-2.3 1.1-5 2.9-5.9 4-1.7 1.8-1.7 1.9.5 1.9 1.3 0 3.2-.8 4.2-1.7 1-.9 2.8-1.8 3.9-2 1.1-.2 2.7-.9 3.5-1.7 1.1-1.2 1.1-1.5-.2-2-2-.8-1.2-.9-6 1.5zM548 117.1c0 .5.5.7 1 .4.6-.3 1-.8 1-1.1 0-.2-.4-.4-1-.4-.5 0-1 .5-1 1.1zM591.2 125.2c-1.4 1.4-1.6 3.5-.3 4.2.5.3 1.4-.8 2-2.4 1-3.1.4-3.9-1.7-1.8zM383.1 141.1c-5.1 3.1-2.6 4.3 3.9 1.8 7.3-2.7 8.3-3.9 3.5-3.9-2.3 0-5.5.9-7.4 2.1zM629.3 153.5c-1.1 2.5-1 2.5 3.3 2.5 4.7 0 5.4-.9 2.8-3.4-2.3-2.3-4.7-1.9-6.1.9zM359.3 158.7c-.7.2-1.3 1.1-1.3 1.9 0 1.7.2 1.7 3.5.2 1.8-.8 2.2-1.4 1.3-2-1.4-.9-1.7-.9-3.5-.1zM636 159c0 .6.7 1 1.5 1s1.5-.2 1.5-.4-.7-.6-1.5-1c-.8-.3-1.5-.1-1.5.4zM338.9 161.6c-1.2 1.4-1.1 1.6.5 1.3 1.1-.2 2.1-1 2.4-1.7.5-1.7-1.3-1.5-2.9.4zM345.2 171.2c-2 2-1.4 3 1.5 2.6 3.2-.4 4.6-3.8 1.6-3.8-1.1 0-2.4.5-3.1 1.2zM731.5 188c-.7 1.1.5 4 1.6 4 .5 0 .9-.2.9-.4s.3-1.1.6-1.9c.6-1.6-2.2-3.2-3.1-1.7zM304.9 192.9c-3.4 2.8-1.8 3.6 2.5 1.3 2.8-1.5 3.3-2.1 2-2.6-2.1-.8-1.9-.9-4.5 1.3zM262.3 225.4c-1.8.8-3.3 1.8-3.3 2.2 0 .4.3.5.6.1.3-.3 1.6-.2 2.9.3 2.1.8 16.2-.4 17.3-1.5 1-1-.4-1.3-7.3-1.9-5.1-.5-7.9-.2-10.2.8zM751 226.5c-.7.9-1 1.8-.7 2.2.8.7 3.7-1.5 3.7-2.8 0-1.4-1.6-1.1-3 .6zM782.5 272c-.3.5.3 1 1.4 1 1.2 0 2.1-.5 2.1-1 0-.6-.6-1-1.4-1-.8 0-1.8.4-2.1 1zM275 297.6c-4.4 3.5-6.3 6.5-7.4 11.6-.4 1.6-1.2 2.8-1.9 2.8-1.3 0-4.1 3.9-3.4 4.6.9.9 5.7-.8 5.7-2.1 0-2.7 4.1-6.5 7.1-6.5 2.2 0 2.9-.5 2.9-1.9 0-1.1-.6-2.2-1.2-2.4-.8-.4-.7-.6.3-.6.9-.1 3.5-.9 5.8-1.9 3.8-1.8 4-2 2.4-3.4-4.4-3.8-5.7-3.9-10.3-.2zM253.4 318.9c-1.8 1.1-3.5 2.4-3.8 3-.4.6-1.8 1.1-3.1 1.1-1.5 0-3.1 1-4 2.3-.8 1.3-3.4 3-5.6 3.7-2.3.8-4.8 2.5-5.7 3.9-.9 1.5-3 3.9-4.5 5.6-4.2 4.4-6 9-5.2 13.6.4 2.2.9 3.9 1.1 3.9.8 0 4.9-2.5 5.5-3.3.3-.5 1.2-.9 2-1 2.9-.5 3.9-1.9 4.5-6.6.7-5.7 2-8.2 3.2-6.4 1 1.5 6.1 3.5 7.3 2.7.5-.3.9-1.3.9-2.3 0-1 .3-2.1.8-2.5.4-.4 1.2-3.1 1.7-5.9.9-4.6 1.4-5.3 4.3-6.3 4.1-1.3 6.6-3.8 5.9-5.8-.8-2.1-1.5-2-5.3.3zM428.8 319.7c.6.2 1.8.2 2.5 0 .6-.3.1-.5-1.3-.5-1.4 0-1.9.2-1.2.5zM359.5 334.8c-.3.3-.5 1.5-.5 2.6 0 1.2-.7 3.3-1.4 4.8-1.4 2.6-1.3 2.8.5 2.8 1 0 1.9-.6 1.9-1.4 0-.8.9-1.7 1.9-2.1 1-.3 2.1-1.3 2.4-2.3l1.1-3.3c.5-1.2 0-1.6-2.4-1.6-1.6 0-3.2.3-3.5.5zM373.7 335.6c-.4.4-.7 1.6-.7 2.6s-.5 1.8-1.1 1.8c-2.2 0-3.9 3-3.9 7.1 0 3.4-.2 3.9-1.4 3-.8-.7-1.7-2.4-2.1-3.9l-.7-2.7-1.9 2.4c-1 1.2-1.6 2.7-1.3 3.2.3.5-.4 2.4-1.5 4.3-1.2 1.8-2.1 4.1-2.1 5.1 0 1.7 2.2 1.7 10.1.2 2.4-.5 4.5-2.8 5.3-6.1.4-1.6 3-5 5.8-7.6 3.8-3.5 4.9-5.2 4.6-7.1-.2-2-.9-2.4-4.3-2.7-2.3-.2-4.4 0-4.8.4zM238 359.9c0 .6.5 1.3 1 1.6.6.3 1-.1 1-.9 0-.9-.4-1.6-1-1.6-.5 0-1 .4-1 .9zM242.5 371c-.4.6-.1 1 .4 1 .6 0 1.1.9 1.1 2s.5 2 1 2c1.6 0 1.2-4.7-.5-5.3-.8-.4-1.7-.2-2 .3zM845.7 399.7c-.3.5-.1 1.9.4 3.2 1.2 3.1 3.4 1.3 2.4-1.8-.6-2.1-2-2.8-2.8-1.4zM372 406.5c0 1.5.3 1.6.9.7.7-1.1 1-1 1.5.3.3.9.6 2.6.6 3.6 0 3.1 5.4 2.2 5.8-.9.2-1.2-.1-2.2-.7-2.2s-1.1-.9-1.1-2c0-1.7-.6-2-3.5-1.8-2.8.2-3.5.6-3.5 2.3zM239.6 413.6c-1.1.8-2.8 1.4-3.7 1.4-1 0-2.1.4-2.4 1-.4.6.7 1 2.7 1 2.3 0 3.7-.7 4.6-2.1 1.7-2.7 1.2-3.1-1.2-1.3zM226.1 418.1l-2.3 3 2.9-.3c1.8-.2 2.9-1 3.1-2.2.7-3.4-1.3-3.7-3.7-.5zM212.7 423.4c-2.4 1.8-1.1 2.4 3.6 1.9 3.9-.5 4.8-1.7 2.1-2.7-2.3-.9-3.7-.7-5.7.8zM206.4 427.5c-1.7 1.3-1.7 1.4-.2 1.5.9 0 2-.5 2.3-1.1 1.1-1.7 0-2-2.1-.4zM355.2 429.9c.9 1.5 2.2 2.1 4.8 2 1.9 0 2.8-.3 2-.6-.8-.3-1.7-.9-2-1.4-.3-.4-1.8-1.1-3.4-1.5-2.6-.6-2.7-.6-1.4 1.5zM226.5 433.6c-2.6 2.1-2.7 2.4-1 2.5 1.1 0 2.8.2 3.8.4 1.2.2 1.7-.3 1.7-2 0-3.4-1.1-3.6-4.5-.9zM217.1 433.4c-.8 1-2.4 1.2-5.1.9-4.4-.6-5.1.6-2.6 4 1.3 1.7 1.6 1.7 4.5.3 1.6-.9 3.8-1.6 4.9-1.6 2.7 0 3.3-.9 1.9-3.1-1.4-2.3-2.1-2.4-3.6-.5zM357.2 439.9c-1 .6-1 1 .2 2.1 1.9 1.5 4.6.6 4.6-1.5 0-1.6-2.7-2-4.8-.6zM413.2 441.2c-1.5 1.5-1.6 2.8-.2 2.8.6 0 1-.6 1-1.4 0-.8.6-1.7 1.3-1.9.6-.3.7-.6.2-.6-.6-.1-1.6.4-2.3 1.1zM695 443c-.8.4-3.4 1.6-5.7 2.5-2.4 1-4.5 2.6-4.8 3.6-.3 1-2.5 3.3-4.8 5.1-5.1 3.9-5.7 4.7-5.7 7.4 0 2-5.9 8.7-6.1 6.8 0-.5-.4.1-.9 1.3-.6 1.3-1.8 2.3-3 2.3-1.6 0-2 .6-2 3.4 0 1.8-.7 3.9-1.5 4.6-.8.7-1.5 1.9-1.5 2.6 0 .8-.6 1.4-1.4 1.4-.8 0-1.8.9-2.1 2-.4 1.1-1.1 1.8-1.6 1.5-1.4-1-2.8 3.7-1.8 6.3.5 1.3.9 3.4.9 4.7 0 1.3 1 3.5 2.3 4.9 2 2.3 2.6 2.5 6 1.7 4.1-1 3.6-1.6 5.3 6.9.6 2.6 2 4 4.2 4 1 0 .9-.4-.2-1.6-1.8-1.8-2.1-3.4-.6-3.4.6 0 1 .6 1 1.4 0 .8.7 1.6 1.5 2 .8.3 1.5 1.2 1.5 2 0 2.1 3 2.8 5.4 1.3 1.7-1.1 3.3-1.2 8.6-.2 3.6.6 7.3 1.5 8.2 1.9.9.4 2.6.2 3.8-.4 2.5-1.3 8-8.7 8-10.7 0-2.9 2.4-.6 3.8 3.5.7 2.3 2 4.2 2.8 4.2.8 0 1.4.4 1.4.9 0 .6 1.5.7 3.4.4 4.3-.7 7.1.9 9.7 5.5 8.7 15.7 9.2 16.1 17.1 16.2 6.7 0 8.1-1.3 3.6-3.5-1.8-.9-4-2.1-4.9-2.8-1.9-1.4-5.2-8.7-4.4-9.5.3-.3.5-.2.5.2s.9.2 2-.4c2.1-1.1 2.7-4.9 1-6.6-.6-.6-1.3-3.5-1.6-6.5-.7-6.3-2.4-10.5-7.1-17.1-3.6-5.3-3.7-5.6-2.3-9.2.8-2.2 1.3-2.4 3.4-1.6 1.4.5 4.4 3 6.8 5.5 2.3 2.5 4.6 4.5 5.1 4.5 1.1 0-.1-9.8-1.5-12.4-.6-1.1-1.3-4.2-1.7-7-.5-4.3-1-5.2-2.8-5.4-2.6-.4-3-2-.8-2.8.8-.4 1.5-1.1 1.5-1.6 0-.6-.6-.8-1.3-.5-.8.3-2-1.3-3.1-4.2-2.7-6.7-3.3-7.1-8.9-7.1-3.1 0-6.7-.8-9.4-2.1-2.9-1.4-6.5-2.1-11.8-2.3-6.5-.2-7.7-.5-9.1-2.4-1.6-2.4-2.1-2.5-4.4-1.2zm38.5 17.8c-.3.3-1.1 0-1.8-.7-.9-1-.8-1.1.6-.5 1 .3 1.5.9 1.2 1.2zM672 480.5c0 .8-.9 1.5-2 1.5s-2-.7-2-1.5.9-1.5 2-1.5 2 .7 2 1.5zm72 .9c0 .3-.4.8-1 1.1-.5.3-1 .1-1-.4 0-.6.5-1.1 1-1.1.6 0 1 .2 1 .4zm-30.3 1.8c6.3 2.8 14.1 9.9 14.3 13.1 0 .4-1.1 1.2-2.4 1.8-2.6 1.2-7.2-.4-6.1-2.1.3-.5-.7-1.2-2.2-1.5-8.2-1.8-16.8-5.2-16.9-6.7-.1-2.2 4.7-5.8 7.7-5.8 1.5 0 4.1.5 5.6 1.2zm-43.7 7.3c-1.3 1.6-6 2.1-6 .6 0-1.2 1.8-1.9 4.9-2 2-.1 2.1.1 1.1 1.4zm29 7.5c0 .5-.4 1-1 1-.5 0-1-.5-1-1 0-.6.5-1 1-1 .6 0 1 .4 1 1zM153 457c0 .5.7 1 1.5 1s1.5-.5 1.5-1c0-.6-.7-1-1.5-1s-1.5.4-1.5 1zM847 493.9c0 1.2.5 2.1 1 2.1.6 0 1-.6 1-1.4 0-.8-.4-1.8-1-2.1-.5-.3-1 .3-1 1.4zM847.6 503.8c-1.6 1.6-.4 8.1 1.9 10.6 1.4 1.5 2.5 3.1 2.5 3.7 0 .5 1 .9 2.1.9 1.8 0 2-.4 1.4-2.3-.3-1.2-1.1-4.1-1.6-6.5-.5-2.4-1.1-4.7-1.4-5.1-.6-1.1-4.2-2-4.9-1.3z"/><path d="M721.5 522.9c-.6.4-3 1.5-5.5 2.3-4.4 1.4-11.9 1.2-29-.7l-5.5-.6 2.4 2c1.3 1.2 3.1 2.1 4 2.1.9 0 3.2 1 5.1 2.2 4.9 3 20.3 2.9 27.4-.1 4.2-1.8 4.7-2.4 4.4-4.8-.3-2.8-1.8-3.9-3.3-2.4zM204 529.1c0 .5.5.7 1 .4.6-.3 1-.8 1-1.1 0-.2-.4-.4-1-.4-.5 0-1 .5-1 1.1zM725.8 532.7c.7.3 1.6.2 1.9-.1.4-.3-.2-.6-1.3-.5-1.1 0-1.4.3-.6.6zM171 537c0 1.1.5 2 1 2 .6 0 1-.9 1-2s-.4-2-1-2c-.5 0-1 .9-1 2zM799.7 542.1c.4 1.3.8 1.8 1.1 1 .2-.7-.1-1.8-.6-2.3-.8-.8-.9-.4-.5 1.3zM803 540.5c0 1.9 2.6 5.5 3.7 5.1.8-.3 1.3.2 1.3 1.4 0 1.1.4 2 .9 2s1.3 1 1.7 2.2c.3 1.2 1.4 2.9 2.2 3.7 1.4 1.4 1.5 1.1 1-2.6-.8-5.4-5.5-12.2-8.5-12.3-1.3 0-2.3.2-2.3.5zM220 545.6c0 1.4.3 1.4 1.5.4.8-.7 1.5-1.4 1.5-1.6 0-.2-.7-.4-1.5-.4s-1.5.7-1.5 1.6zM689 546.2c0 3 2.8 5.8 5.8 5.8 1.2 0 3.9.6 5.9 1.4 3.2 1.2 17 4.6 18.7 4.6.4 0 .6-.7.6-1.5s-1.6-1.9-3.8-2.5c-2.2-.5-5.2-2.1-6.8-3.5-1.6-1.4-3.8-2.5-5-2.5-1.1 0-3.5-.7-5.2-1.6-1.7-.8-4.7-1.8-6.7-2.1-3.2-.5-3.5-.4-3.5 1.9zM205.1 549.4c-1.1 1.3-1.1 2.1.3 5 1.3 2.7 1.4 4 .5 6.6-1.5 4.2-.5 14.6 1.5 16.9.9 1 1.6 3.2 1.6 4.9 0 2 .5 3.1 1.2 2.9.7-.1 1.4.8 1.6 2 .2 1.2 1 2.7 1.8 3.3.8.7 1.4 2.1 1.4 3.1s1 2.4 2.2 3c1.3.7 2.9 1.8 3.6 2.6.7.7 2.4 1.3 3.6 1.3 2.6 0 5.6 2.8 5.6 5.3 0 .9.5 1.9 1 2.2.6.4.8 1.2.4 1.8-.3.7.2.3 1-.7 2-2.5 2-5.2.1-6-.8-.3-1.5-1.7-1.5-3.1 0-1.4-.7-4.2-1.5-6.2-.8-1.9-1.5-4.4-1.5-5.4 0-.9-.6-2.4-1.4-3.2-1.7-1.7-2.1-5.1-1.1-9.5.6-2.4 1.6-3.6 4.1-4.7 1.9-.8 3.4-2 3.4-2.8 0-1.3-4.8-5.4-5.4-4.5-.1.2-.7 1.4-1.2 2.7-1 2.3-1.1 2.3-2.8.6-1.6-1.7-1.6-1.9.3-3.9 2.7-2.9 2.8-8.2.2-9.1-1.1-.3-3.6-1.7-5.6-3.1-4.8-3.2-11.6-4.2-13.4-2zM772.2 550c0 1.4.2 1.9.5 1.2.2-.6.2-1.8 0-2.5-.3-.6-.5-.1-.5 1.3zM63.6 556.7c-2 1-4.6 1.4-8.2 1.1-3.3-.3-5.1-.1-4.7.5.4.6-.4.7-2 .3-3.3-.8-5.7.2-5.7 2.3 0 1-.3 1.2-.8.5-1.4-2.3-5-1.9-8.2.9-2.5 2.3-3.7 2.7-6.1 2.2-2.7-.6-2.9-.5-2.9 2.4s-.3 3.1-3.4 3.1c-4.6 0-6.6.9-5.9 2.6.6 1.7 1 1.7-5.7-.1-8.8-2.3-10-2.1-10 1.9 0 2.4.5 3.6 1.7 3.9 1.7.4 1.7.5.1.6-1.7.1-1.8 4.7-1.8 82.6C0 743.3 0 744 2 744c1.1 0 2 .4 2 1 0 .5 1.1 1 2.5 1 1.8 0 2.5-.5 2.5-2 0-1.4.7-2 2.4-2 1.3 0 2.7-.6 3-1.3.5-1 .7-1 1.2 0 .9 2 2.4 1.5 2.4-.7 0-1.6.7-2 3-2 1.7 0 3 .4 3 1 0 .5.7 1 1.5 1s1.5.4 1.5 1c0 2.3 1.8.8 2.3-2 .5-2.1 1.2-3 2.7-3 1.3 0 2-.7 2-2 0-1.4.7-2 2.3-2 1.2 0 2.9.9 3.7 2 1.2 1.7 2.6 2 8.7 2 4.2 0 7.3-.4 7.3-1s2.1-1 4.6-1c3.8 0 5.1-.5 7.4-3 1.5-1.7 3.5-3 4.4-3 .9 0 1.6-.5 1.6-1 0-.6.8-1 1.8-.8 1.3.2 1.8-.5 2-3 .2-2.3.8-3.2 2.2-3.2 1 0 2-.7 2.4-1.5.3-.8 1.6-1.5 3-1.5s3.1-.6 3.8-1.3c2.4-2.4 5.6-3.7 9.2-3.7 1.9 0 3.6-.4 3.8-1 .2-.5 2.9-1 6.1-1.1 5.7-.2 6.9.3 8 3.5.1.5 1.8.5 3.6.1 2.2-.5 3.1-1.1 2.7-2.1-.3-.9.2-1.4 1.4-1.4 1.1 0 2-.5 2-1 0-.6 1.8-1 4-1s4-.5 4-1c0-.6.7-1 1.5-1s1.7-1.2 2.1-2.8c.9-4.1 1.2-4.9 1.3-3 .1 1.8 2.1 2.4 3.5 1.1.3-.4 1.7-.8 2.9-1 1.2-.2 2.4-.8 2.5-1.3.5-1.3 4.2-1.3 4.2 0 0 .5.9 1 1.9 1 1.1 0 2.3.4 2.6 1 .3.5 3.1 1 6.1 1 3 0 5.4-.5 5.4-1 0-.6 1.8-1 4-1 3.3 0 4 .3 4 2 0 1.1.5 2 1 2 .6 0 1-.5 1-1 0-.6.9-1 2-1 1.5 0 2-.7 2-2.6 0-3.4 2.2-5.4 5.8-5.4 1.7 0 3.7-.3 4.6-.6 2.3-.9 2-2.6-.4-1.9-3 .9-2.5-.2 2-4.5 3.8-3.6 5.2-7 3-7-.5 0-1-.9-1-2s.5-2 1.1-2c1.5 0 .2-7.2-1.5-8.5-1.1-.8-1.1-1.2 0-2.3.7-.6 2.1-1.2 3.1-1.3 1.1 0 1.3-.3.6-.6-.7-.2-1.3-1.1-1.3-1.9 0-.8-.4-1.4-1-1.4-.5 0-1-.9-1-2s-.4-2-1-2c-.5 0-1-.9-1-1.9 0-2.4-3.6-3.7-5.6-2-1.2 1-1.8.9-3.1-.4-1.4-1.3-1.4-2-.3-4.6 1.4-3.6 2.6-3.9 3.5-1.1.4 1.3 1.5 2 3.1 2 2.1 0 2.4-.4 2.4-4 0-2.2.5-4 1-4 .6 0 1-1.8 1-4s-.4-4-1-4c-.5 0-1-1.8-1-4s-.4-4-1-4c-.5 0-1-.7-1-1.5s-.7-1.5-1.6-1.5c-2.5 0-4.4-2.6-4.4-5.9 0-1.7-.4-3.1-1-3.1-.5 0-1-.9-1-2s-.3-2-.7-2c-.9 0-3.3-4.9-3.3-6.7 0-.7-.4-1.3-1-1.3-.5 0-1-2.5-1-5.5 0-4.1-.4-5.5-1.4-5.5-.8 0-1.7.6-1.9 1.2-.3.8-.6.6-.6-.5-.1-.9-.5-1.7-1.1-1.7-.5 0-1-.9-1-2 0-1.3-.7-2-2-2s-2-.7-2-1.9c0-1.5-1-2-5-2.5-3.8-.5-5-1.1-5.1-2.4 0-1-.3-1.2-.6-.5-.6 1.5-9.3 1.8-9.3.3 0-.6-.9-1-2-1s-2-.6-2-1.4c0-.8-.7-1.6-1.5-2-.9-.3-1.5 0-1.5 1 0 2.7-2.7 4.4-6.9 4.4-3.4 0-4.1-.3-4.1-2 0-1.1-.4-2-1-2-1.5 0-1.2-4.7.3-5.3.6-.2-.1-.8-1.7-1.2-2.1-.6-3.1-.4-3.8.8-.7 1.3-2 1.5-6.1 1.1-8.5-.9-9.7-1.3-9.7-3.4 0-1.3-.7-2-2-2-1.2 0-2-.7-2-1.6 0-1.8-2.3-4.4-3.9-4.4-.6 0-1.1.8-1.1 1.8 0 4.5-4.8 5.5-8.6 1.7-2-2-3.5-2.5-7.4-2.5-2.8 0-5-.5-5-1 0-.6-.9-1-2-1s-2-.5-2-1c0-1.6-7.2-1.1-10.4.7zm-29.2 11.2c.3.5-.2 1.1-1.2 1.4-.9.2-2.5.8-3.4 1.2-1.3.5-1.8.2-1.8-.8 0-.9 1-1.8 2.3-2 1.2-.2 2.5-.5 2.9-.6.4 0 .9.3 1.2.8zM20 574.7c0 .7-.9 1.3-2 1.3-1.9 0-2.6-1.1-1.5-2.2 1-1 3.5-.4 3.5.9zM174 609c0 1.9-3.1 2.3-4.8.6-1.5-1.5-1.4-1.6 1.6-1.6 1.8 0 3.2.5 3.2 1zM792 557.9c0 1.1.5 2.3 1 2.6.6.4 1-.5 1-1.9s-.4-2.6-1-2.6c-.5 0-1 .9-1 1.9zM728.2 561.4c.6 1.4 1.6 2.7 2.4 3 .8.3.7-.4-.4-2.5-2-3.5-3.6-3.9-2-.5z"/><path d="M120 566c0 .5.7 1 1.6 1 .8 0 1.2-.5.9-1-.3-.6-1-1-1.6-1-.5 0-.9.4-.9 1zM169.1 566.6c0 1.1.3 1.4.6.6.3-.7.2-1.6-.1-1.9-.3-.4-.6.2-.5 1.3zM239.1 572.8c-.7 1.7-1.9 3.3-2.7 3.6-.8.3-1.4 1.9-1.4 3.6 0 1.6-.4 3-1 3-.5 0-1 .3-1 .7 0 .5 3.1.8 6.8.7 8.6-.1 12.2-2.6 12.2-8.5 0-3.3-.3-3.7-3-4.3-1.6-.3-4.3-.9-5.8-1.2-2.5-.5-3-.2-4.1 2.4zM176 574.5c0 .8.5 1.5 1 1.5.6 0 1-.7 1-1.5s-.4-1.5-1-1.5c-.5 0-1 .7-1 1.5zM233.8 596.7c.7.3 1.6.2 1.9-.1.4-.3-.2-.6-1.3-.5-1.1 0-1.4.3-.6.6zM684 608.3c0 .7.5 1.8 1.1 2.4.5.5 1.1 2.1 1.3 3.4.3 2.5.9 5.1 2.8 12.9 2.1 8.6 10.1 22.3 17.3 29.8 4.2 4.3 5 4.8 6.3 3.6 1.7-1.8 1-5.2-1.8-8.4-1.1-1.3-2-3-2-3.9 0-1.3-4-9.6-10.6-22.2-.8-1.5-3.4-4.8-5.9-7.4-2.4-2.7-5-6.3-5.6-8.2-1-3.3-2.9-4.5-2.9-2zM236.5 611c.3.5 1.3 1 2.1 1s1.4-.5 1.4-1c0-.6-.9-1-2.1-1-1.1 0-1.7.4-1.4 1zM200 621.9c0 2.5.6 2.7 1.3.6.4-.8.2-1.7-.3-2-.6-.4-1 .3-1 1.4zM284.6 622.9c-.4.7-.5 1.5-.2 1.8.9.9 1.9-.4 1.4-1.8-.4-1.1-.6-1.1-1.2 0zM274.6 625.7c-.4.9-.3 2 .1 2.4 1.3 1.3 3.4-.6 2.7-2.4-.8-2.2-2-2.2-2.8 0zM826 629.3c0 1.4 2 3.7 3.2 3.7.4 0 .8-1.1.8-2.5 0-1.8-.5-2.5-2-2.5-1.1 0-2 .6-2 1.3zM272 631.9c0 .5.7 1.5 1.7 2.2 1.5 1.3 1.5 1.2.4-.9-1.2-2.3-2.1-2.8-2.1-1.3zM225.1 640.7c-.7 2.7-1.5 4.2-1.8 3.5-.6-1.4-3.3-1.6-3.3-.2 0 .5-.7 1-1.5 1s-1.5.7-1.5 1.5.5 1.5 1 1.5c.6 0 1 1.4 1 3.1 0 2.6-.3 3.1-2 2.6-1.6-.4-2 0-2 1.8 0 4.8 1.3 8.5 2.9 8.5.9 0 2.3.9 3.1 2 .8 1.1 2.2 2 3.2 2s1.8.4 1.8 1c0 .5.7 1 1.5 1s1.5.4 1.5 1c0 .5.7 1 1.5 1s1.5.4 1.5 1c0 .5.6 1 1.4 1 .8 0 1.6.7 2 1.5.3.8 1.4 1.5 2.5 1.5 1.4 0 1.8-.5 1.5-2.3-.2-1.2-.2-1.8.1-1.2.6 1.2 10.5.7 10.5-.5 0-2 8.7-3.3 10.8-1.7.8.6 1.2.6 1.2-.2 0-.6.9-1.1 2-1.1 1.3 0 2-.7 2-1.9 0-1 .9-2.1 2-2.4 1.2-.3 2-1.4 2-2.5s.3-2.8.7-3.8c.4-1 .2-1.5-.4-1.1-1 .6-4.3-2.6-4.3-4.2 0-.6-.9-1.3-2-1.6-1.1-.3-2-1.3-2-2.1 0-2.1-2.5-4.4-4.7-4.4-1 0-2.8-.6-3.9-1.4-1.1-.8-3.6-1.7-5.6-2.1-2.8-.5-3.7-.3-4.2 1-.5 1.5-.8 1.5-2.1.1-.8-.8-1.5-2.6-1.5-3.9 0-3-1.6-3.7-8.4-3.7h-5.2l-1.3 4.7zM279 653.9c0 4.2-1.8 5.8-4.9 4.2-1.3-.7-1.8-.6-1.8.5 0 1.7-.8 1.6 10.5 1.8 9 .1 9.2.1 9.2-2.2 0-1.5-.7-2.6-2-2.9-1.1-.3-2-.9-2-1.4 0-1-2.6-2.4-6.2-3.3-2.7-.6-2.8-.5-2.8 3.3zM209.5 661.5c-.5.2-2.2.6-3.7.9-2.5.6-2.6.8-1.6 3.1.6 1.4 1.5 2.5 2 2.5.4 0 .8 1.8.8 4 0 4 1.3 5.3 2.4 2.4.3-.9.6-3.1.6-5s.5-3.4 1-3.4c.6 0 1-1.1 1-2.5 0-2.4-.4-2.7-2.5-2zM714.5 664.9c-.3.5-.1 1.2.5 1.6.5.3 1-.1 1-.9 0-1.8-.6-2.1-1.5-.7zM263.3 832.5c-.7.8-1.3 1.9-1.3 2.6 0 .7-1 .9-2.9.6-2.6-.6-5.1.7-5.1 2.5 0 .4 1.2.8 2.7.8 2.1 0 2.4.3 1.5 1.2-2 2-1.4 3.5 1.3 3.5 1.8 0 2.5-.5 2.5-1.8 0-1.5.8-1.9 4-1.9 5.5 0 6.3-2.2 2.1-6.1-3.7-3.4-3.3-3.2-4.8-1.4zM240 835c0 .5.5 1 1 1 .6 0 1-.5 1-1 0-.6-.4-1-1-1-.5 0-1 .4-1 1zM242.4 846.5c-1.9 1.5-1.9 1.5 0 3 2.5 1.9 4.5 1.9 5.2 0 .3-.8 1.4-1.7 2.5-2 3.2-1.1 2.1-2.5-1.9-2.5-2.1 0-4.7.7-5.8 1.5zM271.7 852.7c-1.2 1.1-.8 3.5.6 3 .6-.2 1.7.3 2.3 1.1 1 1.3 1.4 1.3 3.3 0l2.2-1.6-3.2-1.6c-3.6-1.8-4.3-1.9-5.2-.9zM224 856.1c0 .5.5.7 1 .4.6-.3 1-.8 1-1.1 0-.2-.4-.4-1-.4-.5 0-1 .5-1 1.1zM212 862.6c0 .9.5 1.4 1.2 1.2 1.8-.6 2.1-2.8.4-2.8-.9 0-1.6.7-1.6 1.6zM258 863.9c-1.3 2.5-1.3 3.4.2 2.9.6-.2 1.3-1.4 1.5-2.6.4-2.7-.3-2.8-1.7-.3zM270.3 863.7c-1.5.5-1.8 3.3-.4 3.3.8 0 2.5-3 1.9-3.5-.2-.1-.9 0-1.5.2zM206.7 870.7c-4.3 1.8-4.4 3.7-.1 4.1 3.8.3 8.7-3.3 6.4-4.8-1.8-1.2-1.6-1.2-6.3.7zM204.5 882c-1.1 3.6 1.4 5.3 3.9 2.7 1.1-1.1 1.1-1.7.1-3-1.6-2.3-3.2-2.1-4 .3zM195.1 886.4c-1.4 1.4-2.1 2.9-1.7 3.3.9.9 4.9-3.2 4.4-4.7-.2-.6-1.3-.1-2.7 1.4zM207.7 891.3c-.3.8-.1 2 .4 2.8.7 1.2 1.1 1.1 2.5-.3 1.7-1.7 1.2-3.8-1.1-3.8-.7 0-1.5.6-1.8 1.3zM173 892.7c0 .5.7 1.6 1.4 2.6 1.6 2 3.2.6 2.2-1.8-.5-1.5-3.6-2.1-3.6-.8zM160 896c0 2.4 1.5 2.7 2.4.4.9-2.2.8-2.4-.9-2.4-.8 0-1.5.9-1.5 2zM174 908c-1.3.8-1.2 1 .3 1 .9 0 1.7-.5 1.7-1 0-1.2-.1-1.2-2 0zM249.1 910.6c0 1.1.3 1.4.6.6.3-.7.2-1.6-.1-1.9-.3-.4-.6.2-.5 1.3zM151.4 911.3c-.5.7-1.3 2-1.7 2.9-.9 2.6 3.3 3.4 7.2 1.4 3.7-2 4.1-4.6.7-4.6-1.3 0-3-.2-3.8-.5-.7-.2-1.8.1-2.4.8zM168.7 914.2c-1.1.9-1.4 1.8-.7 2.8.7 1.2 1.2 1.2 2.9-.4 1.2-1.1 2.1-2.3 2.1-2.8 0-1.2-2.4-1-4.3.4zM150.6 921.6c-.9.8-1.4 2-1.1 2.5.9 1.3 1.1 1.2 2.9-1.6 1.8-2.8.6-3.4-1.8-.9zM155.3 923.7c-.6 2.1-1 4-.8 4.2.8.7 4.4-4.4 4.5-6.2 0-3.1-2.5-1.8-3.7 2zM161.2 923.3c-1.6 1.9-4.4 14.2-4.2 18.6 0 1.9.5 4.1 1 5 .6 1.1 1 .5 1.5-2.4.3-2.2 1-4.8 1.6-5.7.5-1 .9-2.7.9-3.8 0-1.7.6-2 2.8-1.8 2.2.2 2.8-.1 3-2 .3-2 0-2.3-2-2.1-3.5.5-5-.8-3.7-3.2 1.4-2.6.7-4.6-.9-2.6zM172.6 923.5c-.4 1.2-.1 1.6 1.4 1.3 2.4-.3 2.8-2.2.7-2.6-.8-.2-1.7.4-2.1 1.3zM148.4 929.2c-.4 1.3-1.1 2.6-1.7 3-.6.3-1 2.1-1 4s-.8 4.2-1.9 5.4c-1.1 1.3-1.6 2.8-1.2 3.8.6 1.6.8 1.6 2.5.1 1-1 2.5-1.4 3.7-1 1.1.3 2.3.1 2.7-.5.3-.5-.2-1-1.3-1-2.3 0-3.3-1.9-2.5-4.9.5-2.1 3.3-3 3.3-1.1 0 .5.4 1 .8 1 .8 0 1.6-1.4 4-6.3.9-1.8-2.8-.5-4.2 1.5-2.1 2.9-3.1 1.7-1.8-2.1.6-1.7.7-3.3.2-3.6-.5-.3-1.2.5-1.6 1.7zM140.4 930.5c-.3 1.4-.3 3.3.1 4.2.6 1.6.8 1.5 2-.7.8-1.4 1.4-3.3 1.5-4.3 0-2.6-2.9-2-3.6.8zM129 933.5c0 3.9 1.4 4.6 3 1.5.8-1.6.8-2.4-.4-3.5-2.2-2.2-2.6-1.9-2.6 2zM172.4 935c-.4 1.6-.5 3.2-.4 3.6.1.4-.4 1-1 1.4-1.6 1-2.4 9.1-1 11 .9 1.3 1.2 1.3 2.1-.3.5-.9 1.4-1.7 1.9-1.7.6 0 1 .8 1 1.7.1 1.3.5 1 1.6-1 1.7-3.2 1.2-4.7-1.8-4.7-2 0-2-.4-1.4-6.5.7-6.7 0-8.9-1-3.5zM143.1 950.6c0 1.1.3 1.4.6.6.3-.7.2-1.6-.1-1.9-.3-.4-.6.2-.5 1.3zM116.7 951.5c-1.3.9-1.6 2.1-1.1 4.9.3 2.3.1 4.3-.7 5.2-.6.8-.9 1.7-.6 2 .9 1 3.5-2.1 4.3-5 .3-1.4 1.3-3 2.2-3.5 1.3-.7 1.3-1.1-.4-2.9-1.6-1.7-2.2-1.8-3.7-.7zM107.9 953.2c-.8 1.5-.7 2.4.7 3.9 2.3 2.6 3 2.4 4.3-1.2 1.5-4.3 1.5-4.4-1.4-4.5-1.6-.1-2.9.5-3.6 1.8zM106.7 970.7c-.9 5.1-.6 7.3.9 7.3 1 0 1.4-1.3 1.4-5 0-5.3-1.5-6.8-2.3-2.3zM88 974.6c0 .8.5 1.2 1 .9.6-.4.8-1.1.5-1.6-.9-1.4-1.5-1.1-1.5.7zM111.7 978c.3 1.1.9 2 1.4 2 .5 0 .9-.9.9-2s-.6-2-1.4-2c-.9 0-1.2.7-.9 2zM94.6 979.7c-.4 1.1-.3 2.8 0 3.8.7 1.6.8 1.6 1.6-.4.4-1.3.4-3-.1-3.9-.7-1.3-.9-1.2-1.5.5zM119.2 981c0 1.9.2 2.7.5 1.7.2-.9.2-2.5 0-3.5-.3-.9-.5-.1-.5 1.8zM82 983.7c0 .5.5 1.5 1 2.3.8 1.2 1 1.1 1-.8 0-1.2-.4-2.2-1-2.2-.5 0-1 .3-1 .7zM99.2 985.2c-1.4 1.4-1.6 3.8-.3 3.8 1 0 2.6-3.9 1.9-4.6-.2-.2-1 .2-1.6.8zM113.7 996.5c-.4.8-.2 1.7.3 2 .6.4 1-.3 1-1.4 0-2.5-.6-2.7-1.3-.6zM126.5 1003.8c-.5.4-1 2.2-1 3.9 0 2.7.2 3 1.3 1.9 1.5-1.5 1.2-6.9-.3-5.8z"/></svg>